# 3ds Max Wavefront OBJ Exporter v0.99 - (c)2007 guruware
# File Created: 25.09.2021 01:00:00

mtllib ??.mtl

#
# object Box001
#

v  -62.1689 -22.2424 7.9748
v  -62.1689 85.4235 -11.0096
v  95.1343 85.4235 -11.0096
v  95.1343 -22.2424 7.9748
v  -43.3766 -2.4711 11.8830
v  76.3421 -2.4711 11.8830
v  76.3421 68.1812 -0.5749
v  -43.3766 68.1812 -0.5749
v  -64.4591 -24.1001 10.6280
v  97.4246 -24.1001 10.6280
v  97.4246 -21.4691 25.5492
v  -64.4591 -21.4691 25.5492
v  97.4246 88.0766 -9.1518
v  97.4246 90.7077 5.7695
v  -64.4591 88.0766 -9.1518
v  -64.4591 90.7077 5.7695
v  -64.1018 -20.9909 26.2031
v  97.0672 -20.9909 26.2031
v  95.8756 -19.7087 26.6128
v  -62.9101 -19.7087 26.6128
v  97.0672 90.4820 6.5474
v  95.8756 89.4171 7.3710
v  -64.1018 90.4820 6.5474
v  -62.9101 89.4171 7.3710
v  -55.8198 -12.9235 24.2619
v  88.7852 -12.9235 24.2619
v  85.2939 -10.5280 17.7417
v  -52.3284 -10.5280 17.7417
v  88.7852 82.2371 7.4825
v  85.2939 77.7560 2.1749
v  -55.8198 82.2371 7.4825
v  -52.3284 77.7560 2.1749
v  83.1539 -8.3541 17.7465
v  -50.1884 -8.3541 17.7465
v  83.1539 75.7149 2.9229
v  -50.1884 75.7149 2.9229
v  -43.3766 -1.8083 15.6416
v  76.3421 -1.8083 15.6416
v  76.3421 68.8440 3.1837
v  -43.3766 68.8440 3.1837
v  90.5221 -14.4365 25.6832
v  89.2502 -13.3000 24.8042
v  -56.2848 -13.3000 24.8042
v  -57.5566 -14.4365 25.6832
v  90.5221 84.1450 8.3006
v  89.2502 82.7764 7.8633
v  -57.5566 84.1450 8.3006
v  -56.2848 82.7764 7.8633
v  93.5940 -17.3536 26.8300
v  92.8036 -16.5752 26.6927
v  -59.8381 -16.5752 26.6927
v  -60.6286 -17.3536 26.8300
v  93.5940 87.2784 8.3806
v  92.8036 86.5000 8.5178
v  -60.6286 87.2784 8.3806
v  -59.8381 86.5000 8.5178
v  95.1560 -18.9485 26.7798
v  94.3244 -18.0902 26.8590
v  -61.3590 -18.0902 26.8590
v  -62.1905 -18.9485 26.7798
v  95.1560 88.7600 7.7879
v  94.3244 87.9805 8.1559
v  -62.1905 88.7600 7.7879
v  -61.3590 87.9805 8.1559
v  92.0732 -15.8732 26.4681
v  91.2417 -15.0937 26.1001
v  -58.2762 -15.0937 26.1001
v  -59.1078 -15.8732 26.4681
v  92.0732 85.7635 8.5468
v  91.2417 84.9051 8.4677
v  -59.1078 85.7635 8.5468
v  -58.2762 84.9051 8.4677
v  -55.9432 -13.0167 24.4437
v  -56.1357 -13.1726 24.6682
v  89.1011 -13.1726 24.6682
v  88.9086 -13.0167 24.4437
v  89.1011 82.6101 7.7791
v  88.9086 82.3869 7.6215
v  -56.1357 82.6101 7.7791
v  -55.9432 82.3869 7.6215
v  -64.2779 -21.1980 26.0434
v  -64.3925 -21.3512 25.8339
v  97.3579 -21.3512 25.8339
v  97.2434 -21.1980 26.0434
v  97.3579 90.6942 6.0773
v  97.2434 90.6219 6.3266
v  -64.3925 90.6942 6.0773
v  -64.2779 90.6219 6.3266
v  -43.4690 -1.8445 15.9681
v  -43.5455 -1.9011 16.0879
v  76.5109 -1.9011 16.0879
v  76.4344 -1.8445 15.9681
v  76.5109 69.0838 3.5714
v  76.4344 68.9897 3.4781
v  -43.5455 69.0838 3.5714
v  -43.4690 68.9897 3.4781
v  -43.7684 -2.0980 16.2553
v  76.7338 -2.0980 16.2553
v  76.7338 69.3260 3.6613
v  -43.7684 69.3260 3.6613
v  81.0139 -6.5740 15.5179
v  78.8738 -4.3072 16.0498
v  -45.9084 -4.3072 16.0498
v  -48.0484 -6.5740 15.5179
v  81.0139 73.2799 1.4375
v  78.8738 71.3318 2.7127
v  -48.0484 73.2799 1.4375
v  -45.9084 71.3318 2.7127
v  77.8038 -3.2883 15.6664
v  -44.8384 -3.2883 15.6664
v  77.8038 70.2432 2.7008
v  -44.8384 70.2432 2.7008
v  -63.2826 -23.2683 8.5696
v  -64.0515 -23.8921 9.4604
v  -64.0515 87.4818 -10.1778
v  -63.2826 86.5910 -10.8015
v  97.0170 87.4818 -10.1778
v  96.2480 86.5910 -10.8015
v  97.0170 -23.8921 9.4604
v  96.2480 -23.2683 8.5696
# 120 vertices

vn -0.1322 -0.3008 -0.9445
vn -0.1322 -0.0404 -0.9904
vn 0.1322 -0.0404 -0.9904
vn 0.1322 -0.3008 -0.9445
vn 0.5774 0.6688 0.4683
vn -0.5774 0.6688 0.4683
vn -0.5774 -0.4683 0.6688
vn 0.5774 -0.4683 0.6688
vn -0.6905 -0.7174 -0.0920
vn 0.6905 -0.7174 -0.0920
vn 0.6999 -0.6646 0.2614
vn -0.6999 -0.6646 0.2614
vn 0.6905 0.6427 -0.3318
vn 0.6999 0.7140 0.0183
vn -0.6905 0.6427 -0.3318
vn -0.6999 0.7140 0.0183
vn -0.3804 -0.2283 0.8962
vn 0.3804 -0.2283 0.8962
vn 0.2334 -0.0659 0.9701
vn -0.2334 -0.0659 0.9701
vn 0.3804 0.5210 0.7641
vn 0.2334 0.3938 0.8891
vn -0.3804 0.5210 0.7641
vn -0.2334 0.3938 0.8891
vn 0.5047 0.6187 0.6021
vn -0.5047 0.6187 0.6021
vn -0.3792 0.5200 0.7654
vn 0.3792 0.5200 0.7654
vn -0.5047 -0.3754 0.7774
vn -0.3792 -0.2268 0.8971
vn 0.5047 -0.3754 0.7774
vn 0.3792 -0.2268 0.8971
vn -0.0332 0.2062 0.9780
vn 0.0332 0.2062 0.9780
vn -0.0332 0.1407 0.9895
vn 0.0332 0.1407 0.9895
vn 0.6907 0.7174 0.0912
vn -0.6907 0.7174 0.0912
vn -0.6907 -0.6429 0.3311
vn 0.6907 -0.6429 0.3311
vn -0.2107 0.3733 0.9035
vn -0.2699 0.4263 0.8634
vn 0.2699 0.4263 0.8634
vn 0.2107 0.3733 0.9035
vn -0.2107 -0.0417 0.9767
vn -0.2699 -0.1053 0.9571
vn 0.2107 -0.0417 0.9767
vn 0.2699 -0.1053 0.9571
vn 0.0507 0.1232 0.9911
vn -0.0170 0.1903 0.9816
vn 0.0170 0.1903 0.9816
vn -0.0507 0.1232 0.9911
vn 0.0507 0.2232 0.9735
vn -0.0170 0.1569 0.9875
vn -0.0507 0.2232 0.9735
vn 0.0170 0.1569 0.9875
vn 0.1813 -0.0107 0.9834
vn 0.1172 0.0558 0.9915
vn -0.1172 0.0558 0.9915
vn -0.1813 -0.0107 0.9834
vn 0.1813 0.3464 0.9204
vn 0.1172 0.2867 0.9508
vn -0.1813 0.3464 0.9204
vn -0.1172 0.2867 0.9508
vn -0.0845 0.2556 0.9631
vn -0.1505 0.3179 0.9361
vn 0.1505 0.3179 0.9361
vn 0.0845 0.2556 0.9631
vn -0.0845 0.0892 0.9924
vn -0.1505 0.0214 0.9884
vn 0.0845 0.0892 0.9924
vn 0.1505 0.0214 0.9884
vn 0.4335 0.5641 0.7027
vn 0.3548 0.4996 0.7903
vn -0.3548 0.4996 0.7903
vn -0.4335 0.5641 0.7027
vn -0.3548 -0.1991 0.9135
vn -0.4335 -0.2898 0.8533
vn 0.3548 -0.1991 0.9135
vn 0.4335 -0.2898 0.8533
vn -0.5343 -0.4125 0.7378
vn -0.6434 -0.5616 0.5203
vn 0.6434 -0.5616 0.5203
vn 0.5343 -0.4125 0.7378
vn 0.6434 0.7057 0.2968
vn 0.5343 0.6399 0.5522
vn -0.6434 0.7057 0.2968
vn -0.5343 0.6399 0.5522
vn 0.5648 0.6607 0.4945
vn 0.3416 0.4885 0.8029
vn -0.3416 0.4885 0.8029
vn -0.5648 0.6607 0.4945
vn -0.3416 -0.1844 0.9216
vn -0.5648 -0.4517 0.6906
vn 0.3416 -0.1844 0.9216
vn 0.5648 -0.4517 0.6906
vn -0.1707 0.0004 0.9853
vn 0.1707 0.0004 0.9853
vn 0.1707 0.3366 0.9261
vn -0.1707 0.3366 0.9261
vn -0.2229 0.3843 0.8959
vn 0.1294 0.0433 0.9906
vn -0.1294 0.0433 0.9906
vn 0.2229 0.3843 0.8959
vn -0.2229 -0.0547 0.9733
vn 0.1294 0.2982 0.9457
vn 0.2229 -0.0547 0.9733
vn -0.1294 0.2982 0.9457
vn 0.0158 0.1580 0.9873
vn -0.0158 0.1580 0.9873
vn 0.0158 0.1892 0.9818
vn -0.0158 0.1892 0.9818
vn -0.3448 -0.4911 -0.8000
vn -0.5620 -0.6588 -0.5001
vn -0.5620 0.4480 -0.6953
vn -0.3448 0.1879 -0.9197
vn 0.5620 0.4480 -0.6953
vn 0.3448 0.1879 -0.9197
vn 0.5620 -0.6588 -0.5001
vn 0.3448 -0.4911 -0.8000
# 120 vertex normals

vt 0.9859 0.0201 0.0000
vt 0.9859 0.9799 0.0000
vt 0.0141 0.9799 0.0000
vt 0.0141 0.0201 0.0000
vt 0.0000 0.0000 0.0000
vt 1.0000 0.0000 0.0000
vt 1.0000 1.0000 0.0000
vt 0.0000 1.0000 0.0000
vt 0.0000 0.1274 0.0000
vt 1.0000 0.1274 0.0000
vt 1.0000 0.9700 0.0000
vt 0.0000 0.9700 0.0000
vt 0.0011 0.8911 0.0000
vt 0.0004 0.9468 0.0000
vt 0.9996 0.9468 0.0000
vt 0.9989 0.8911 0.0000
vt 0.0016 0.8968 0.0000
vt 0.0006 0.9489 0.0000
vt 0.9994 0.9489 0.0000
vt 0.9984 0.8968 0.0000
vt 0.0022 0.8698 0.0000
vt 0.9978 0.8698 0.0000
vt 0.0031 0.8774 0.0000
vt 0.9969 0.8774 0.0000
vt 0.9897 0.0263 0.0000
vt 0.9964 0.0667 0.0000
vt 0.0036 0.0667 0.0000
vt 0.0103 0.0263 0.0000
vt 0.9927 0.0294 0.0000
vt 0.9975 0.0678 0.0000
vt 0.0025 0.0678 0.0000
vt 0.0073 0.0294 0.0000
vt 0.9799 -0.0007 0.0000
vt 0.0201 -0.0007 0.0000
vt 0.9859 0.0053 0.0000
vt 0.0141 0.0053 0.0000
# 36 texture coords

o Box001
g Box001
usemtl wire_061135006
s 1
f 1/1/1 2/2/2 3/3/3 4/4/4 
f 5/5/5 6/6/6 7/7/7 8/8/8 
f 9/9/9 10/10/10 11/11/11 12/12/12 
f 10/9/10 13/10/13 14/11/14 11/12/11 
f 13/9/13 15/10/15 16/11/16 14/12/14 
f 15/9/15 9/10/9 12/11/12 16/12/16 
f 17/5/17 18/6/18 19/6/19 20/5/20 
f 18/6/18 21/7/21 22/7/22 19/6/19 
f 21/7/21 23/8/23 24/8/24 22/7/22 
f 23/8/23 17/5/17 20/5/20 24/8/24 
f 25/5/25 26/6/26 27/6/27 28/5/28 
f 26/6/26 29/7/29 30/7/30 27/6/27 
f 29/7/29 31/8/31 32/8/32 30/7/30 
f 31/8/31 25/5/25 28/5/28 32/8/32 
s 2
f 28/5/28 27/6/27 33/6/33 34/5/34 
f 27/6/27 30/7/30 35/7/35 33/6/33 
f 30/7/30 32/8/32 36/8/36 35/7/35 
f 32/8/32 28/5/28 34/5/34 36/8/36 
f 37/5/37 38/6/38 6/6/6 5/5/5 
s 4
f 38/6/38 39/7/39 7/7/7 6/6/6 
s 2
f 39/7/39 40/8/40 8/8/8 7/7/7 
s 4
f 40/8/40 37/5/37 5/5/5 8/8/8 
s 1
f 41/6/41 42/6/42 43/5/43 44/5/44 
f 45/7/45 46/7/46 42/6/42 41/6/41 
f 47/8/47 48/8/48 46/7/46 45/7/45 
f 44/5/44 43/5/43 48/8/48 47/8/47 
f 49/6/49 50/6/50 51/5/51 52/5/52 
f 53/7/53 54/7/54 50/6/50 49/6/49 
f 55/8/55 56/8/56 54/7/54 53/7/53 
f 52/5/52 51/5/51 56/8/56 55/8/55 
f 57/6/57 58/6/58 59/5/59 60/5/60 
f 61/7/61 62/7/62 58/6/58 57/6/57 
f 63/8/63 64/8/64 62/7/62 61/7/61 
f 60/5/60 59/5/59 64/8/64 63/8/63 
f 65/6/65 66/6/66 67/5/67 68/5/68 
f 69/7/69 70/7/70 66/6/66 65/6/65 
f 71/8/71 72/8/72 70/7/70 69/7/69 
f 68/5/68 67/5/67 72/8/72 71/8/71 
f 19/6/19 57/6/57 60/5/60 20/5/20 
f 22/7/22 61/7/61 57/6/57 19/6/19 
f 24/8/24 63/8/63 61/7/61 22/7/22 
f 20/5/20 60/5/60 63/8/63 24/8/24 
f 50/6/50 65/6/65 68/5/68 51/5/51 
f 54/7/54 69/7/69 65/6/65 50/6/50 
f 56/8/56 71/8/71 69/7/69 54/7/54 
f 51/5/51 68/5/68 71/8/71 56/8/56 
f 58/6/58 49/6/49 52/5/52 59/5/59 
f 62/7/62 53/7/53 49/6/49 58/6/58 
f 64/8/64 55/8/55 53/7/53 62/7/62 
f 59/5/59 52/5/52 55/8/55 64/8/64 
f 66/6/66 41/6/41 44/5/44 67/5/67 
f 70/7/70 45/7/45 41/6/41 66/6/66 
f 72/8/72 47/8/47 45/7/45 70/7/70 
f 67/5/67 44/5/44 47/8/47 72/8/72 
f 73/5/73 74/5/74 75/6/75 76/6/76 
f 76/6/76 75/6/75 77/7/77 78/7/78 
f 78/7/78 77/7/77 79/8/79 80/8/80 
f 80/8/80 79/8/79 74/5/74 73/5/73 
f 25/5/25 73/5/73 76/6/76 26/6/26 
f 26/6/26 76/6/76 78/7/78 29/7/29 
f 29/7/29 78/7/78 80/8/80 31/8/31 
f 31/8/31 80/8/80 73/5/73 25/5/25 
f 74/5/74 43/5/43 42/6/42 75/6/75 
f 75/6/75 42/6/42 46/7/46 77/7/77 
f 77/7/77 46/7/46 48/8/48 79/8/79 
f 79/8/79 48/8/48 43/5/43 74/5/74 
f 81/13/81 82/14/82 83/15/83 84/16/84 
f 84/17/84 83/18/83 85/19/85 86/20/86 
f 86/13/86 85/14/85 87/15/87 88/16/88 
f 88/17/88 87/18/87 82/19/82 81/20/81 
f 17/21/17 81/13/81 84/16/84 18/22/18 
f 18/23/18 84/17/84 86/20/86 21/24/21 
f 21/21/21 86/13/86 88/16/88 23/22/23 
f 23/23/23 88/17/88 81/20/81 17/24/17 
f 82/14/82 12/12/12 11/11/11 83/15/83 
f 83/18/83 11/12/11 14/11/14 85/19/85 
f 85/14/85 14/12/14 16/11/16 87/15/87 
f 87/18/87 16/12/16 12/11/12 82/19/82 
s 2
f 89/5/89 90/5/90 91/6/91 92/6/92 
s 4
f 92/6/92 91/6/91 93/7/93 94/7/94 
s 2
f 94/7/94 93/7/93 95/8/95 96/8/96 
s 4
f 96/8/96 95/8/95 90/5/90 89/5/89 
s 2
f 37/5/37 89/5/89 92/6/92 38/6/38 
s 4
f 38/6/38 92/6/92 94/7/94 39/7/39 
s 2
f 39/7/39 94/7/94 96/8/96 40/8/40 
s 4
f 40/8/40 96/8/96 89/5/89 37/5/37 
s 2
f 90/5/90 97/5/97 98/6/98 91/6/91 
s 4
f 91/6/91 98/6/98 99/7/99 93/7/93 
s 2
f 93/7/93 99/7/99 100/8/100 95/8/95 
s 4
f 95/8/95 100/8/100 97/5/97 90/5/90 
s 1
f 101/6/101 102/6/102 103/5/103 104/5/104 
s 2
f 105/7/105 106/7/106 102/6/102 101/6/101 
s 1
f 107/8/107 108/8/108 106/7/106 105/7/105 
s 2
f 104/5/104 103/5/103 108/8/108 107/8/107 
s 4
f 33/6/33 101/6/101 104/5/104 34/5/34 
s 8
f 35/7/35 105/7/105 101/6/101 33/6/33 
s 4
f 36/8/36 107/8/107 105/7/105 35/7/35 
s 8
f 34/5/34 104/5/104 107/8/107 36/8/36 
s 4
f 102/6/102 109/6/109 110/5/110 103/5/103 
f 106/7/106 111/7/111 109/6/109 102/6/102 
f 108/8/108 112/8/112 111/7/111 106/7/106 
f 103/5/103 110/5/110 112/8/112 108/8/108 
s 1
f 109/6/109 98/6/98 97/5/97 110/5/110 
s 8
f 111/7/111 99/7/99 98/6/98 109/6/109 
s 1
f 112/8/112 100/8/100 99/7/99 111/7/111 
s 8
f 110/5/110 97/5/97 100/8/100 112/8/112 
s 1
f 113/25/113 114/26/114 115/27/115 116/28/116 
f 116/29/116 115/30/115 117/31/117 118/32/118 
f 118/25/118 117/26/117 119/27/119 120/28/120 
f 120/29/120 119/30/119 114/31/114 113/32/113 
f 1/33/1 113/25/113 116/28/116 2/34/2 
f 2/35/2 116/29/116 118/32/118 3/36/3 
f 3/33/3 118/25/118 120/28/120 4/34/4 
f 4/35/4 120/29/120 113/32/113 1/36/1 
f 114/26/114 9/10/9 15/9/15 115/27/115 
f 115/30/115 15/10/15 13/9/13 117/31/117 
f 117/26/117 13/10/13 10/9/10 119/27/119 
f 119/30/119 10/10/10 9/9/9 114/31/114 
# 118 polygons

#
# object Box002
#

v  -9.2843 -21.4288 -14.3825
v  22.6331 34.7136 -1.9695
v  7.4645 46.7235 -3.9979
v  -60.8613 12.5119 -8.3978
v  -60.8613 -21.4288 -14.3825
v  -9.2843 -21.0711 -16.4115
v  -60.8613 -21.0711 -16.4115
v  -60.8613 12.8697 -10.4268
v  7.4645 47.0813 -6.0269
v  22.6331 35.0714 -3.9986
# 10 vertices

vn 0.4018 -0.7901 0.4630
vn 0.7241 0.0676 0.6864
vn 0.0459 0.7582 0.6504
vn -0.6697 0.3043 0.6775
vn -0.5774 -0.6688 0.4683
vn 0.4030 -0.5508 -0.7309
vn -0.5774 -0.4683 -0.6688
vn -0.6850 0.5143 -0.5160
vn 0.1080 0.8235 -0.5570
vn 0.8526 0.2395 -0.4645
# 10 vertex normals

vt 1.0000 0.0000 0.0000
vt 1.0000 0.6842 0.0000
vt 0.7011 1.0000 0.0000
vt 0.0000 1.0000 0.0000
vt 0.0000 0.0000 0.0000
vt 1.0000 1.0000 0.0000
vt 0.2989 1.0000 0.0000
vt 0.0000 0.6842 0.0000
vt 0.7011 0.0000 0.0000
vt 0.3158 0.0000 0.0000
vt 0.3158 1.0000 0.0000
# 11 texture coords

o Box002
g Box002
usemtl wire_176026026
s 1
f 121/37/121 122/38/122 123/39/123 124/40/124 125/41/125 
f 126/41/126 127/37/127 128/42/128 129/43/129 130/44/130 
s 2
f 121/41/121 125/37/125 127/42/127 126/40/126 
s 4
f 125/41/125 124/37/124 128/42/128 127/40/127 
s 2
f 124/41/124 123/45/123 129/39/129 128/40/128 
s 4
f 122/46/122 121/37/121 126/42/126 130/47/130 
s 8
f 129/39/129 123/45/123 122/37/122 130/42/130 
# 7 polygons

