<svg width="current" height="current" viewBox="0 0 32 47" fill="none" xmlns="http://www.w3.org/2000/svg">
<path d="M23.3 13.5244L11.9 17.1244L11.8 19.2244L4 24.6244C4 24.6244 13.6 40.5244 14 40.3244C14.4 40.1244 26.9 35.9244 26.9 35.9244L26.4 27.2244L23.3 13.5244Z" fill="white"/>
<path d="M26.2991 34.624C26.2991 34.624 28.3991 36.024 25.8991 40.124C25.8991 40.124 22.0991 47.224 13.0991 45.324C13.0991 45.324 5.3991 43.424 8.6991 40.624" fill="white"/>
<path d="M7 42.0244C7 41.4244 7.2 40.7244 8.1 39.9244C8.5 39.6244 9 39.6244 9.3 40.0244C9.6 40.4244 9.6 40.9244 9.2 41.2244C8.9 41.4244 8.6 41.8244 8.7 42.0244C8.9 42.8244 11.2 43.9244 13.2 44.4244C21.4 46.1244 24.9 39.9244 25 39.7244C27 36.5244 25.7 35.4244 25.7 35.4244L26.2 34.7244L26.7 34.0244C26.8 34.1244 29.5 35.9244 26.5 40.7244C26.2 41.3244 21.9 48.2244 12.8 46.3244C12 45.9244 7.6 44.7244 7 42.4244C7 42.3244 7 42.1244 7 42.0244Z" fill="black"/>
<path d="M19.8996 15.2248C17.0996 3.82479 25.4996 1.92479 25.4996 1.92479C32.7996 0.524794 29.7996 9.42479 29.7996 9.42479C29.7996 9.42479 26.8996 16.4248 29.1996 23.5248C29.1996 23.5248 31.6996 32.8248 24.8996 36.9248" fill="white"/>
<path d="M18.4996 9.92504C18.5996 8.12504 19.0996 6.42504 19.9996 5.02504C21.9996 1.82504 25.1996 1.02504 25.2996 0.925038C27.4996 0.525038 29.1996 0.925038 30.1996 2.02504C31.0996 3.12504 31.4996 4.72504 31.1996 6.82504C30.9996 8.32504 30.5996 9.52504 30.5996 9.52504V9.62504C30.5996 9.72504 27.8996 16.525 29.9996 23.125C29.9996 23.225 32.5996 33.125 25.2996 37.525C24.8996 37.725 24.3996 37.625 24.0996 37.225C23.8996 36.825 23.9996 36.325 24.3996 36.025C26.9996 34.525 28.3996 31.925 28.6996 28.525C28.8996 25.925 28.3996 23.825 28.2996 23.625C26.0996 16.625 28.7996 9.72504 28.9996 9.12504C29.3996 7.92504 30.0996 4.72504 28.8996 3.32504C28.2996 2.62504 27.1996 2.42504 25.6996 2.72504C25.4996 2.82504 22.9996 3.52504 21.4996 6.02504C20.0996 8.22504 19.8996 11.325 20.7996 15.025C20.8996 15.525 20.5996 15.925 20.1996 16.125C19.6996 16.225 19.2996 15.925 19.0996 15.525C18.5996 13.425 18.3996 11.625 18.4996 9.92504Z" fill="black"/>
<path d="M12.9 19.7257C12.9 19.7257 8.80001 14.8257 3.10001 18.9257C2.00001 19.7257 1.10001 20.9257 0.900011 22.4257C0.700011 23.7257 0.800011 25.1257 2.40001 25.8257" fill="white"/>
<path d="M0 23.2253C0 22.9253 0 22.5253 0.1 22.2253C0.4 20.6253 1.3 19.1253 2.7 18.1253C7.7 14.5253 12 17.2253 13.6 19.1253C13.9 19.5253 13.9 20.0253 13.5 20.3253C13.1 20.6253 12.6 20.6253 12.3 20.2253C12.1 20.0253 8.6 16.0253 3.7 19.5253C2.7 20.2253 2 21.3253 1.8 22.4253C1.5 24.1253 2.2 24.6253 2.8 24.9253C3.2 25.1253 3.4 25.6253 3.2 26.1253C3 26.5253 2.5 26.7253 2 26.5253C0.7 26.0253 0 24.8253 0 23.2253Z" fill="black"/>
<path d="M4.69914 23.125C4.69914 23.125 -1.50086 28.125 2.99914 36.325C2.99914 36.325 6.39914 42.425 16.5991 40.625" fill="white"/>
<path d="M0.5 30.5249C0.5 25.5249 4.1 22.5249 4.1 22.5249C4.5 22.2249 5 22.3249 5.3 22.6249C5.6 23.0249 5.5 23.5249 5.2 23.8249C5 24.0249 -0.3 28.5249 3.8 35.9249C3.9 36.1249 7.1 41.4249 16.5 39.7249C17 39.6249 17.4 39.9249 17.5 40.4249C17.6 40.9249 17.3 41.3249 16.8 41.4249C6.1 43.4249 2.4 37.0249 2.3 36.7249C1 34.4249 0.5 32.3249 0.5 30.5249Z" fill="black"/>
<path d="M21.5004 21.2253C21.5004 20.9253 21.7004 20.5253 22.0004 20.4253C22.4004 20.2253 23.0004 20.4253 23.1004 20.9253C23.1004 21.0253 23.6004 22.1253 23.2004 23.3253C23.1004 23.8253 22.6004 24.0253 22.1004 23.9253C21.6004 23.8253 21.4004 23.3253 21.5004 22.8253C21.7004 22.1253 21.4004 21.5253 21.4004 21.5253C21.6004 21.4253 21.5004 21.3253 21.5004 21.2253Z" fill="black"/>
<path d="M13.5996 24.1252C13.5996 23.8252 13.7996 23.5252 13.9996 23.4252C14.3996 23.2252 14.8996 23.3252 15.1996 23.7252C15.1996 23.8252 15.9996 25.1252 15.7996 26.8252C15.6996 27.3252 15.2996 27.6252 14.7996 27.6252C14.2996 27.5252 13.9996 27.1252 13.9996 26.6252C14.0996 25.5252 13.5996 24.6252 13.5996 24.6252C13.6996 24.4252 13.5996 24.2252 13.5996 24.1252Z" fill="black"/>
<path d="M12.7994 18.5247C15.2994 17.6247 17.5994 16.5247 19.9994 15.4247C18.7994 11.2247 18.9994 7.52468 18.9994 7.52468C18.9994 7.52468 19.0994 -1.87531 12.5994 1.72469C12.5994 1.72469 5.19943 6.12469 11.2994 16.1247L12.7994 18.5247Z" fill="white"/>
<path d="M12.1003 20.0249C12.4003 20.4249 12.9003 20.5249 13.3003 20.3249C13.7003 20.0249 13.8003 19.5249 13.6003 19.1249C11.6003 15.9249 9.40026 9.32486 10.0003 6.82486C10.7003 3.92486 12.9003 2.52486 13.0003 2.42486C14.4003 1.72486 15.5003 1.52486 16.2003 2.02486C17.8003 3.02486 18.1003 6.32486 18.1003 7.52486C18.1003 7.92486 17.9003 11.6249 19.1003 15.8249C19.6003 15.5249 20.2003 15.3249 20.7003 15.0249C19.6003 11.0249 19.8003 7.62486 19.8003 7.62486V7.52486C19.8003 7.42486 19.8003 6.22486 19.5003 4.72486C19.1003 2.62486 18.3003 1.22486 17.1003 0.524864C15.8003 -0.275136 14.1003 -0.175136 12.1003 0.924864C12.0003 0.924864 9.20026 2.62486 8.30026 6.32486C7.90026 7.92486 7.90026 9.62486 8.40026 11.4249C8.80026 13.0249 11.1003 18.3249 12.1003 20.0249Z" fill="black"/>
</svg>
