<svg width="current" height="current" viewBox="0 0 39 44" fill="none" xmlns="http://www.w3.org/2000/svg">
<path d="M18.7 15.7C18.1 15.3 17.4 14.8 16.9 14.2C16.5 13.8 16.1 13.4 15.8 13C15.4 12.6 15.1 12.1 14.8 11.6C14.5 11.1 14.2 10.6 13.9 10.1C13.5 9.3 13.1 8.5 12.7 7.6C11.9 5.6 11.3 3.3 11 1C11 1.1 11 1.3 10.9 1.4C10.9 1.5 10.9 1.6 10.8 1.7C10.8 1.9 10.7 2.2 10.7 2.4C10.7 2.5 10.6 2.7 10.6 2.8C10.6 3 10.5 3.2 10.4 3.4C10.4 3.5 10.3 3.7 10.3 3.8C10.2 4 10.2 4.2 10.1 4.4C10.1 4.5 10 4.7 10 4.8C9.9 4.8 9.9 5 9.8 5.2C9.8 5.3 9.7 5.4 9.7 5.5C9.6 5.8 9.5 6 9.5 6.2C9.5 6.3 9.4 6.4 9.4 6.5C9.3 6.7 9.1 7 9 7.3C9 7.4 9 7.4 8.9 7.5C8.8 7.7 8.7 7.9 8.6 8.1C8.6 8.2 8.5 8.3 8.5 8.4C8.4 8.6 8.3 8.8 8.2 8.9C8.2 9.1 8.1 9.2 8.1 9.3C8 9.4 7.9 9.6 7.8 9.7C7.7 9.8 7.7 9.9 7.6 10C7.5 10.1 7.4 10.3 7.3 10.4C7.2 10.5 7.2 10.6 7.1 10.7C7 10.8 6.9 11 6.8 11.1C6.7 11.2 6.7 11.3 6.6 11.4C6.5 11.6 6.3 11.7 6.2 11.9L6.1 12C5.9 12.2 5.8 12.4 5.6 12.6C5.5 12.7 5.5 12.7 5.4 12.8C5.3 12.9 5.2 13.1 5 13.2C4.9 13.3 4.9 13.4 4.8 13.4C4.7 13.5 4.6 13.6 4.5 13.7C4.4 13.8 4.3 13.8 4.3 13.9C4.2 14 4.1 14.1 4 14.2C3.9 14.3 3.8 14.3 3.8 14.4C3.7 14.5 3.6 14.6 3.5 14.7C3.4 14.8 3.3 14.8 3.3 14.9C3.2 15 3 15.1 2.9 15.2C2.8 15.2 2.8 15.3 2.7 15.3C2.5 15.4 2.3 15.6 2.1 15.7C2.1 15.7 2 15.7 2 15.8C1.8 15.9 1.7 16 1.5 16.1C1.4 16.1 1.4 16.2 1.3 16.2C1.2 16.2 1.1 16.3 1 16.3C2.4 17 3.8 18 4.9 19.3C5.3 19.7 5.6 20.1 6 20.6C6.4 21.2 6.8 21.8 7.2 22.5C7.4 22.9 7.6 23.3 7.8 23.7C9 26.1 9.9 29 10.3 32C10.3 31.9 10.3 31.7 10.4 31.6C10.4 31.5 10.4 31.4 10.5 31.3C10.5 31.1 10.6 30.8 10.6 30.6C10.6 30.5 10.7 30.3 10.7 30.2C10.7 30 10.8 29.8 10.9 29.6C10.9 29.5 11 29.3 11 29.2C11.1 29 11.1 28.8 11.2 28.6C11.2 28.5 11.3 28.3 11.3 28.2C11.4 28 11.4 27.8 11.5 27.6C11.5 27.5 11.6 27.4 11.6 27.3C11.7 27.1 11.8 26.9 11.8 26.7C11.8 26.6 11.9 26.5 11.9 26.4C12 26.1 12.1 25.8 12.3 25.5C12.3 25.4 12.4 25.4 12.4 25.3C12.5 25.1 12.6 24.9 12.7 24.7C12.8 24.6 12.8 24.5 12.9 24.4C13 24.2 13.1 24.1 13.2 23.9C13.3 23.8 13.3 23.7 13.4 23.6C13.5 23.4 13.6 23.3 13.7 23.1C13.8 23 13.8 22.9 13.9 22.8C14 22.7 14.1 22.5 14.2 22.4C14.3 22.3 14.3 22.2 14.4 22.1C14.5 22 14.6 21.8 14.7 21.7C14.8 21.6 14.8 21.5 14.9 21.4C15 21.2 15.1 21.1 15.3 20.9C15.3 20.8 15.4 20.8 15.4 20.7C15.6 20.5 15.7 20.3 15.9 20.1C16 20 16 20 16.1 19.9C16.2 19.8 16.3 19.6 16.4 19.5C16.5 19.4 16.6 19.3 16.6 19.3C16.7 19.2 16.8 19.1 16.9 19C17 18.9 17.1 18.8 17.1 18.8C17.2 18.7 17.3 18.6 17.4 18.5C17.5 18.4 17.6 18.4 17.7 18.3C17.8 18.2 17.9 18.1 18 18C18.1 17.9 18.2 17.9 18.2 17.8C18.3 17.7 18.4 17.6 18.6 17.5C18.7 17.4 18.7 17.4 18.8 17.3C19 17.2 19.2 17 19.4 16.9L19.5 16.8C19.7 16.7 19.8 16.6 20 16.5C20.1 16.5 20.2 16.4 20.2 16.4C20.3 16.4 20.4 16.3 20.5 16.3C20.4 16.2 20.3 16.2 20.1 16.1C19.5 16.1 19.1 15.9 18.7 15.7Z" fill="white"/>
<path d="M10.2 33C9.7 33 9.4 32.7 9.3 32.2C8.9 29.3 8.1 26.5 6.9 24.1C6.7 23.8 6.5 23.4 6.3 23C5.9 22.3 5.5 21.7 5.1 21.2C4.8 20.8 4.4 20.4 4.1 20C3 18.9 1.8 18 0.5 17.3C0.2 17.2 0 16.9 0 16.5C0 16.2 0.2 15.8 0.5 15.7C0.6 15.7 0.6 15.6 0.7 15.6L0.9 15.5C0.9 15.5 1 15.5 1 15.4C1.2 15.3 1.3 15.2 1.5 15.1H1.6C1.8 15 2 14.9 2.2 14.7L2.4 14.6C2.5 14.5 2.6 14.4 2.8 14.3C2.9 14.3 2.9 14.2 3 14.2H3.1C3 14.1 3.1 14.1 3.2 14C3.3 13.9 3.4 13.9 3.4 13.8C3.5 13.7 3.6 13.6 3.7 13.5C3.8 13.4 3.8 13.4 3.9 13.3C4 13.2 4.1 13.1 4.2 13C4.3 12.9 4.3 12.9 4.4 12.8C4.5 12.7 4.6 12.6 4.7 12.4L4.8 12.3L4.9 12.2C5.1 12 5.2 11.8 5.4 11.6L5.5 11.5C5.7 11.3 5.8 11.1 6 11C6 10.9 6.1 10.9 6.1 10.8L6.2 10.7C6.3 10.6 6.4 10.4 6.5 10.3C6.6 10.2 6.6 10.1 6.7 10.1C6.8 10 6.9 9.8 7 9.7C6.9 9.5 7 9.4 7 9.3C7.1 9.1 7.2 9 7.3 8.8C7.4 8.7 7.4 8.6 7.5 8.5C7.5 8.4 7.6 8.2 7.7 8L7.8 7.9C7.8 7.8 7.9 7.8 7.9 7.7C7.9 7.6 8 7.3 8.1 7.1L8.2 7C8.3 6.7 8.4 6.4 8.5 6.2L8.6 6C8.7 5.8 8.8 5.6 8.8 5.4C8.8 5.3 8.9 5.2 8.9 5.2V5.1C9 4.7 9.1 4.6 9.2 4.4C9.2 4.3 9.3 4.2 9.3 4C9.4 3.8 9.4 3.6 9.5 3.4C9.5 3.3 9.6 3.2 9.6 3C9.7 2.8 9.7 2.6 9.7 2.4L9.8 2C9.9 1.8 9.9 1.6 9.9 1.3L10 1.1C10 1 10 0.9 10 0.8V0.7C10.1 0.3 10.5 0 10.9 0C11.3 0 11.7 0.3 11.8 0.8C12.1 3.1 12.7 5.3 13.5 7.2C13.8 8 14.2 8.9 14.6 9.6C14.9 10.1 15.2 10.6 15.5 11C15.8 11.5 16.1 11.9 16.5 12.3C16.8 12.7 17.2 13.1 17.6 13.5C18.1 14 18.7 14.5 19.3 14.9C19.6 15.1 20 15.3 20.4 15.5C20.5 15.6 20.6 15.6 20.7 15.7C21 15.8 21.2 16.2 21.2 16.5C21.2 16.8 21 17.2 20.7 17.3C20.6 17.3 20.6 17.4 20.5 17.4L20.3 17.5C20.3 17.5 20.2 17.5 20.2 17.6C20.1 17.7 19.9 17.8 19.8 17.8L19.7 17.9C19.5 18 19.3 18.1 19.1 18.3L19 18.4L18.9 18.5C18.8 18.6 18.7 18.7 18.6 18.8C18.5 18.8 18.5 18.9 18.4 18.9H18.3C18.2 19 18.1 19.1 18 19.2C17.9 19.3 17.8 19.3 17.8 19.4C17.7 19.5 17.6 19.6 17.5 19.7C17.4 19.8 17.3 19.8 17.3 19.9C17.2 20 17.1 20.1 17 20.2L16.9 20.3C16.8 20.4 16.8 20.4 16.7 20.5C16.6 20.6 16.5 20.7 16.4 20.9L16.3 21L16.2 21.1C16 21.3 15.9 21.5 15.7 21.7L15.6 21.9C15.5 22.1 15.4 22.2 15.3 22.4C15.3 22.5 15.2 22.5 15.2 22.6L15 22.3C14.9 22.4 14.8 22.6 14.7 22.7C14.6 22.8 14.6 22.9 14.5 23C14.4 23.1 14.3 23.3 14.2 23.4C14.1 23.5 14.1 23.6 14 23.7C13.9 23.8 13.8 24 13.8 24.1C13.7 24.2 13.7 24.3 13.6 24.4C13.5 24.6 13.4 24.7 13.4 24.9V25C13.4 25.1 13.3 25.1 13.3 25.2C13.2 25.4 13.1 25.6 13 25.8L12.9 26C12.8 26.3 12.7 26.5 12.6 26.8L12.5 27.1C12.4 27.3 12.3 27.5 12.3 27.7L12.2 28C12.1 28.2 12.1 28.4 12 28.6C12 28.7 11.9 28.8 11.9 29C11.8 29.2 11.8 29.4 11.7 29.6C11.7 29.7 11.6 29.8 11.6 30C11.5 30.2 11.5 30.4 11.5 30.6V30.7C11.5 30.8 11.5 30.9 11.4 31C11.3 31.2 11.3 31.4 11.3 31.7L11.2 32C11.2 32.1 11.2 32.2 11.1 32.3V32.4C11 32.7 10.6 33 10.2 33ZM2.7 16.5C3.7 17.1 4.6 17.9 5.4 18.9C5.8 19.3 6.2 19.8 6.5 20.3C6.9 20.9 7.4 21.5 7.8 22.3C8.1 22.7 8.3 23.1 8.4 23.5C9.1 24.9 9.7 26.5 10.2 28.2C10.3 28 10.3 27.8 10.4 27.6V27.5C10.4 27.4 10.5 27.3 10.5 27.3C10.6 27.1 10.7 26.9 10.7 26.6V26.5C10.7 26.4 10.7 26.4 10.8 26.3C10.9 26 11 25.7 11.2 25.4C11.2 25.4 11.2 25.3 11.3 25.3V25.2C11.4 25 11.5 24.8 11.6 24.6C11.6 24.5 11.7 24.4 11.7 24.4V24.3C11.8 24.1 11.9 24 12 23.8C12.1 23.7 12.1 23.6 12.2 23.5C12.3 23.3 12.4 23.2 12.5 23C12.6 22.9 12.6 22.8 12.7 22.7C12.8 22.6 12.9 22.4 13 22.3C13.1 22.2 13.1 22.1 13.2 22C13.3 21.9 13.4 21.7 13.5 21.6L13.6 21.5C13.6 21.4 13.7 21.4 13.7 21.3C13.8 21.1 14 21 14.1 20.8L14.2 20.6C14.4 20.4 14.5 20.2 14.7 20C14.7 19.9 14.8 19.9 14.8 19.8L14.9 19.7C15 19.6 15.1 19.4 15.3 19.3C15.4 19.2 15.4 19.2 15.5 19.1L15.6 19C15.7 18.9 15.8 18.8 15.9 18.7C16 18.6 16.1 18.5 16.2 18.5C16.3 18.4 16.4 18.3 16.5 18.2C16.6 18.1 16.7 18 16.8 18C16.9 17.9 17 17.8 17.2 17.7H17.3C17.4 17.6 17.4 17.6 17.5 17.5C17.6 17.4 17.8 17.3 17.9 17.2L18 17.1C18.1 17.1 18.1 17 18.2 17C18.3 16.9 18.5 16.8 18.6 16.7C18.5 16.7 18.5 16.6 18.4 16.6C17.7 16.1 17.1 15.6 16.4 15C16 14.6 15.6 14.2 15.2 13.7C14.7 13 14.4 12.5 14 12C13.7 11.5 13.3 11 13 10.4C12.5 9.6 12.1 8.7 11.8 7.8C11.4 6.9 11.1 5.9 10.8 4.9C10.7 5.1 10.7 5.3 10.6 5.5V5.6C10.6 5.7 10.5 5.8 10.5 5.9C10.4 6.1 10.3 6.3 10.3 6.6V6.7C10.3 6.8 10.3 6.8 10.2 6.9C10.1 7.1 10 7.4 9.8 7.7C9.8 7.7 9.8 7.8 9.7 7.8V7.9C9.6 8.1 9.5 8.3 9.4 8.5C9.4 8.6 9.3 8.6 9.3 8.7V8.8C9.2 9 9.1 9.2 9 9.4C9 9.5 8.9 9.6 8.8 9.7C8.7 9.9 8.7 10 8.6 10.2C8.5 10.3 8.5 10.4 8.4 10.5C8.3 10.7 8.2 10.8 8.1 11C8 11.1 8 11.2 7.9 11.3C7.8 11.5 7.7 11.6 7.6 11.8L7.5 11.9C7.5 12 7.4 12 7.4 12.1C7.3 12.3 7.1 12.5 7 12.6L6.9 12.8C6.7 13 6.6 13.2 6.4 13.4L6.3 13.5L6.2 13.6C6 13.7 5.9 13.8 5.8 14C5.7 14.1 5.7 14.1 5.6 14.2C5.5 14.3 5.4 14.4 5.3 14.6C5.2 14.7 5.1 14.8 5.1 14.8C5 14.9 4.9 15 4.7 15.1C4.6 15.2 4.5 15.2 4.4 15.3C4.3 15.4 4.2 15.5 4 15.6H3.9C3.8 15.6 3.8 15.7 3.7 15.7C3.6 15.8 3.4 15.9 3.3 16L3.2 16.1L3.1 16.2C3 16.4 2.9 16.5 2.7 16.5Z" fill="black"/>
<path d="M36.1008 26.4998C35.5008 26.0998 34.8008 25.5998 34.3008 24.9998C33.9008 24.5998 33.5008 24.1998 33.2008 23.7998C32.8008 23.3998 32.5008 22.8998 32.2008 22.3998C31.9008 21.8998 31.6008 21.3998 31.3008 20.8998C30.9008 20.0998 30.5008 19.2998 30.1008 18.3998C29.3008 16.3998 28.7008 14.0998 28.4008 11.7998C28.4008 11.8998 28.4008 12.0998 28.3008 12.1998C28.3008 12.2998 28.3008 12.3998 28.2008 12.4998C28.2008 12.6998 28.1008 12.9998 28.1008 13.1998C28.1008 13.2998 28.0008 13.4998 28.0008 13.5998C28.0008 13.7998 27.9008 13.9998 27.8008 14.1998C27.8008 14.2998 27.7008 14.4998 27.7008 14.5998C27.6008 14.7998 27.6008 14.9998 27.5008 15.1998C27.5008 15.2998 27.4008 15.4998 27.4008 15.5998C27.3008 15.7998 27.3008 15.9998 27.2008 16.1998C27.2008 16.2998 27.1008 16.3998 27.1008 16.4998C27.0008 16.6998 26.9008 16.8998 26.9008 17.0998C26.9008 17.1998 26.8008 17.2998 26.8008 17.3998C26.7008 17.6998 26.6008 17.9998 26.4008 18.2998C26.4008 18.3998 26.3008 18.3998 26.3008 18.4998C26.2008 18.6998 26.1008 18.8998 26.0008 19.0998C26.0008 19.1998 25.9008 19.2998 25.9008 19.3998C25.8008 19.5998 25.7008 19.6998 25.6008 19.8998C25.5008 19.9998 25.5008 20.0998 25.4008 20.1998C25.3008 20.3998 25.2008 20.4998 25.1008 20.6998C25.0008 20.7998 25.0008 20.8998 24.9008 20.9998C24.8008 21.0998 24.7008 21.2998 24.6008 21.3998C24.5008 21.4998 24.5008 21.5998 24.4008 21.6998C24.3008 21.7998 24.2008 21.9998 24.1008 22.0998C24.0008 22.1998 24.0008 22.2998 23.9008 22.3998C23.8008 22.5998 23.6008 22.6998 23.5008 22.8998L23.4008 22.9998C23.2008 23.1998 23.1008 23.3998 22.9008 23.5998C22.8008 23.6998 22.8008 23.6998 22.7008 23.7998C22.6008 23.8998 22.5008 24.0998 22.3008 24.1998C22.2008 24.2998 22.2008 24.3998 22.1008 24.3998C22.0008 24.4998 21.9008 24.5998 21.8008 24.6998C21.7008 24.7998 21.6008 24.7998 21.6008 24.8998C21.5008 24.9998 21.4008 25.0998 21.3008 25.1998C21.2008 25.2998 21.1008 25.2998 21.1008 25.3998C21.0008 25.4998 20.9008 25.5998 20.8008 25.6998C20.7008 25.7998 20.6008 25.7998 20.6008 25.8998C20.5008 25.9998 20.3008 26.0998 20.2008 26.1998C20.1008 26.1998 20.1008 26.2998 20.0008 26.2998C19.8008 26.3998 19.6008 26.5998 19.4008 26.6998C19.4008 26.6998 19.3008 26.6998 19.3008 26.7998C19.1008 26.8998 19.0008 26.9998 18.8008 27.0998C18.7008 27.0998 18.7008 27.1998 18.6008 27.1998C18.5008 27.1998 18.4008 27.2998 18.3008 27.2998C19.7008 27.9998 21.1008 28.9998 22.2008 30.2998C22.6008 30.6998 22.9008 31.0998 23.3008 31.5998C23.7008 32.1998 24.1008 32.7998 24.5008 33.4998C24.7008 33.8998 24.9008 34.2998 25.1008 34.6998C26.3008 37.0998 27.2008 39.9998 27.6008 42.9998C27.6008 42.8998 27.6008 42.6998 27.7008 42.5998C27.7008 42.4998 27.7008 42.3998 27.8008 42.2998C27.8008 42.0998 27.9008 41.7998 27.9008 41.5998C27.9008 41.4998 28.0008 41.2998 28.0008 41.1998C28.0008 40.9998 28.1008 40.7998 28.2008 40.5998C28.2008 40.4998 28.3008 40.2998 28.3008 40.1998C28.4008 39.9998 28.4008 39.7998 28.5008 39.5998C28.5008 39.4998 28.6008 39.2998 28.6008 39.1998C28.7008 38.9998 28.7008 38.7998 28.8008 38.5998C28.8008 38.4998 28.9008 38.3998 28.9008 38.2998C29.0008 38.0998 29.1008 37.8998 29.1008 37.6998C29.1008 37.5998 29.2008 37.4998 29.2008 37.3998C29.3008 37.0998 29.4008 36.7998 29.6008 36.4998C29.6008 36.3998 29.7008 36.3998 29.7008 36.2998C29.8008 36.0998 29.9008 35.8998 30.0008 35.6998C30.1008 35.5998 30.1008 35.4998 30.2008 35.3998C30.3008 35.1998 30.4008 35.0998 30.5008 34.8998C30.6008 34.7998 30.6008 34.6998 30.7008 34.5998C30.8008 34.3998 30.9008 34.2998 31.0008 34.0998C31.1008 33.9998 31.1008 33.8998 31.2008 33.7998C31.3008 33.6998 31.4008 33.4998 31.5008 33.3998C31.6008 33.2998 31.6008 33.1998 31.7008 33.0998C31.8008 32.9998 31.9008 32.7998 32.0008 32.6998C32.1008 32.5998 32.1008 32.4998 32.2008 32.3998C32.3008 32.1998 32.4008 32.0998 32.6008 31.8998C32.6008 31.7998 32.7008 31.7998 32.7008 31.6998C32.9008 31.4998 33.0008 31.2998 33.2008 31.0998C33.3008 30.9998 33.3008 30.9998 33.4008 30.8998C33.5008 30.7998 33.6008 30.5998 33.7008 30.4998C33.8008 30.3998 33.9008 30.2998 33.9008 30.2998C34.0008 30.1998 34.1008 30.0998 34.2008 29.9998C34.3008 29.8998 34.4008 29.7998 34.4008 29.7998C34.5008 29.6998 34.6008 29.5998 34.7008 29.4998C34.8008 29.3998 34.9008 29.3998 35.0008 29.2998C35.1008 29.1998 35.2008 29.0998 35.3008 28.9998C35.4008 28.8998 35.5008 28.8998 35.5008 28.7998C35.6008 28.6998 35.7008 28.5998 35.9008 28.4998C36.0008 28.3998 36.0008 28.3998 36.1008 28.2998C36.3008 28.1998 36.5008 27.9998 36.7008 27.8998L36.8008 27.7998C37.0008 27.6998 37.1008 27.5998 37.3008 27.4998C37.4008 27.4998 37.5008 27.3998 37.5008 27.3998C37.6008 27.3998 37.7008 27.2998 37.8008 27.2998C37.7008 27.1998 37.6008 27.1998 37.4008 27.0998C36.9008 26.9998 36.5008 26.7998 36.1008 26.4998Z" fill="white"/>
<path d="M27.6004 43.9002C27.1004 43.9002 26.8004 43.6002 26.7004 43.1002C26.3004 40.2002 25.5004 37.4002 24.3004 35.0002C24.1004 34.7002 23.9004 34.3002 23.7004 33.9002C23.3004 33.2002 22.9004 32.6002 22.5004 32.1002C22.2004 31.7002 21.8004 31.3002 21.5004 30.9002C20.4004 29.7002 19.2004 28.8002 17.9004 28.1002C17.6004 28.0002 17.4004 27.6002 17.4004 27.3002C17.4004 27.0002 17.6004 26.6002 17.9004 26.5002C18.0004 26.5002 18.0004 26.4002 18.1004 26.4002L18.3004 26.3002C18.3004 26.3002 18.4004 26.3002 18.4004 26.2002C18.6004 26.1002 18.7004 26.0002 18.9004 25.9002H19.0004C19.2004 25.8002 19.4004 25.7002 19.6004 25.5002L19.8004 25.4002C19.9004 25.3002 20.0004 25.2002 20.2004 25.1002C20.3004 25.1002 20.3004 25.0002 20.4004 25.0002H20.5004C20.6004 24.9002 20.7004 24.8002 20.8004 24.7002C20.9004 24.6002 21.0004 24.6002 21.0004 24.5002C21.1004 24.4002 21.2004 24.3002 21.3004 24.2002C21.4004 24.1002 21.4004 24.1002 21.5004 24.0002C21.6004 23.9002 21.7004 23.8002 21.8004 23.7002L21.9004 23.6002C22.0004 23.5002 22.0004 23.5002 22.1004 23.4002C22.2004 23.3002 22.3004 23.2002 22.4004 23.0002L22.6004 22.8002C22.8004 22.6002 22.9004 22.4002 23.1004 22.2002L23.2004 22.1002C23.3004 21.9002 23.4004 21.8002 23.6004 21.6002L23.8004 21.3002C23.9004 21.2002 24.0004 21.0002 24.1004 20.9002C24.2004 20.8002 24.2004 20.7002 24.3004 20.6002C24.4004 20.5002 24.5004 20.3002 24.6004 20.2002C24.7004 20.1002 24.7004 20.0002 24.8004 19.9002C24.9004 19.8002 25.0004 19.6002 25.0004 19.5002C25.1004 19.4002 25.1004 19.3002 25.2004 19.2002C25.3004 19.0002 25.4004 18.9002 25.4004 18.7002L25.5004 18.4002C25.6004 18.2002 25.7004 18.0002 25.8004 17.8002L25.9004 17.6002C26.0004 17.3002 26.1004 17.1002 26.2004 16.8002L26.3004 16.6002C26.4004 16.4002 26.5004 16.2002 26.5004 16.0002C26.5004 15.9002 26.6004 15.8002 26.6004 15.8002V15.7002C26.7004 15.5002 26.7004 15.3002 26.8004 15.1002C26.8004 15.0002 26.9004 14.9002 26.9004 14.8002C27.0004 14.6002 27.0004 14.4002 27.1004 14.2002C27.1004 14.1002 27.2004 14.0002 27.2004 13.8002C27.3004 13.6002 27.3004 13.4002 27.3004 13.2002V13.1002C27.3004 13.0002 27.3004 12.9002 27.4004 12.8002C27.5004 12.6002 27.5004 12.4002 27.5004 12.1002L27.6004 11.8002C27.6004 11.7002 27.6004 11.6002 27.6004 11.5002V11.4002C27.7004 11.0002 28.0004 10.7002 28.5004 10.7002C28.9004 10.7002 29.3004 11.0002 29.4004 11.5002C29.7004 13.8002 30.3004 16.0002 31.1004 17.9002C31.4004 18.7002 31.8004 19.6002 32.2004 20.3002C32.5004 20.8002 32.8004 21.3002 33.1004 21.7002C33.4004 22.2002 33.7004 22.6002 34.1004 23.0002C34.4004 23.4002 34.8004 23.8002 35.2004 24.2002C35.7004 24.7002 36.3004 25.2002 36.9004 25.6002C37.2004 25.8002 37.6004 26.0002 38.0004 26.2002C38.1004 26.3002 38.2004 26.3002 38.3004 26.4002C38.6004 26.5002 38.8004 26.9002 38.8004 27.2002C38.8004 27.5002 38.6004 27.9002 38.3004 28.0002C38.2004 28.0002 38.2004 28.1002 38.1004 28.1002L37.9004 28.2002C37.9004 28.2002 37.8004 28.2002 37.8004 28.3002C37.7004 28.4002 37.5004 28.5002 37.4004 28.5002L37.0004 28.8002C36.8004 28.9002 36.6004 29.0002 36.4004 29.2002L36.3004 29.3002L36.2004 29.4002C36.1004 29.5002 36.0004 29.6002 35.9004 29.7002C35.8004 29.7002 35.8004 29.8002 35.7004 29.9002C35.6004 30.0002 35.5004 30.1002 35.4004 30.2002C35.3004 30.3002 35.2004 30.3002 35.2004 30.4002C35.1004 30.5002 35.0004 30.6002 34.9004 30.7002C34.8004 30.8002 34.7004 30.8002 34.7004 30.9002C34.6004 31.0002 34.5004 31.1002 34.4004 31.2002L34.2004 31.0002C34.1004 31.1002 34.1004 31.1002 34.0004 31.2002C33.9004 31.3002 33.8004 31.4002 33.7004 31.6002L33.6004 31.7002L33.5004 31.8002C33.3004 32.0002 33.2004 32.2002 33.0004 32.4002L32.9004 32.6002C32.8004 32.8002 32.7004 32.9002 32.6004 33.1002C32.6004 33.2002 32.5004 33.2002 32.5004 33.3002L32.4004 33.4002C32.3004 33.5002 32.2004 33.7002 32.1004 33.8002C32.0004 33.9002 32.0004 34.0002 31.9004 34.0002V34.1002C31.8004 34.2002 31.7004 34.4002 31.6004 34.5002C31.5004 34.6002 31.5004 34.7002 31.4004 34.8002C31.3004 34.9002 31.2004 35.1002 31.2004 35.2002V35.3002C31.2004 35.4002 31.1004 35.5002 31.1004 35.5002C31.0004 35.7002 30.9004 35.8002 30.9004 36.0002V36.1002C30.9004 36.2002 30.8004 36.3002 30.8004 36.3002C30.7004 36.5002 30.6004 36.7002 30.5004 36.9002L30.3004 37.0002C30.2004 37.3002 30.1004 37.5002 30.0004 37.8002L29.9004 38.1002C29.8004 38.3002 29.7004 38.5002 29.7004 38.7002C29.7004 38.8002 29.6004 38.9002 29.6004 38.9002V39.0002C29.5004 39.2002 29.5004 39.4002 29.4004 39.6002C29.4004 39.7002 29.3004 39.8002 29.3004 40.0002C29.2004 40.2002 29.2004 40.4002 29.1004 40.6002C29.1004 40.7002 29.0004 40.9002 29.0004 41.0002C28.9004 41.2002 28.9004 41.4002 28.9004 41.6002V41.7002C28.9004 41.8002 28.9004 41.9002 28.8004 42.0002C28.7004 42.2002 28.7004 42.4002 28.7004 42.7002L28.6004 43.0002C28.6004 43.1002 28.6004 43.2002 28.6004 43.3002V43.4002C28.4004 43.6002 28.0004 43.9002 27.6004 43.9002ZM20.1004 27.4002C21.1004 28.0002 22.0004 28.8002 22.8004 29.8002C23.2004 30.2002 23.6004 30.7002 23.9004 31.2002C24.3004 31.8002 24.8004 32.4002 25.2004 33.2002C25.5004 33.6002 25.7004 34.0002 25.8004 34.4002C26.5004 35.8002 27.1004 37.4002 27.6004 39.1002C27.7004 38.9002 27.7004 38.7002 27.8004 38.5002V38.4002C27.8004 38.3002 27.9004 38.2002 27.9004 38.1002C28.0004 37.9002 28.1004 37.7002 28.1004 37.4002L28.2004 37.1002C28.3004 36.8002 28.4004 36.5002 28.6004 36.2002L28.7004 36.0002C28.8004 35.8002 28.9004 35.6002 29.0004 35.4002C29.0004 35.3002 29.1004 35.2002 29.1004 35.1002V35.0002C29.2004 34.8002 29.3004 34.7002 29.4004 34.5002C29.4004 34.4002 29.5004 34.3002 29.5004 34.2002V34.1002C29.6004 33.9002 29.7004 33.8002 29.8004 33.6002C29.9004 33.5002 29.9004 33.4002 30.0004 33.3002C30.1004 33.1002 30.2004 33.0002 30.3004 32.9002V32.8002C30.4004 32.7002 30.4004 32.6002 30.5004 32.5002C30.6004 32.3002 30.7004 32.2002 30.8004 32.1002L30.9004 32.0002C30.9004 31.9002 31.0004 31.9002 31.0004 31.8002C31.1004 31.6002 31.3004 31.5002 31.4004 31.3002L31.5004 31.1002C31.7004 30.9002 31.8004 30.7002 32.0004 30.5002C32.0004 30.4002 32.1004 30.4002 32.1004 30.3002L32.2004 30.2002C32.3004 30.1002 32.4004 29.9002 32.6004 29.8002C32.7004 29.7002 32.7004 29.7002 32.8004 29.6002L32.9004 29.5002C33.0004 29.4002 33.1004 29.3002 33.2004 29.2002C33.3004 29.1002 33.4004 29.0002 33.5004 29.0002C33.6004 28.9002 33.7004 28.8002 33.8004 28.7002C33.9004 28.6002 34.0004 28.5002 34.1004 28.5002C34.2004 28.4002 34.3004 28.3002 34.4004 28.2002C34.5004 28.1002 34.5004 28.1002 34.6004 28.0002C34.7004 27.9002 34.9004 27.8002 35.0004 27.7002H35.1004C35.2004 27.7002 35.2004 27.6002 35.3004 27.6002C35.4004 27.5002 35.6004 27.4002 35.7004 27.3002C35.6004 27.3002 35.6004 27.2002 35.5004 27.2002C34.8004 26.7002 34.2004 26.2002 33.5004 25.6002C33.1004 25.2002 32.7004 24.8002 32.3004 24.3002C31.9004 23.8002 31.6004 23.4002 31.2004 22.9002C30.9004 22.4002 30.5004 21.9002 30.2004 21.3002C29.8004 20.5002 29.3004 19.6002 29.0004 18.7002C28.6004 17.8002 28.3004 16.8002 28.0004 15.8002C27.9004 16.0002 27.9004 16.2002 27.8004 16.4002V16.5002C27.8004 16.6002 27.7004 16.7002 27.7004 16.8002C27.6004 17.0002 27.5004 17.2002 27.5004 17.5002V17.6002C27.5004 17.7002 27.5004 17.7002 27.4004 17.8002C27.3004 18.1002 27.2004 18.4002 27.0004 18.7002L26.9004 18.9002C26.8004 19.1002 26.7004 19.3002 26.6004 19.6002L26.4004 19.9002C26.3004 20.1002 26.2004 20.3002 26.1004 20.4002C26.0004 20.5002 26.0004 20.6002 25.9004 20.7002C25.8004 20.9002 25.7004 21.0002 25.6004 21.2002C25.5004 21.3002 25.5004 21.4002 25.4004 21.5002C25.3004 21.7002 25.2004 21.8002 25.1004 22.0002C25.0004 22.1002 25.0004 22.2002 24.9004 22.3002C24.8004 22.5002 24.7004 22.6002 24.6004 22.8002L24.5004 22.9002C24.5004 23.0002 24.4004 23.0002 24.4004 23.1002C24.3004 23.3002 24.1004 23.5002 24.0004 23.6002L23.9004 23.8002C23.7004 24.0002 23.6004 24.2002 23.4004 24.4002C23.4004 24.5002 23.3004 24.5002 23.3004 24.5002L23.2004 24.6002C23.1004 24.7002 23.0004 24.9002 22.8004 25.0002C23.1004 24.9002 23.1004 25.0002 23.0004 25.0002V25.1002C22.9004 25.2002 22.8004 25.3002 22.7004 25.5002C22.6004 25.6002 22.5004 25.7002 22.5004 25.7002C22.4004 25.8002 22.3004 25.9002 22.2004 26.0002C22.1004 26.1002 22.0004 26.1002 21.9004 26.2002C21.8004 26.3002 21.7004 26.4002 21.5004 26.5002H21.4004C21.3004 26.6002 21.3004 26.6002 21.2004 26.7002C21.1004 26.8002 20.9004 26.9002 20.8004 27.0002L20.7004 27.1002L20.6004 27.2002C20.4004 27.3002 20.3004 27.3002 20.1004 27.4002Z" fill="black"/>
<path d="M10.2 33C9.7 33 9.4 32.7 9.3 32.2C8.9 29.3 8.1 26.5 6.9 24.1C6.7 23.8 6.5 23.4 6.3 23C5.9 22.3 5.5 21.7 5.1 21.2C4.8 20.8 4.4 20.4 4.1 20C3 18.9 1.8 18 0.5 17.3C0.2 17.2 0 16.9 0 16.5C0 16.2 0.2 15.8 0.5 15.7C0.6 15.7 0.6 15.6 0.7 15.6L0.9 15.5C0.9 15.5 1 15.5 1 15.4C1.2 15.3 1.3 15.2 1.5 15.1H1.6C1.8 15 2 14.9 2.2 14.7L2.4 14.6C2.5 14.5 2.6 14.4 2.8 14.3C2.9 14.3 2.9 14.2 3 14.2H3.1C3 14.1 3.1 14.1 3.2 14C3.3 13.9 3.4 13.9 3.4 13.8C3.5 13.7 3.6 13.6 3.7 13.5C3.8 13.4 3.8 13.4 3.9 13.3C4 13.2 4.1 13.1 4.2 13C4.3 12.9 4.3 12.9 4.4 12.8C4.5 12.7 4.6 12.6 4.7 12.4L4.8 12.3L4.9 12.2C5.1 12 5.2 11.8 5.4 11.6L5.5 11.5C5.7 11.3 5.8 11.1 6 11C6 10.9 6.1 10.9 6.1 10.8L6.2 10.7C6.3 10.6 6.4 10.4 6.5 10.3C6.6 10.2 6.6 10.1 6.7 10.1C6.8 10 6.9 9.8 7 9.7C6.9 9.5 7 9.4 7 9.3C7.1 9.1 7.2 9 7.3 8.8C7.4 8.7 7.4 8.6 7.5 8.5C7.5 8.4 7.6 8.2 7.7 8L7.8 7.9C7.8 7.8 7.9 7.8 7.9 7.7C7.9 7.6 8 7.3 8.1 7.1L8.2 7C8.3 6.7 8.4 6.4 8.5 6.2L8.6 6C8.7 5.8 8.8 5.6 8.8 5.4C8.8 5.3 8.9 5.2 8.9 5.2V5.1C9 4.7 9.1 4.6 9.2 4.4C9.2 4.3 9.3 4.2 9.3 4C9.4 3.8 9.4 3.6 9.5 3.4C9.5 3.3 9.6 3.2 9.6 3C9.7 2.8 9.7 2.6 9.7 2.4L9.8 2C9.9 1.8 9.9 1.6 9.9 1.3L10 1.1C10 1 10 0.9 10 0.8V0.7C10.1 0.3 10.5 0 10.9 0C11.3 0 11.7 0.3 11.8 0.8C12.1 3.1 12.7 5.3 13.5 7.2C13.8 8 14.2 8.9 14.6 9.6C14.9 10.1 15.2 10.6 15.5 11C15.8 11.5 16.1 11.9 16.5 12.3C16.8 12.7 17.2 13.1 17.6 13.5C18.1 14 18.7 14.5 19.3 14.9C19.6 15.1 20 15.3 20.4 15.5C20.5 15.6 20.6 15.6 20.7 15.7C21 15.8 21.2 16.2 21.2 16.5C21.2 16.8 21 17.2 20.7 17.3C20.6 17.3 20.6 17.4 20.5 17.4L20.3 17.5C20.3 17.5 20.2 17.5 20.2 17.6C20.1 17.7 19.9 17.8 19.8 17.8L19.7 17.9C19.5 18 19.3 18.1 19.1 18.3L19 18.4L18.9 18.5C18.8 18.6 18.7 18.7 18.6 18.8C18.5 18.8 18.5 18.9 18.4 18.9H18.3C18.2 19 18.1 19.1 18 19.2C17.9 19.3 17.8 19.3 17.8 19.4C17.7 19.5 17.6 19.6 17.5 19.7C17.4 19.8 17.3 19.8 17.3 19.9C17.2 20 17.1 20.1 17 20.2L16.9 20.3C16.8 20.4 16.8 20.4 16.7 20.5C16.6 20.6 16.5 20.7 16.4 20.9L16.3 21L16.2 21.1C16 21.3 15.9 21.5 15.7 21.7L15.6 21.9C15.5 22.1 15.4 22.2 15.3 22.4C15.3 22.5 15.2 22.5 15.2 22.6L15 22.3C14.9 22.4 14.8 22.6 14.7 22.7C14.6 22.8 14.6 22.9 14.5 23C14.4 23.1 14.3 23.3 14.2 23.4C14.1 23.5 14.1 23.6 14 23.7C13.9 23.8 13.8 24 13.8 24.1C13.7 24.2 13.7 24.3 13.6 24.4C13.5 24.6 13.4 24.7 13.4 24.9V25C13.4 25.1 13.3 25.1 13.3 25.2C13.2 25.4 13.1 25.6 13 25.8L12.9 26C12.8 26.3 12.7 26.5 12.6 26.8L12.5 27.1C12.4 27.3 12.3 27.5 12.3 27.7L12.2 28C12.1 28.2 12.1 28.4 12 28.6C12 28.7 11.9 28.8 11.9 29C11.8 29.2 11.8 29.4 11.7 29.6C11.7 29.7 11.6 29.8 11.6 30C11.5 30.2 11.5 30.4 11.5 30.6V30.7C11.5 30.8 11.5 30.9 11.4 31C11.3 31.2 11.3 31.4 11.3 31.7L11.2 32C11.2 32.1 11.2 32.2 11.1 32.3V32.4C11 32.7 10.6 33 10.2 33ZM2.7 16.5C3.7 17.1 4.6 17.9 5.4 18.9C5.8 19.3 6.2 19.8 6.5 20.3C6.9 20.9 7.4 21.5 7.8 22.3C8.1 22.7 8.3 23.1 8.4 23.5C9.1 24.9 9.7 26.5 10.2 28.2C10.3 28 10.3 27.8 10.4 27.6V27.5C10.4 27.4 10.5 27.3 10.5 27.3C10.6 27.1 10.7 26.9 10.7 26.6V26.5C10.7 26.4 10.7 26.4 10.8 26.3C10.9 26 11 25.7 11.2 25.4C11.2 25.4 11.2 25.3 11.3 25.3V25.2C11.4 25 11.5 24.8 11.6 24.6C11.6 24.5 11.7 24.4 11.7 24.4V24.3C11.8 24.1 11.9 24 12 23.8C12.1 23.7 12.1 23.6 12.2 23.5C12.3 23.3 12.4 23.2 12.5 23C12.6 22.9 12.6 22.8 12.7 22.7C12.8 22.6 12.9 22.4 13 22.3C13.1 22.2 13.1 22.1 13.2 22C13.3 21.9 13.4 21.7 13.5 21.6L13.6 21.5C13.6 21.4 13.7 21.4 13.7 21.3C13.8 21.1 14 21 14.1 20.8L14.2 20.6C14.4 20.4 14.5 20.2 14.7 20C14.7 19.9 14.8 19.9 14.8 19.8L14.9 19.7C15 19.6 15.1 19.4 15.3 19.3C15.4 19.2 15.4 19.2 15.5 19.1L15.6 19C15.7 18.9 15.8 18.8 15.9 18.7C16 18.6 16.1 18.5 16.2 18.5C16.3 18.4 16.4 18.3 16.5 18.2C16.6 18.1 16.7 18 16.8 18C16.9 17.9 17 17.8 17.2 17.7H17.3C17.4 17.6 17.4 17.6 17.5 17.5C17.6 17.4 17.8 17.3 17.9 17.2L18 17.1C18.1 17.1 18.1 17 18.2 17C18.3 16.9 18.5 16.8 18.6 16.7C18.5 16.7 18.5 16.6 18.4 16.6C17.7 16.1 17.1 15.6 16.4 15C16 14.6 15.6 14.2 15.2 13.7C14.7 13 14.4 12.5 14 12C13.7 11.5 13.3 11 13 10.4C12.5 9.6 12.1 8.7 11.8 7.8C11.4 6.9 11.1 5.9 10.8 4.9C10.7 5.1 10.7 5.3 10.6 5.5V5.6C10.6 5.7 10.5 5.8 10.5 5.9C10.4 6.1 10.3 6.3 10.3 6.6V6.7C10.3 6.8 10.3 6.8 10.2 6.9C10.1 7.1 10 7.4 9.8 7.7C9.8 7.7 9.8 7.8 9.7 7.8V7.9C9.6 8.1 9.5 8.3 9.4 8.5C9.4 8.6 9.3 8.6 9.3 8.7V8.8C9.2 9 9.1 9.2 9 9.4C9 9.5 8.9 9.6 8.8 9.7C8.7 9.9 8.7 10 8.6 10.2C8.5 10.3 8.5 10.4 8.4 10.5C8.3 10.7 8.2 10.8 8.1 11C8 11.1 8 11.2 7.9 11.3C7.8 11.5 7.7 11.6 7.6 11.8L7.5 11.9C7.5 12 7.4 12 7.4 12.1C7.3 12.3 7.1 12.5 7 12.6L6.9 12.8C6.7 13 6.6 13.2 6.4 13.4L6.3 13.5L6.2 13.6C6 13.7 5.9 13.8 5.8 14C5.7 14.1 5.7 14.1 5.6 14.2C5.5 14.3 5.4 14.4 5.3 14.6C5.2 14.7 5.1 14.8 5.1 14.8C5 14.9 4.9 15 4.7 15.1C4.6 15.2 4.5 15.2 4.4 15.3C4.3 15.4 4.2 15.5 4 15.6H3.9C3.8 15.6 3.8 15.7 3.7 15.7C3.6 15.8 3.4 15.9 3.3 16L3.2 16.1L3.1 16.2C3 16.4 2.9 16.5 2.7 16.5Z" fill="black"/>
<path d="M27.6004 43.9002C27.1004 43.9002 26.8004 43.6002 26.7004 43.1002C26.3004 40.2002 25.5004 37.4002 24.3004 35.0002C24.1004 34.7002 23.9004 34.3002 23.7004 33.9002C23.3004 33.2002 22.9004 32.6002 22.5004 32.1002C22.2004 31.7002 21.8004 31.3002 21.5004 30.9002C20.4004 29.7002 19.2004 28.8002 17.9004 28.1002C17.6004 28.0002 17.4004 27.6002 17.4004 27.3002C17.4004 27.0002 17.6004 26.6002 17.9004 26.5002C18.0004 26.5002 18.0004 26.4002 18.1004 26.4002L18.3004 26.3002C18.3004 26.3002 18.4004 26.3002 18.4004 26.2002C18.6004 26.1002 18.7004 26.0002 18.9004 25.9002H19.0004C19.2004 25.8002 19.4004 25.7002 19.6004 25.5002L19.8004 25.4002C19.9004 25.3002 20.0004 25.2002 20.2004 25.1002C20.3004 25.1002 20.3004 25.0002 20.4004 25.0002H20.5004C20.6004 24.9002 20.7004 24.8002 20.8004 24.7002C20.9004 24.6002 21.0004 24.6002 21.0004 24.5002C21.1004 24.4002 21.2004 24.3002 21.3004 24.2002C21.4004 24.1002 21.4004 24.1002 21.5004 24.0002C21.6004 23.9002 21.7004 23.8002 21.8004 23.7002L21.9004 23.6002C22.0004 23.5002 22.0004 23.5002 22.1004 23.4002C22.2004 23.3002 22.3004 23.2002 22.4004 23.0002L22.6004 22.8002C22.8004 22.6002 22.9004 22.4002 23.1004 22.2002L23.2004 22.1002C23.3004 21.9002 23.4004 21.8002 23.6004 21.6002L23.8004 21.3002C23.9004 21.2002 24.0004 21.0002 24.1004 20.9002C24.2004 20.8002 24.2004 20.7002 24.3004 20.6002C24.4004 20.5002 24.5004 20.3002 24.6004 20.2002C24.7004 20.1002 24.7004 20.0002 24.8004 19.9002C24.9004 19.8002 25.0004 19.6002 25.0004 19.5002C25.1004 19.4002 25.1004 19.3002 25.2004 19.2002C25.3004 19.0002 25.4004 18.9002 25.4004 18.7002L25.5004 18.4002C25.6004 18.2002 25.7004 18.0002 25.8004 17.8002L25.9004 17.6002C26.0004 17.3002 26.1004 17.1002 26.2004 16.8002L26.3004 16.6002C26.4004 16.4002 26.5004 16.2002 26.5004 16.0002C26.5004 15.9002 26.6004 15.8002 26.6004 15.8002V15.7002C26.7004 15.5002 26.7004 15.3002 26.8004 15.1002C26.8004 15.0002 26.9004 14.9002 26.9004 14.8002C27.0004 14.6002 27.0004 14.4002 27.1004 14.2002C27.1004 14.1002 27.2004 14.0002 27.2004 13.8002C27.3004 13.6002 27.3004 13.4002 27.3004 13.2002V13.1002C27.3004 13.0002 27.3004 12.9002 27.4004 12.8002C27.5004 12.6002 27.5004 12.4002 27.5004 12.1002L27.6004 11.8002C27.6004 11.7002 27.6004 11.6002 27.6004 11.5002V11.4002C27.7004 11.0002 28.0004 10.7002 28.5004 10.7002C28.9004 10.7002 29.3004 11.0002 29.4004 11.5002C29.7004 13.8002 30.3004 16.0002 31.1004 17.9002C31.4004 18.7002 31.8004 19.6002 32.2004 20.3002C32.5004 20.8002 32.8004 21.3002 33.1004 21.7002C33.4004 22.2002 33.7004 22.6002 34.1004 23.0002C34.4004 23.4002 34.8004 23.8002 35.2004 24.2002C35.7004 24.7002 36.3004 25.2002 36.9004 25.6002C37.2004 25.8002 37.6004 26.0002 38.0004 26.2002C38.1004 26.3002 38.2004 26.3002 38.3004 26.4002C38.6004 26.5002 38.8004 26.9002 38.8004 27.2002C38.8004 27.5002 38.6004 27.9002 38.3004 28.0002C38.2004 28.0002 38.2004 28.1002 38.1004 28.1002L37.9004 28.2002C37.9004 28.2002 37.8004 28.2002 37.8004 28.3002C37.7004 28.4002 37.5004 28.5002 37.4004 28.5002L37.0004 28.8002C36.8004 28.9002 36.6004 29.0002 36.4004 29.2002L36.3004 29.3002L36.2004 29.4002C36.1004 29.5002 36.0004 29.6002 35.9004 29.7002C35.8004 29.7002 35.8004 29.8002 35.7004 29.9002C35.6004 30.0002 35.5004 30.1002 35.4004 30.2002C35.3004 30.3002 35.2004 30.3002 35.2004 30.4002C35.1004 30.5002 35.0004 30.6002 34.9004 30.7002C34.8004 30.8002 34.7004 30.8002 34.7004 30.9002C34.6004 31.0002 34.5004 31.1002 34.4004 31.2002L34.2004 31.0002C34.1004 31.1002 34.1004 31.1002 34.0004 31.2002C33.9004 31.3002 33.8004 31.4002 33.7004 31.6002L33.6004 31.7002L33.5004 31.8002C33.3004 32.0002 33.2004 32.2002 33.0004 32.4002L32.9004 32.6002C32.8004 32.8002 32.7004 32.9002 32.6004 33.1002C32.6004 33.2002 32.5004 33.2002 32.5004 33.3002L32.4004 33.4002C32.3004 33.5002 32.2004 33.7002 32.1004 33.8002C32.0004 33.9002 32.0004 34.0002 31.9004 34.0002V34.1002C31.8004 34.2002 31.7004 34.4002 31.6004 34.5002C31.5004 34.6002 31.5004 34.7002 31.4004 34.8002C31.3004 34.9002 31.2004 35.1002 31.2004 35.2002V35.3002C31.2004 35.4002 31.1004 35.5002 31.1004 35.5002C31.0004 35.7002 30.9004 35.8002 30.9004 36.0002V36.1002C30.9004 36.2002 30.8004 36.3002 30.8004 36.3002C30.7004 36.5002 30.6004 36.7002 30.5004 36.9002L30.3004 37.0002C30.2004 37.3002 30.1004 37.5002 30.0004 37.8002L29.9004 38.1002C29.8004 38.3002 29.7004 38.5002 29.7004 38.7002C29.7004 38.8002 29.6004 38.9002 29.6004 38.9002V39.0002C29.5004 39.2002 29.5004 39.4002 29.4004 39.6002C29.4004 39.7002 29.3004 39.8002 29.3004 40.0002C29.2004 40.2002 29.2004 40.4002 29.1004 40.6002C29.1004 40.7002 29.0004 40.9002 29.0004 41.0002C28.9004 41.2002 28.9004 41.4002 28.9004 41.6002V41.7002C28.9004 41.8002 28.9004 41.9002 28.8004 42.0002C28.7004 42.2002 28.7004 42.4002 28.7004 42.7002L28.6004 43.0002C28.6004 43.1002 28.6004 43.2002 28.6004 43.3002V43.4002C28.4004 43.6002 28.0004 43.9002 27.6004 43.9002ZM20.1004 27.4002C21.1004 28.0002 22.0004 28.8002 22.8004 29.8002C23.2004 30.2002 23.6004 30.7002 23.9004 31.2002C24.3004 31.8002 24.8004 32.4002 25.2004 33.2002C25.5004 33.6002 25.7004 34.0002 25.8004 34.4002C26.5004 35.8002 27.1004 37.4002 27.6004 39.1002C27.7004 38.9002 27.7004 38.7002 27.8004 38.5002V38.4002C27.8004 38.3002 27.9004 38.2002 27.9004 38.1002C28.0004 37.9002 28.1004 37.7002 28.1004 37.4002L28.2004 37.1002C28.3004 36.8002 28.4004 36.5002 28.6004 36.2002L28.7004 36.0002C28.8004 35.8002 28.9004 35.6002 29.0004 35.4002C29.0004 35.3002 29.1004 35.2002 29.1004 35.1002V35.0002C29.2004 34.8002 29.3004 34.7002 29.4004 34.5002C29.4004 34.4002 29.5004 34.3002 29.5004 34.2002V34.1002C29.6004 33.9002 29.7004 33.8002 29.8004 33.6002C29.9004 33.5002 29.9004 33.4002 30.0004 33.3002C30.1004 33.1002 30.2004 33.0002 30.3004 32.9002V32.8002C30.4004 32.7002 30.4004 32.6002 30.5004 32.5002C30.6004 32.3002 30.7004 32.2002 30.8004 32.1002L30.9004 32.0002C30.9004 31.9002 31.0004 31.9002 31.0004 31.8002C31.1004 31.6002 31.3004 31.5002 31.4004 31.3002L31.5004 31.1002C31.7004 30.9002 31.8004 30.7002 32.0004 30.5002C32.0004 30.4002 32.1004 30.4002 32.1004 30.3002L32.2004 30.2002C32.3004 30.1002 32.4004 29.9002 32.6004 29.8002C32.7004 29.7002 32.7004 29.7002 32.8004 29.6002L32.9004 29.5002C33.0004 29.4002 33.1004 29.3002 33.2004 29.2002C33.3004 29.1002 33.4004 29.0002 33.5004 29.0002C33.6004 28.9002 33.7004 28.8002 33.8004 28.7002C33.9004 28.6002 34.0004 28.5002 34.1004 28.5002C34.2004 28.4002 34.3004 28.3002 34.4004 28.2002C34.5004 28.1002 34.5004 28.1002 34.6004 28.0002C34.7004 27.9002 34.9004 27.8002 35.0004 27.7002H35.1004C35.2004 27.7002 35.2004 27.6002 35.3004 27.6002C35.4004 27.5002 35.6004 27.4002 35.7004 27.3002C35.6004 27.3002 35.6004 27.2002 35.5004 27.2002C34.8004 26.7002 34.2004 26.2002 33.5004 25.6002C33.1004 25.2002 32.7004 24.8002 32.3004 24.3002C31.9004 23.8002 31.6004 23.4002 31.2004 22.9002C30.9004 22.4002 30.5004 21.9002 30.2004 21.3002C29.8004 20.5002 29.3004 19.6002 29.0004 18.7002C28.6004 17.8002 28.3004 16.8002 28.0004 15.8002C27.9004 16.0002 27.9004 16.2002 27.8004 16.4002V16.5002C27.8004 16.6002 27.7004 16.7002 27.7004 16.8002C27.6004 17.0002 27.5004 17.2002 27.5004 17.5002V17.6002C27.5004 17.7002 27.5004 17.7002 27.4004 17.8002C27.3004 18.1002 27.2004 18.4002 27.0004 18.7002L26.9004 18.9002C26.8004 19.1002 26.7004 19.3002 26.6004 19.6002L26.4004 19.9002C26.3004 20.1002 26.2004 20.3002 26.1004 20.4002C26.0004 20.5002 26.0004 20.6002 25.9004 20.7002C25.8004 20.9002 25.7004 21.0002 25.6004 21.2002C25.5004 21.3002 25.5004 21.4002 25.4004 21.5002C25.3004 21.7002 25.2004 21.8002 25.1004 22.0002C25.0004 22.1002 25.0004 22.2002 24.9004 22.3002C24.8004 22.5002 24.7004 22.6002 24.6004 22.8002L24.5004 22.9002C24.5004 23.0002 24.4004 23.0002 24.4004 23.1002C24.3004 23.3002 24.1004 23.5002 24.0004 23.6002L23.9004 23.8002C23.7004 24.0002 23.6004 24.2002 23.4004 24.4002C23.4004 24.5002 23.3004 24.5002 23.3004 24.5002L23.2004 24.6002C23.1004 24.7002 23.0004 24.9002 22.8004 25.0002C23.1004 24.9002 23.1004 25.0002 23.0004 25.0002V25.1002C22.9004 25.2002 22.8004 25.3002 22.7004 25.5002C22.6004 25.6002 22.5004 25.7002 22.5004 25.7002C22.4004 25.8002 22.3004 25.9002 22.2004 26.0002C22.1004 26.1002 22.0004 26.1002 21.9004 26.2002C21.8004 26.3002 21.7004 26.4002 21.5004 26.5002H21.4004C21.3004 26.6002 21.3004 26.6002 21.2004 26.7002C21.1004 26.8002 20.9004 26.9002 20.8004 27.0002L20.7004 27.1002L20.6004 27.2002C20.4004 27.3002 20.3004 27.3002 20.1004 27.4002Z" fill="black"/>
</svg>
