<svg width="current" height="current" viewBox="0 0 33 47" fill="none" xmlns="http://www.w3.org/2000/svg">
<path d="M27.1133 19.6252C27.0133 18.4252 25.5133 12.8252 25.5133 12.8252C24.5133 13.3252 11.8133 8.8252 7.31328 7.1252L7.01328 6.3252L6.01328 6.6252C5.81328 6.6252 5.61328 6.5252 5.61328 6.5252C5.61328 6.5252 5.61328 6.6252 5.61328 6.8252L3.21328 7.5252L1.11328 12.4252L2.11328 19.1252L5.61328 22.5252C5.71328 24.4252 5.91328 26.3252 6.11328 28.2252C6.11328 28.4252 13.1133 38.8252 13.1133 38.8252L21.6133 39.8252L27.5133 33.6252C27.6133 33.4252 27.2133 20.8252 27.1133 19.6252Z" fill="white"/>
<path d="M27.6116 34.7246C27.6116 34.7246 29.7116 36.1246 27.2116 40.2246C27.2116 40.2246 23.4116 47.3246 14.4116 45.4246C14.4116 45.4246 6.7116 43.5246 10.0116 40.7246" fill="white"/>
<path d="M8.3125 42.125C8.3125 41.525 8.5125 40.825 9.4125 40.025C9.8125 39.725 10.3125 39.725 10.6125 40.125C10.9125 40.525 10.9125 41.025 10.5125 41.325C10.2125 41.525 9.9125 41.925 10.0125 42.125C10.2125 42.925 12.5125 44.025 14.5125 44.525C22.7125 46.225 26.2125 40.025 26.3125 39.825C28.3125 36.625 27.0125 35.525 27.0125 35.525L27.5125 34.825L28.0125 34.125C28.1125 34.225 30.8125 36.025 27.8125 40.825C27.5125 41.425 23.2125 48.325 14.1125 46.425C13.2125 46.225 8.8125 45.025 8.3125 42.725C8.3125 42.425 8.3125 42.225 8.3125 42.125Z" fill="black"/>
<path d="M21.214 15.3244C18.414 3.9244 26.814 2.0244 26.814 2.0244C34.114 0.624403 31.114 9.5244 31.114 9.5244C31.114 9.5244 28.214 16.5244 30.514 23.6244C30.514 23.6244 33.014 32.9244 26.214 37.0244" fill="white"/>
<path d="M19.8136 10.0246C19.9136 8.22465 20.4136 6.52465 21.3136 5.12465C23.3136 1.92465 26.5136 1.12465 26.6136 1.02465C28.8136 0.624647 30.5136 1.02465 31.5136 2.12465C32.4136 3.22465 32.8136 4.82465 32.5136 6.92465C32.4136 8.52465 32.0136 9.72465 32.0136 9.82465V9.92465C32.0136 10.0246 29.3136 16.8246 31.4136 23.4246C31.4136 23.5246 34.0136 33.4246 26.7136 37.8246C26.3136 38.0246 25.8136 37.9246 25.5136 37.5246C25.3136 37.1246 25.4136 36.6246 25.8136 36.3246C28.4136 34.8246 29.8136 32.2246 30.1136 28.8246C30.3136 26.2246 29.8136 24.1246 29.7136 23.9246C27.5136 16.8246 30.1136 9.82465 30.4136 9.22465C30.8136 8.02465 31.5136 4.82465 30.3136 3.42465C29.7136 2.72465 28.6136 2.52465 27.1136 2.82465C26.9136 2.92465 24.4136 3.62465 22.9136 6.12465C21.5136 8.32465 21.3136 11.4246 22.2136 15.1246C22.3136 15.6246 22.0136 16.0246 21.6136 16.2246C21.1136 16.3246 20.7136 16.0246 20.5136 15.6246C19.9136 13.5246 19.7136 11.7246 19.8136 10.0246Z" fill="black"/>
<path d="M22.8129 21.3249C22.8129 21.0249 23.0129 20.6249 23.3129 20.5249C23.7129 20.3249 24.3129 20.5249 24.4129 21.0249C24.4129 21.1249 24.9129 22.2249 24.5129 23.4249C24.4129 23.9249 23.9129 24.1249 23.4129 24.0249C22.9129 23.9249 22.7129 23.4249 22.8129 22.9249C23.0129 22.2249 22.7129 21.6249 22.7129 21.6249C22.9129 21.5249 22.8129 21.4249 22.8129 21.3249Z" fill="black"/>
<path d="M14.9121 24.2248C14.9121 23.9248 15.1121 23.6248 15.3121 23.5248C15.7121 23.3248 16.2121 23.4248 16.5121 23.8248C16.5121 23.9248 17.3121 25.2248 17.1121 26.9248C17.0121 27.4248 16.6121 27.7248 16.1121 27.7248C15.6121 27.6248 15.3121 27.2248 15.3121 26.7248C15.4121 25.6248 14.9121 24.7248 14.9121 24.7248C15.0121 24.5248 14.9121 24.3248 14.9121 24.2248Z" fill="black"/>
<path d="M14.1119 18.6253C16.6119 17.7253 18.9119 16.6253 21.3119 15.5253C20.1119 11.3253 20.3119 7.62527 20.3119 7.62527C20.3119 7.62527 20.4119 -1.77473 13.9119 1.82527C13.9119 1.82527 6.51193 6.22527 12.6119 16.2253L14.1119 18.6253Z" fill="white"/>
<path d="M13.4128 20.1249C13.7128 20.5249 14.2128 20.6249 14.6128 20.4249C15.0128 20.1249 15.1128 19.6249 14.9128 19.2249C12.9128 15.9249 10.6128 9.42486 11.3128 6.82486C12.0128 3.92486 14.2128 2.52486 14.3128 2.42486C15.7128 1.72486 16.8128 1.52486 17.5128 2.02486C19.1128 3.02486 19.4128 6.32486 19.4128 7.52486C19.4128 7.92486 19.2128 11.6249 20.4128 15.8249C20.9128 15.5249 21.5128 15.3249 22.0128 15.0249C20.9128 11.0249 21.1128 7.62486 21.1128 7.62486V7.52486C21.1128 7.42486 21.1128 6.22486 20.8128 4.72486C20.4128 2.62486 19.6128 1.22486 18.4128 0.524864C17.1128 -0.275136 15.4128 -0.175136 13.4128 0.924864C13.3128 1.02486 10.5128 2.72486 9.61276 6.42486C9.21276 8.02486 9.21276 9.72486 9.71276 11.5249C10.1128 13.1249 12.4128 18.4249 13.4128 20.1249Z" fill="black"/>
<path d="M6.01164 23.2246C6.01164 23.2246 -0.188362 28.2246 4.31164 36.4246C4.31164 36.4246 7.71164 42.5246 17.9116 40.7246" fill="white"/>
<path d="M1.8125 30.6245C1.8125 25.6245 6.3125 21.7245 6.4125 21.6245C6.8125 21.3245 7.3125 21.4245 7.6125 21.7245C7.9125 22.1245 7.8125 22.6245 7.5125 22.9245C7.2125 23.2245 1.0125 28.6245 5.1125 36.0245C5.2125 36.2245 8.4125 41.5245 17.8125 39.8245C18.3125 39.7245 18.7125 40.0245 18.8125 40.5245C18.9125 41.0245 18.6125 41.4245 18.1125 41.5245C7.4125 43.5245 3.7125 37.1245 3.6125 36.8245C2.3125 34.5245 1.8125 32.4245 1.8125 30.6245Z" fill="black"/>
<path d="M11.4128 11.6245C11.4128 11.5245 11.0128 10.3245 10.3128 9.02449C9.31285 7.12449 8.11285 6.02449 6.71285 5.72449C5.21285 5.32449 3.71285 5.92449 2.11285 7.52449C2.01285 7.62449 -0.187154 10.1245 0.0128462 13.9245C0.112846 15.5245 0.612846 17.1245 1.61285 18.7245C2.21285 19.8245 4.41285 22.4245 6.21285 24.3245C6.41285 23.9245 6.71285 23.6245 7.01285 23.3245C7.01285 23.1245 7.01285 22.9245 7.01285 22.7245V22.6245C4.51285 19.8245 2.11285 16.8245 1.81285 13.8245C1.71285 13.0245 2.01285 10.8245 2.91285 9.42449C3.31285 8.82449 3.81285 8.22449 4.41285 7.82449C5.11285 7.32449 5.71285 7.22449 6.31285 7.32449C8.11285 7.72449 9.41285 10.8245 9.71285 12.0245C9.81285 12.4245 10.7128 16.0245 13.1128 19.6245C13.5128 19.2245 14.0128 18.8245 14.4128 18.4245C12.2128 15.0245 11.4128 11.7245 11.4128 11.6245Z" fill="black"/>
</svg>
