<svg width="current" height="current" viewBox="0 0 51 40" fill="none" xmlns="http://www.w3.org/2000/svg">
<path d="M1.19922 37.2244C1.19922 38.0244 1.89923 38.8244 2.89923 38.8244L47.8992 38.7244C48.8992 38.7244 49.4992 38.0244 49.5992 37.2244V35.5244H1.19922V37.2244Z" fill="white"/>
<path d="M2.79999 39.8244C1.29999 39.8244 0.200006 38.7244 0.100006 37.2244L0 34.5244H50.5V37.3244C50.3 38.7244 49.2 39.7244 47.8 39.7244L2.79999 39.8244ZM2.19998 37.1244C2.19998 37.3244 2.39999 37.7244 2.89999 37.7244L47.9 37.6244C48.3 37.6244 48.5 37.3244 48.5 37.0244V36.4244H2.19998V37.1244Z" fill="black"/>
<path d="M40.7992 29.2242H9.89923C7.59923 29.2242 5.69922 30.2242 5.69922 27.9242V7.32422C5.69922 4.02422 8.39922 1.32422 11.6992 1.32422H39.0992C42.3992 1.32422 45.0992 4.02422 45.0992 7.32422V27.9242C44.9992 30.2242 43.0992 29.2242 40.7992 29.2242Z" fill="white"/>
<path d="M46.0996 30.2246H4.59961V8.12462C4.59961 3.82462 8.0996 0.224609 12.4996 0.224609H38.1996C42.4996 0.224609 46.0996 3.72462 46.0996 8.12462V30.2246ZM6.59961 28.1246H43.9996V8.12462C43.9996 4.92462 41.3996 2.32462 38.1996 2.32462H12.4996C9.2996 2.32462 6.69958 4.92462 6.69958 8.12462V28.1246H6.59961Z" fill="black"/>
<path d="M41 25.6238H9.5V10.3238C9.5 7.32384 11.9 4.92383 14.9 4.92383H35.6C38.6 4.92383 41 7.32384 41 10.3238V25.6238Z" fill="white"/>
<path d="M42.0996 26.6242H8.59961V8.12422C8.59961 5.72422 10.4996 3.82422 12.8996 3.82422H37.8996C40.2996 3.82422 42.1996 5.72422 42.1996 8.12422V26.6242H42.0996ZM10.5996 24.5242H39.9996V8.02422C39.9996 6.82422 38.9996 5.82422 37.7996 5.82422H12.7996C11.5996 5.82422 10.5996 6.82422 10.5996 8.02422V24.5242Z" fill="black"/>
<path d="M5.70005 29.224L1.60008 33.124C0.600077 34.224 1.30006 36.024 2.80006 35.924L47.8001 35.824C49.4001 35.824 50.1001 33.824 48.9001 32.824L45.1001 29.124C45.1001 29.224 4.90005 29.224 5.70005 29.224Z" fill="white"/>
<path d="M2.79957 37.0242C1.69957 37.0242 0.69957 36.4242 0.29957 35.4242C-0.10043 34.4242 0.0995703 33.3242 0.79957 32.5242L4.69956 28.8242C4.89956 28.5242 5.29959 28.4242 5.59959 28.3242H5.89958H5.99958H45.3996L49.4996 32.2242C50.3996 32.9242 50.6996 34.1242 50.2996 35.2242C49.8996 36.3242 48.8996 37.0242 47.7996 37.0242H2.79957ZM2.29957 33.9242C1.99957 34.2242 2.09956 34.5242 2.19956 34.6242C2.29956 34.7242 2.39957 35.0242 2.79957 35.0242L47.7996 34.9242C48.1996 34.9242 48.3996 34.6242 48.3996 34.5242C48.3996 34.4242 48.4996 34.0242 48.1996 33.8242L48.0996 33.7242L44.5996 30.3242C40.6996 30.3242 9.99958 30.3242 5.99958 30.3242L2.29957 33.9242Z" fill="black"/>
<path d="M31.4996 34.125H19.0996C18.4996 34.125 18.0996 33.625 18.0996 33.125C18.0996 32.525 18.5996 32.125 19.0996 32.125H31.4996C32.0996 32.125 32.4996 32.625 32.4996 33.125C32.4996 33.725 32.0996 34.125 31.4996 34.125Z" fill="black"/>
<path d="M22.2007 21.2246C21.9007 21.2246 21.7007 21.2246 21.4007 21.1246C20.1007 20.8246 19.1007 19.8246 18.6007 18.3246C18.2007 17.0246 18.1007 15.5246 18.5007 14.0246C18.9007 12.5246 19.6007 11.1246 20.5007 10.2246C21.6007 9.12461 23.0007 8.62461 24.3007 8.92461C24.9007 9.02461 25.4007 9.32461 25.9007 9.72461C26.9007 9.02461 28.0007 8.72461 29.0007 8.92461C30.3007 9.22461 31.3007 10.2246 31.8007 11.7246C32.2007 13.0246 32.3007 14.5246 31.9007 16.0246C31.6007 17.4246 30.9007 18.6246 30.1007 19.6246C29.2007 20.6246 28.0007 21.2246 26.9007 21.2246C26.6007 21.2246 26.4007 21.2246 26.1007 21.1246C25.5007 21.0246 25.0007 20.7246 24.6007 20.3246C23.9007 20.9246 23.0007 21.2246 22.2007 21.2246ZM23.5007 11.1246C22.9007 11.1246 22.4007 11.5246 22.1007 11.8246C21.4007 12.4246 20.9007 13.4246 20.7007 14.5246C20.4007 15.6246 20.5007 16.7246 20.8007 17.5246C20.9007 17.9246 21.3007 18.7246 22.0007 18.8246C22.1007 18.8246 22.2007 18.8246 22.2007 18.8246C22.7007 18.8246 23.3007 18.4246 23.9007 17.8246C24.1007 17.5246 24.5007 17.3246 24.9007 17.4246C25.3007 17.4246 25.6007 17.6246 25.8007 18.0246C26.0007 18.4246 26.4007 18.7246 26.7007 18.8246C26.8007 18.8246 26.9007 18.8246 26.9007 18.8246C27.8007 18.8246 29.2007 17.5246 29.6007 15.5246C29.9007 14.4246 29.8007 13.3246 29.5007 12.5246C29.4007 12.1246 29.0007 11.4246 28.4007 11.2246C27.8007 11.1246 27.2007 11.4246 26.5007 12.2246C26.3007 12.5246 25.9007 12.6246 25.5007 12.6246C25.1007 12.6246 24.8007 12.3246 24.6007 12.0246C24.4007 11.7246 24.1007 11.3246 23.7007 11.2246C23.6007 11.1246 23.6007 11.1246 23.5007 11.1246Z" fill="black"/>
</svg>
