<svg width="current" height="current" viewBox="0 0 53 56" fill="none" xmlns="http://www.w3.org/2000/svg">
<path d="M46.942 33.2654C49.8441 20.7855 42.8648 8.49842 31.3532 5.82144C19.8416 3.14447 8.15695 11.0913 5.2548 23.5712C2.35266 36.051 9.33199 48.3381 20.8436 51.0151C32.3552 53.692 44.0398 45.7452 46.942 33.2654Z" fill="white"/>
<path d="M26.8353 5.3252V7.4252C28.2353 7.4252 29.5353 7.6252 30.8353 7.9252C35.8353 9.1252 40.0353 12.3252 42.6353 16.9252C45.3353 21.6252 46.1353 27.2252 44.8353 32.7252C43.7353 37.4252 41.1353 41.7252 37.5353 44.7252C34.0353 47.6252 29.6353 49.3252 25.3353 49.3252C23.9353 49.3252 22.6353 49.1252 21.3353 48.8252C16.3353 47.6252 12.1353 44.4252 9.53532 39.8252C6.83532 35.1252 6.03531 29.5252 7.33531 24.0252C8.43531 19.3252 11.0353 15.0252 14.6353 12.0252C18.1353 9.12521 22.5353 7.4252 26.8353 7.4252V5.3252ZM26.8353 5.3252C16.9353 5.3252 7.73527 12.7252 5.23527 23.5252C2.33527 36.0252 9.33531 48.2252 20.8353 50.9252C22.3353 51.3252 23.8353 51.4252 25.3353 51.4252C35.2353 51.4252 44.4353 44.0252 46.9353 33.2252C49.8353 20.7252 42.8353 8.5252 31.3353 5.8252C29.8353 5.5252 28.3353 5.3252 26.8353 5.3252Z" fill="black"/>
<path d="M43.4353 32.4495C45.8371 22.1213 40.022 11.9436 30.4469 9.71699C20.8718 7.49035 11.1627 14.0579 8.76091 24.3861C6.35914 34.7143 12.1742 44.892 21.7493 47.1186C31.3244 49.3453 41.0335 42.7777 43.4353 32.4495Z" fill="white"/>
<path d="M26.7344 9.22461V11.3246C27.8344 11.3246 28.9345 11.4246 30.0345 11.7246C34.0345 12.6246 37.5345 15.2246 39.6345 19.0246C41.8345 22.8246 42.4344 27.4246 41.4344 31.9246C39.6344 39.7246 32.9345 45.4246 25.5345 45.4246C24.4345 45.4246 23.3344 45.3246 22.2344 45.0246C13.8344 43.0246 8.73447 34.0246 10.8345 24.8246C12.6345 17.0246 19.3344 11.3246 26.7344 11.3246V9.22461ZM26.7344 9.22461C18.5344 9.22461 10.9345 15.3246 8.83447 24.3246C6.43447 34.6246 12.2345 44.8246 21.8345 47.1246C23.1345 47.4246 24.3345 47.5246 25.6345 47.5246C33.8345 47.5246 41.4345 41.4246 43.5345 32.4246C45.9345 22.1246 40.1345 11.9246 30.5345 9.6246C29.2345 9.4246 27.9344 9.22461 26.7344 9.22461Z" fill="black"/>
<path d="M28.7191 30.46C29.1068 28.7924 28.2002 27.1566 26.694 26.8063C25.1878 26.4561 23.6524 27.524 23.2646 29.1916C22.8769 30.8591 23.7835 32.4949 25.2897 32.8451C26.7959 33.1954 28.3313 32.1275 28.7191 30.46Z" fill="white"/>
<path d="M26.1353 28.8256C26.4353 28.9256 26.5353 29.0256 26.5353 29.1256C26.6353 29.3256 26.7353 29.6256 26.6353 29.9256C26.5353 30.4256 26.1353 30.7256 25.8353 30.7256H25.7352C25.5352 30.7256 25.4352 30.5256 25.4352 30.4256C25.3352 30.2256 25.2353 29.9256 25.3353 29.6256C25.4353 29.1256 25.8353 28.8256 26.1353 28.8256ZM26.1353 26.7256C24.8353 26.7256 23.6353 27.7256 23.3353 29.2256C22.9353 30.9256 23.8353 32.5256 25.3353 32.9256C25.5353 32.9256 25.7352 33.0256 25.9352 33.0256C27.2352 33.0256 28.4352 32.0256 28.7352 30.5256C29.1352 28.8256 28.2352 27.2256 26.7352 26.8256C26.5352 26.7256 26.3353 26.7256 26.1353 26.7256Z" fill="black"/>
<path d="M33.3351 38.625C33.0351 38.625 32.7352 38.525 32.5352 38.325L24.8351 30.225C24.6351 30.025 24.5352 29.725 24.5352 29.425L25.6351 14.625C25.6351 14.025 26.1351 13.625 26.7351 13.625C27.3351 13.625 27.7351 14.125 27.7351 14.725L26.7351 29.025L34.1351 36.825C34.5351 37.225 34.5351 37.925 34.1351 38.325C33.9351 38.525 33.6351 38.625 33.3351 38.625Z" fill="black"/>
<path d="M29.3358 18.8252C29.0358 18.8252 28.6358 18.6252 28.4358 18.4252L26.7358 16.0252L24.2358 18.3252C23.8358 18.7252 23.1358 18.7252 22.7358 18.2252C22.3358 17.8252 22.3358 17.1252 22.8358 16.7252L26.1358 13.6252C26.3358 13.4252 26.6358 13.3252 26.9358 13.3252C27.2358 13.3252 27.5358 13.5252 27.7358 13.7252L30.1358 17.1252C30.4358 17.6252 30.3358 18.2252 29.9358 18.6252C29.7358 18.7252 29.5358 18.8252 29.3358 18.8252Z" fill="black"/>
<path d="M34.4348 39.7252L30.1348 39.3252C29.5348 39.2252 29.1348 38.7252 29.1348 38.2252C29.2348 37.6252 29.7347 37.2252 30.2347 37.2252L33.1348 37.5252V34.9252C33.1348 34.3252 33.5348 33.8252 34.1348 33.8252C34.7348 33.8252 35.2347 34.2252 35.2347 34.8252L35.5348 38.7252C35.5348 39.0252 35.4347 39.3252 35.2347 39.5252C35.0347 39.6252 34.7348 39.7252 34.4348 39.7252Z" fill="black"/>
</svg>
