<svg width="current" height="current" viewBox="0 0 30 47" fill="none" xmlns="http://www.w3.org/2000/svg">
<path d="M26.6 40.8038C28.7 37.5038 28 35.6038 27.3 34.7038C31.3 29.6038 28.8 22.3038 28.8 22.2038C26.3 15.7038 28.5 8.70381 28.6 8.70381V8.60381C28.6 8.50381 28.9 7.30381 29 5.80381C29.1 3.70381 28.7 2.10381 27.7 1.10381C26.6 0.00381052 24.9 -0.296189 22.8 0.303811C22.7 0.303811 19.5 1.30381 17.7 4.70381C16.9 6.20381 16.6 7.80381 16.5 9.60381C16.5 10.8038 16.7 12.1038 17 13.5038C16.8 13.5038 16.5 13.4038 16.3 13.4038C14 13.2038 11.7 14.2038 9.5 16.5038C9.4 16.6038 9.3 16.7038 9.3 16.8038C7.4 16.4038 5.1 16.6038 2.7 18.4038C1.4 19.4038 0.4 20.8038 0.1 22.5038C0 22.8038 0 23.2038 0 23.5038C0 24.8038 0.5 25.8038 1.4 26.5038C0.9 27.7038 0.5 29.1038 0.5 30.8038C0.5 32.6038 1 34.7038 2.3 37.1038C2.4 37.3038 3.8 39.7038 7.4 41.2038C7.1 41.5038 7 41.9038 7 42.2038C7 42.4038 7 42.5038 7.1 42.7038C7.6 45.0038 12 46.2038 12.9 46.4038C22 48.3038 26.3 41.4038 26.6 40.8038ZM19 17.4038L18.6 17.3038L19 17.4038Z" fill="white"/>
<path d="M26.3001 34.9033C26.3001 34.9033 28.4001 36.3033 25.9001 40.4033C25.9001 40.4033 22.1001 47.5033 13.1001 45.6033C13.1001 45.6033 5.40007 43.7033 8.70007 40.9033" fill="white"/>
<path d="M7 42.2037C7 41.6037 7.2 40.9037 8.1 40.1037C8.5 39.8037 9 39.8037 9.3 40.2037C9.6 40.6037 9.6 41.1037 9.2 41.4037C9 41.7037 8.7 42.0037 8.7 42.3037C8.9 43.1037 11.2 44.2037 13.2 44.7037C21.4 46.4037 24.9 40.2037 25 40.0037C27 36.8037 25.7 35.7037 25.7 35.7037L26.2 35.0037L26.7 34.3037C26.8 34.4037 29.5 36.2037 26.5 41.0037C26.2 41.6037 21.9 48.5037 12.8 46.6037C12 46.2037 7.6 45.0037 7 42.7037C7 42.6037 7 42.4037 7 42.2037Z" fill="black"/>
<path d="M18.2003 14.8037C14.7003 3.60369 22.9003 1.10369 22.9003 1.10369C30.1003 -0.796312 27.7003 8.30369 27.7003 8.30369C27.7003 8.30369 25.3003 15.5037 28.0003 22.4037C28.0003 22.4037 31.1003 31.5037 24.6003 36.1037" fill="white"/>
<path d="M16.4998 9.60381C16.4998 7.80381 16.8998 6.10381 17.6998 4.70381C19.4998 1.30381 22.5998 0.403811 22.7998 0.303811C24.9998 -0.296189 26.5998 0.00381052 27.6998 1.10381C28.6998 2.10381 29.0998 3.70381 28.9998 5.80381C28.8998 7.30381 28.5998 8.50381 28.5998 8.60381V8.70381C28.5998 8.80381 26.2998 15.7038 28.7998 22.2038C28.7998 22.3038 31.9998 32.0038 24.9998 36.9038C24.5998 37.2038 24.0998 37.1038 23.7998 36.7038C23.4998 36.3038 23.5998 35.8038 23.9998 35.5038C26.4998 33.8038 27.6998 31.2038 27.7998 27.7038C27.8998 25.1038 27.1998 23.0038 27.0998 22.8038C24.3998 15.8038 26.5998 8.70381 26.7998 8.10381C27.0998 6.90381 27.5998 3.60381 26.2998 2.30381C25.6998 1.70381 24.5998 1.50381 23.0998 1.90381C22.8998 2.00381 20.3998 2.80381 19.0998 5.50381C17.8998 7.80381 17.8998 10.9038 18.9998 14.5038C19.0998 15.0038 18.8998 15.4038 18.3998 15.6038C17.8998 15.7038 17.4998 15.5038 17.2998 15.0038C16.7998 13.1038 16.3998 11.3038 16.4998 9.60381Z" fill="black"/>
<path d="M21.0006 17.304C21.0006 17.304 16.5006 10.504 10.1006 17.104L21.0006 17.304Z" fill="white"/>
<path d="M9.2002 17.1038C9.2002 16.9038 9.3002 16.7038 9.4002 16.5038C11.6002 14.2038 13.9002 13.2038 16.2002 13.4038C19.6002 13.7038 21.6002 16.7038 21.7002 16.8038C22.0002 17.2038 21.9002 17.7038 21.5002 18.0038C21.1002 18.3038 20.6002 18.2038 20.3002 17.8038C20.3002 17.8038 18.6002 15.4038 16.1002 15.1038C14.4002 14.9038 12.6002 15.8038 10.7002 17.7038C10.4002 18.0038 9.8002 18.1038 9.5002 17.7038C9.3002 17.6038 9.2002 17.3038 9.2002 17.1038Z" fill="black"/>
<path d="M12.9 20.004C12.9 20.004 8.80001 15.104 3.10001 19.204C2.00001 20.004 1.10001 21.204 0.900011 22.704C0.700011 24.004 0.800011 25.404 2.40001 26.104" fill="white"/>
<path d="M0 23.5037C0 23.2037 0 22.8037 0.1 22.5037C0.4 20.9037 1.3 19.4037 2.7 18.4037C7.7 14.8037 12 17.5037 13.6 19.4037C13.9 19.8037 13.9 20.3037 13.5 20.6037C13.1 20.9037 12.6 20.9037 12.3 20.5037C12.1 20.3037 8.6 16.3037 3.7 19.8037C2.7 20.5037 2 21.6037 1.8 22.7037C1.5 24.4037 2.2 24.9037 2.8 25.2037C3.2 25.4037 3.4 25.9037 3.2 26.4037C3 26.8037 2.5 27.0037 2 26.8037C0.7 26.2037 0 25.1037 0 23.5037Z" fill="black"/>
<path d="M4.70011 23.4043C4.70011 23.4043 -1.49989 28.4043 3.00012 36.6043C3.00012 36.6043 6.40012 42.7043 16.6001 40.9043" fill="white"/>
<path d="M0.5 30.8042C0.5 25.8042 4.1 22.8042 4.1 22.8042C4.5 22.5042 5 22.6042 5.3 22.9042C5.6 23.3042 5.5 23.8042 5.2 24.1042C5 24.3042 -0.3 28.8042 3.8 36.2042C3.9 36.4042 7.1 41.7042 16.5 40.0042C17 39.9042 17.4 40.2042 17.5 40.7042C17.6 41.2042 17.3 41.6042 16.8 41.7042C6.1 43.7042 2.4 37.3042 2.2 37.0042C1 34.7042 0.5 32.6042 0.5 30.8042Z" fill="black"/>
<path d="M21.5004 21.5036C21.5004 21.2036 21.7004 20.8036 22.0004 20.7036C22.4004 20.5036 23.0004 20.7036 23.1004 21.2036C23.1004 21.3036 23.6004 22.4036 23.2004 23.6036C23.1004 24.1036 22.6004 24.3036 22.1004 24.2036C21.6004 24.1036 21.4004 23.6036 21.5004 23.1036C21.7004 22.4036 21.4004 21.8036 21.4004 21.8036C21.6004 21.7036 21.5004 21.6036 21.5004 21.5036Z" fill="black"/>
<path d="M13.5996 24.3039C13.5996 24.0039 13.7996 23.7039 13.9996 23.6039C14.3996 23.4039 14.8996 23.5039 15.1996 23.9039C15.1996 24.0039 15.9996 25.3039 15.7996 27.0039C15.6996 27.5039 15.2996 27.8039 14.7996 27.8039C14.2996 27.7039 13.9996 27.3039 13.9996 26.8039C14.0996 25.7039 13.5996 24.8039 13.5996 24.8039C13.6996 24.6039 13.5996 24.5039 13.5996 24.3039Z" fill="black"/>
</svg>
