<svg width="current" height="current" viewBox="0 0 52 49" fill="none" xmlns="http://www.w3.org/2000/svg">
<path d="M12.1364 10.5257C9.83638 10.5257 8.03633 9.82566 6.83633 8.52566C4.63633 6.22566 5.33633 2.72566 5.33633 2.52566C5.43633 1.92566 6.03638 1.52567 6.63638 1.62567C7.23638 1.72567 7.63635 2.32565 7.53635 2.92565C7.53635 2.92565 7.13635 5.42566 8.53635 7.02566C9.53635 8.12566 11.2364 8.52566 13.7364 8.22566C14.3364 8.12566 14.9364 8.62566 14.9364 9.22566C15.0364 9.82566 14.5364 10.4257 13.9364 10.4257C13.2364 10.5257 12.6364 10.5257 12.1364 10.5257Z" fill="black"/>
<path d="M30.7359 10.5257C28.4359 10.5257 26.6359 9.82566 25.4359 8.52566C23.2359 6.22566 23.9359 2.72566 23.9359 2.52566C24.0359 1.92566 24.6359 1.52567 25.2359 1.62567C25.8359 1.72567 26.236 2.32565 26.136 2.92565C26.136 2.92565 25.736 5.42566 27.136 7.02566C28.136 8.12566 29.8359 8.52566 32.3359 8.22566C32.9359 8.12566 33.5359 8.62566 33.5359 9.22566C33.6359 9.82566 33.1359 10.4257 32.5359 10.4257C31.8359 10.5257 31.2359 10.5257 30.7359 10.5257Z" fill="black"/>
<path d="M17.0367 9.82548C14.7367 9.82548 12.9367 9.12548 11.7367 7.82548C9.53672 5.52548 10.2367 2.02548 10.2367 1.82548C10.3367 1.22548 10.9367 0.82547 11.5367 0.92547C12.1367 1.02547 12.5367 1.62547 12.4367 2.22547C12.4367 2.22547 12.0367 4.72548 13.4367 6.32548C14.4367 7.42548 16.1367 7.82548 18.6367 7.52548C19.2367 7.42548 19.8367 7.92548 19.8367 8.52548C19.9367 9.12548 19.4367 9.72547 18.8367 9.72547C18.1367 9.72547 17.6367 9.82548 17.0367 9.82548Z" fill="black"/>
<path d="M35.6364 9.82548C33.3364 9.82548 31.5363 9.12548 30.3363 7.82548C28.1363 5.52548 28.8363 2.02548 28.8363 1.82548C28.9363 1.22548 29.5364 0.82547 30.1364 0.92547C30.7364 1.02547 31.1363 1.62547 31.0363 2.22547C31.0363 2.22547 30.6363 4.72548 32.0363 6.32548C33.0363 7.42548 34.7364 7.82548 37.2364 7.52548C37.8364 7.42548 38.4364 7.92548 38.4364 8.52548C38.5364 9.12548 38.0364 9.72547 37.4364 9.72547C36.7364 9.72547 36.1364 9.82548 35.6364 9.82548Z" fill="black"/>
<path d="M27.9196 29.5266C30.3214 19.1984 26.9919 9.5988 20.483 8.08518C13.9741 6.57156 6.75058 13.7171 4.3488 24.0453C1.94703 34.3734 5.27651 43.9731 11.7854 45.4867C18.2943 47.0004 25.5178 39.8547 27.9196 29.5266Z" fill="white"/>
<path d="M13.5372 46.7251C12.8372 46.7251 12.2372 46.6251 11.5372 46.5251C8.03718 45.7251 5.23722 42.8251 3.63722 38.4251C2.13722 34.2251 2.0372 29.0251 3.2372 23.8251C5.7372 12.9251 13.6372 5.42515 20.7372 7.12515C24.2372 7.92515 27.0372 10.8251 28.6372 15.2251C30.1372 19.4251 30.2372 24.6251 29.0372 29.8251C26.7372 39.6251 20.0372 46.7251 13.5372 46.7251ZM18.6372 9.02514C13.1372 9.02514 7.43717 15.4251 5.33717 24.3251C4.23717 29.1251 4.3372 33.8251 5.7372 37.7251C7.0372 41.4251 9.23718 43.8251 12.0372 44.4251C12.5372 44.5251 13.0372 44.6251 13.6372 44.6251C19.1372 44.6251 24.8372 38.2251 26.9372 29.3251C28.0372 24.5251 27.9372 19.8251 26.5372 15.9251C25.2372 12.2251 23.0372 9.82514 20.2372 9.22514C19.7372 9.12514 19.2372 9.02514 18.6372 9.02514Z" fill="black"/>
<path d="M15.7083 29.9835C16.5714 26.2718 15.3524 22.8168 12.9855 22.2663C10.6186 21.7159 8.00021 24.2786 7.13707 27.9903C6.27394 31.702 7.49294 35.1571 9.85981 35.7075C12.2267 36.2579 14.8451 33.6952 15.7083 29.9835Z" fill="black"/>
<path d="M46.9313 29.5422C49.3331 19.214 46.0036 9.61443 39.4947 8.10081C32.9858 6.58719 25.7623 13.7327 23.3605 24.0609C20.9587 34.3891 24.2882 43.9888 30.7971 45.5024C37.306 47.016 44.5295 39.8704 46.9313 29.5422Z" fill="white"/>
<path d="M32.6369 46.7248C31.9369 46.7248 31.2369 46.6248 30.6369 46.5248C27.1369 45.7248 24.3368 42.8248 22.7368 38.4248C21.2368 34.2248 21.1368 29.0248 22.3368 23.8248C23.5368 18.6248 25.9369 14.0248 29.1369 10.9248C32.4369 7.62476 36.2368 6.32478 39.7368 7.12478C43.2368 7.92478 46.0369 10.8248 47.6369 15.2248C49.1369 19.4248 49.2368 24.6248 48.0368 29.8248C46.8368 35.0248 44.4368 39.6248 41.2368 42.7248C38.5368 45.3248 35.5369 46.7248 32.6369 46.7248ZM37.7368 9.02477C35.4368 9.02477 32.9369 10.2248 30.6369 12.4248C27.7369 15.3248 25.5368 19.5248 24.4368 24.3248C23.3368 29.1248 23.4368 33.8248 24.8368 37.7248C26.1368 41.4248 28.3369 43.8248 31.1369 44.4248C33.9369 45.0248 36.9368 43.9248 39.7368 41.2248C42.6368 38.3248 44.8368 34.1248 45.9368 29.3248C47.0368 24.5248 46.9368 19.8248 45.5368 15.9248C44.2368 12.2248 42.0368 9.82477 39.2368 9.22477C38.7368 9.12477 38.2368 9.02477 37.7368 9.02477Z" fill="black"/>
<path d="M34.72 29.9982C35.5831 26.2865 34.3641 22.8314 31.9972 22.281C29.6304 21.7306 27.0119 24.2933 26.1488 28.005C25.2857 31.7166 26.5047 35.1718 28.8715 35.7222C31.2384 36.2726 33.8568 33.7098 34.72 29.9982Z" fill="black"/>
</svg>
