<svg width="current" height="current" viewBox="0 0 49 47" fill="none" xmlns="http://www.w3.org/2000/svg">
<path d="M24.2008 6.42421C23.7008 6.42421 23.3008 6.02422 23.3008 5.52422V1.22421C23.3008 0.724213 23.7008 0.324219 24.2008 0.324219C24.7008 0.324219 25.1008 0.724213 25.1008 1.22421V5.52422C25.1008 6.02422 24.7008 6.42421 24.2008 6.42421Z" fill="black"/>
<path d="M37.6992 12.0244C37.4992 12.0244 37.1992 11.9244 36.9992 11.7244C36.5992 11.3244 36.5992 10.7244 36.9992 10.4244L40.0992 7.32441C40.4992 6.92441 41.0992 6.92441 41.3992 7.32441C41.7992 7.72441 41.7992 8.32442 41.3992 8.62442L38.2992 11.7244C38.0992 11.9244 37.8992 12.0244 37.6992 12.0244Z" fill="black"/>
<path d="M40.6996 41.3242C40.4996 41.3242 40.1996 41.2242 39.9996 41.0242L36.8996 37.9242C36.4996 37.5242 36.4996 36.9242 36.8996 36.6242C37.2996 36.2242 37.8996 36.2242 38.1996 36.6242L41.2996 39.7242C41.6996 40.1242 41.6996 40.7242 41.2996 41.0242C41.1996 41.3242 40.9996 41.3242 40.6996 41.3242Z" fill="black"/>
<path d="M47.3992 25.424H43.0992C42.5992 25.424 42.1992 25.024 42.1992 24.524C42.1992 24.024 42.5992 23.624 43.0992 23.624H47.3992C47.8992 23.624 48.2992 24.024 48.2992 24.524C48.2992 25.024 47.8992 25.424 47.3992 25.424Z" fill="black"/>
<path d="M10.6 12.0244C10.4 12.0244 10.1 11.9244 9.90001 11.7244L6.8 8.62442C6.4 8.22442 6.4 7.62441 6.8 7.32441C7.2 6.92441 7.8 6.92441 8.1 7.32441L11.2 10.4244C11.6 10.8244 11.6 11.4244 11.2 11.7244C11.1 11.9244 10.9 12.0244 10.6 12.0244Z" fill="black"/>
<path d="M7.50001 41.3242C7.30001 41.3242 7 41.2242 6.8 41.0242C6.4 40.6242 6.4 40.0242 6.8 39.7242L9.90001 36.6242C10.3 36.2242 10.9 36.2242 11.2 36.6242C11.6 37.0242 11.6 37.6242 11.2 37.9242L8.1 41.0242C8 41.3242 7.80001 41.3242 7.50001 41.3242Z" fill="black"/>
<path d="M5.2 25.424H0.899994C0.399994 25.424 0 25.024 0 24.524C0 24.024 0.399994 23.624 0.899994 23.624H5.2C5.7 23.624 6.09999 24.024 6.09999 24.524C6.09999 25.024 5.7 25.424 5.2 25.424Z" fill="black"/>
<path d="M37.8004 23.5242C37.8004 15.9242 31.7004 9.82422 24.1004 9.82422C16.5004 9.82422 10.4004 15.9242 10.4004 23.5242C10.4004 28.7242 13.3004 33.2242 17.5004 35.5242L18.7004 42.3242H29.7004L30.7004 35.4242C35.0004 33.1242 37.8004 28.7242 37.8004 23.5242Z" fill="white"/>
<path d="M30.6 43.3238H18L16.7 36.1238C12.3 33.5238 9.5 28.7238 9.5 23.5238C9.5 15.4238 16.1 8.92383 24.1 8.92383C32.1 8.92383 38.7 15.5238 38.7 23.5238C38.7 28.6238 36 33.4238 31.6 36.0238L30.6 43.3238ZM19.6 41.4238H29L30 34.9238L30.4 34.7238C34.4 32.4238 36.9 28.2238 36.9 23.6238C36.9 16.6238 31.2 10.9238 24.2 10.9238C17.2 10.9238 11.5 16.6238 11.5 23.6238C11.5 28.2238 14 32.5238 18.1 34.8238L18.5 35.0238L19.6 41.4238Z" fill="black"/>
<path d="M16.8009 25.0241C17.1009 25.5241 17.801 25.0241 17.501 24.6241C16.901 23.6241 16.8009 22.324 17.4009 21.224C18.0009 20.224 19.0009 19.6241 20.1009 19.5241C21.3009 19.4241 22.6009 19.7241 23.6009 20.3241C23.6009 20.3241 23.6009 20.324 23.7009 20.424C22.6009 21.324 21.8009 22.724 21.8009 24.224C21.8009 24.924 22.0009 25.6241 22.4009 26.1241C22.7009 26.6241 23.301 27.2241 24.001 27.1241C24.701 27.0241 25.1009 26.3241 25.4009 25.8241C25.7009 25.2241 25.901 24.6241 26.001 24.0241C26.201 22.7241 25.9009 21.424 25.1009 20.424C25.6009 20.124 26.2009 19.924 26.7009 19.724C27.9009 19.424 29.3009 19.524 30.2009 20.424C31.0009 21.224 31.401 22.324 31.001 23.424C30.801 23.924 31.6009 24.1241 31.8009 23.6241C32.3009 22.4241 31.9009 21.1241 31.1009 20.1241C30.2009 19.0241 28.8009 18.624 27.4009 18.724C26.4009 18.824 25.3009 19.124 24.4009 19.724C23.5009 19.024 22.3009 18.6241 21.1009 18.5241C19.5009 18.4241 17.9009 18.9241 16.9009 20.3241C16.0009 21.7241 16.0009 23.6241 16.8009 25.0241ZM25.2009 22.724C25.3009 23.724 25.101 24.7241 24.501 25.6241C24.401 25.8241 24.201 26.0241 24.001 26.1241C23.701 26.2241 23.5009 26.0241 23.4009 25.8241C23.1009 25.4241 22.8009 24.924 22.8009 24.424C22.6009 22.924 23.401 21.7241 24.501 20.8241C24.901 21.4241 25.2009 22.024 25.2009 22.724Z" fill="black"/>
<path d="M23.9005 27.5237C23.4005 27.5237 22.7005 27.3237 22.1005 26.3237C21.7005 25.7237 21.5005 24.9237 21.5005 24.1237C21.5005 22.7237 22.0005 21.4236 23.1005 20.4236C22.3005 20.0236 21.3005 19.8236 20.3005 19.9236C19.3005 20.0236 18.4005 20.6236 17.9005 21.4236C17.4005 22.3236 17.4005 23.4237 18.0005 24.3237C18.2005 24.6237 18.2005 24.9236 18.0005 25.2236C17.8005 25.5236 17.5005 25.7236 17.2005 25.7236C16.9005 25.7236 16.6005 25.5237 16.4005 25.3237C15.4005 23.7237 15.5005 21.6237 16.6005 20.1237C17.6005 18.7237 19.4005 18.0237 21.3005 18.1237C22.5005 18.2237 23.7005 18.6236 24.6005 19.2236C25.5005 18.7236 26.5005 18.4237 27.5005 18.3237C29.1005 18.2237 30.7005 18.8236 31.6005 19.9236C32.6005 21.1236 32.9005 22.6237 32.4005 23.8237C32.2005 24.3237 31.6005 24.5237 31.2005 24.3237C30.7005 24.1237 30.5005 23.7236 30.7005 23.2236C31.0005 22.4236 30.8005 21.4237 30.0005 20.8237C29.3005 20.1237 28.1005 19.9236 26.9005 20.2236C26.6005 20.3236 26.2005 20.4237 25.9005 20.6237C26.5005 21.6237 26.8005 22.8237 26.6005 24.1237C26.5005 24.8237 26.3005 25.4237 26.0005 26.0237C25.8005 26.3237 25.2005 27.4237 24.2005 27.6237C24.0005 27.5237 24.0005 27.5237 23.9005 27.5237ZM24.4005 21.5237C23.8005 22.1237 23.1005 23.1237 23.3005 24.3237C23.4005 24.8237 23.6005 25.2237 23.8005 25.5237L23.9005 25.6237C24.0005 25.5237 24.1005 25.4237 24.2005 25.3237C24.7005 24.5237 24.9005 23.6236 24.8005 22.7236C24.7005 22.3236 24.6005 21.9237 24.4005 21.5237Z" fill="black"/>
<path d="M22.6996 40.7237C22.2996 40.7237 21.8996 40.4236 21.7996 40.0236L18.9996 28.2237C18.8996 27.7237 19.1996 27.2237 19.6996 27.1237C20.1996 27.0237 20.6996 27.3236 20.7996 27.8236L23.5996 39.6237C23.6996 40.1237 23.3996 40.6237 22.8996 40.7237C22.7996 40.7237 22.6996 40.7237 22.6996 40.7237Z" fill="black"/>
<path d="M25.3996 40.7237C25.2996 40.7237 25.2996 40.7237 25.1996 40.7237C24.6996 40.6237 24.3996 40.1237 24.4996 39.6237L27.2996 27.8236C27.3996 27.3236 27.8996 27.0237 28.3996 27.1237C28.8996 27.2237 29.1996 27.7237 29.0996 28.2237L26.2996 40.0236C26.1996 40.5236 25.8996 40.7237 25.3996 40.7237Z" fill="black"/>
<path d="M28.7002 45.923H19.9002C19.6002 45.923 19.4002 45.723 19.3002 45.523L18.4002 39.923C18.3002 39.523 18.6002 39.123 19.0002 39.123H29.5002C30.0002 39.123 30.3002 39.523 30.1002 39.923L29.3002 45.523C29.3002 45.723 29.0002 45.923 28.7002 45.923Z" fill="white"/>
<path d="M28.7002 46.8234H19.9002C19.2002 46.8234 18.6002 46.4234 18.4002 45.8234V45.7234L17.5002 40.0234C17.4002 39.6234 17.5002 39.1234 17.7002 38.7234C18.0002 38.3234 18.5002 38.0234 19.0002 38.0234H29.5002C30.0002 38.0234 30.5002 38.3234 30.8002 38.7234C31.1002 39.1234 31.1002 39.5234 31.0002 40.0234L30.2002 45.7234V45.8234C30.0002 46.4234 29.4002 46.8234 28.7002 46.8234ZM20.2002 44.9234H28.5002L29.2002 39.9234H19.4002L20.2002 44.9234Z" fill="black"/>
<path d="M29.3992 43.3234H19.0992C18.5992 43.3234 18.1992 42.9234 18.1992 42.4234C18.1992 41.9234 18.5992 41.5234 19.0992 41.5234H29.3992C29.8992 41.5234 30.2992 41.9234 30.2992 42.4234C30.2992 42.9234 29.8992 43.3234 29.3992 43.3234Z" fill="black"/>
</svg>
