<svg xmlns="http://www.w3.org/2000/svg" viewBox="0 0 29.99 32.17"><defs><style>.cls-1{fill:#fff;}</style></defs><g id="아이콘"><ellipse class="cls-1" cx="14.99" cy="16.08" rx="16.14" ry="14.92" transform="translate(-4.07 27.04) rotate(-76.91)"/><path d="M15.5,0V1.47a12.27,12.27,0,0,1,2.82.33c7.22,1.68,11.61,9.45,9.77,17.33A15.43,15.43,0,0,1,23,27.51a13.37,13.37,0,0,1-8.51,3.18,12.77,12.77,0,0,1-2.82-.32C4.45,28.69.06,20.91,1.89,13A15.53,15.53,0,0,1,7,4.65,13.37,13.37,0,0,1,15.5,1.47V0m0,0C8.59,0,2.21,5.16.46,12.7c-2,8.68,2.85,17.24,10.88,19.1a13.61,13.61,0,0,0,3.15.37c6.91,0,13.29-5.16,15-12.71,2-8.68-2.85-17.23-10.88-19.1A14.16,14.16,0,0,0,15.5,0Z"/><path d="M13.63,24.89a.73.73,0,0,1-.68-.46,20,20,0,0,0-6.17-8.25.75.75,0,0,1-.18-1,.74.74,0,0,1,1-.18,20.46,20.46,0,0,1,5.83,7c1-3.16,3.58-9.34,9.33-13.38a.74.74,0,0,1,.85,1.21C16.27,15,14.37,24.2,14.35,24.29a.73.73,0,0,1-.65.59Z"/></g></svg>