<svg xmlns="http://www.w3.org/2000/svg" viewBox="0 0 37.75 36.39"><defs><style>.cls-1{fill:#fff;}</style></defs><g id="아이콘"><path d="M18.89,4.86a.74.74,0,0,1-.74-.73V.74a.74.74,0,1,1,1.47,0V4.13A.73.73,0,0,1,18.89,4.86Z"/><line class="cls-1" x1="31.81" y1="6.14" x2="29.42" y2="8.53"/><path d="M29.42,9.27a.7.7,0,0,1-.52-.22.73.73,0,0,1,0-1l2.39-2.4a.74.74,0,1,1,1,1L29.94,9.05A.72.72,0,0,1,29.42,9.27Z"/><line class="cls-1" x1="31.81" y1="31.39" x2="29.42" y2="28.99"/><path d="M31.81,32.12a.77.77,0,0,1-.52-.21l-2.39-2.4a.74.74,0,0,1,1-1l2.39,2.4a.73.73,0,0,1-.52,1.25Z"/><path d="M37,19.69H33.62a.73.73,0,0,1-.74-.73.74.74,0,0,1,.74-.74H37a.74.74,0,0,1,.74.74A.73.73,0,0,1,37,19.69Z"/><line class="cls-1" x1="5.93" y1="6.14" x2="8.33" y2="8.53"/><path d="M8.33,9.27a.7.7,0,0,1-.52-.22L5.41,6.66a.74.74,0,1,1,1-1L8.85,8a.73.73,0,0,1,0,1A.7.7,0,0,1,8.33,9.27Z"/><line class="cls-1" x1="5.93" y1="31.39" x2="8.33" y2="28.99"/><path d="M5.93,32.12a.73.73,0,0,1-.52-1.25l2.4-2.4a.74.74,0,0,1,1,1l-2.4,2.4A.73.73,0,0,1,5.93,32.12Z"/><line class="cls-1" x1="0.74" y1="18.96" x2="4.13" y2="18.96"/><path d="M4.13,19.69H.74A.73.73,0,0,1,0,19a.74.74,0,0,1,.74-.74H4.13a.74.74,0,0,1,.73.74A.73.73,0,0,1,4.13,19.69Z"/><path class="cls-1" d="M29.55,18.21a10.67,10.67,0,1,0-15.79,9.36l.93,5.34h8.6l.78-5.37A10.68,10.68,0,0,0,29.55,18.21Z"/><path d="M23.93,33.65H14.07l-1-5.61a11.4,11.4,0,1,1,11.66,0Zm-8.62-1.48h7.34l.74-5.1.32-.18a9.92,9.92,0,1,0-9.6,0l.31.17Z"/><path d="M13.18,19.37a.33.33,0,0,0,.56-.33,2.64,2.64,0,0,1-.06-2.65A2.75,2.75,0,0,1,15.8,15a4.42,4.42,0,0,1,2.75.63l.06,0a3.73,3.73,0,0,0-1.46,3,2.94,2.94,0,0,0,.43,1.5c.27.42.68.87,1.22.79a1.78,1.78,0,0,0,1.12-1,4.22,4.22,0,0,0,.45-1.38,3.61,3.61,0,0,0-.71-2.77,4.4,4.4,0,0,1,1.24-.51,3,3,0,0,1,2.77.57,2.13,2.13,0,0,1,.6,2.31c-.15.39.48.56.63.17a2.71,2.71,0,0,0-.54-2.69,3.33,3.33,0,0,0-2.88-1.11,5.06,5.06,0,0,0-2.31.79,5,5,0,0,0-2.56-.92,3.61,3.61,0,0,0-3.3,1.38A3.29,3.29,0,0,0,13.18,19.37Zm6.56-1.75a3.43,3.43,0,0,1-.54,2.23,1.18,1.18,0,0,1-.4.43c-.21.1-.36-.06-.49-.22A2.19,2.19,0,0,1,17.82,19a3.07,3.07,0,0,1,1.29-2.81A2.57,2.57,0,0,1,19.74,17.62Z"/><path d="M18.67,21.34a1.71,1.71,0,0,1-1.4-1,3.38,3.38,0,0,1-.49-1.69A4,4,0,0,1,18,15.77a4.1,4.1,0,0,0-2.15-.37A2.34,2.34,0,0,0,14,16.57a2.27,2.27,0,0,0,.06,2.28.65.65,0,0,1,0,.67.72.72,0,0,1-.62.37.67.67,0,0,1-.59-.33h0a3.68,3.68,0,0,1,.15-4A4,4,0,0,1,16.64,14a5.55,5.55,0,0,1,2.55.85,5.54,5.54,0,0,1,2.26-.72,3.71,3.71,0,0,1,3.19,1.24,3.1,3.1,0,0,1,.61,3.07.73.73,0,0,1-.95.4.64.64,0,0,1-.37-.85,1.75,1.75,0,0,0-.52-1.9A2.55,2.55,0,0,0,21,15.62a3.56,3.56,0,0,0-.79.28,4,4,0,0,1,.53,2.69,4.62,4.62,0,0,1-.48,1.5,2.2,2.2,0,0,1-1.39,1.23Zm.38-4.66a2.56,2.56,0,0,0-.86,2.21,1.72,1.72,0,0,0,.4.93l.09.1a.9.9,0,0,0,.21-.27,3.11,3.11,0,0,0,.49-2h0A2.38,2.38,0,0,0,19.05,16.68Z"/><line class="cls-1" x1="15.54" y1="21.76" x2="17.73" y2="30.92"/><path d="M17.73,31.66a.75.75,0,0,1-.72-.57l-2.19-9.16a.73.73,0,1,1,1.43-.34l2.2,9.16a.75.75,0,0,1-.55.89Z"/><line class="cls-1" x1="22.08" y1="21.76" x2="19.89" y2="30.92"/><path d="M19.89,31.66l-.18,0a.75.75,0,0,1-.54-.89l2.19-9.16a.75.75,0,0,1,.89-.55.74.74,0,0,1,.55.89l-2.2,9.16A.73.73,0,0,1,19.89,31.66Z"/><path class="cls-1" d="M22.45,35.66H15.61a.53.53,0,0,1-.5-.33l-.71-4.41a.5.5,0,0,1,.5-.64h8.18a.5.5,0,0,1,.5.64L23,35.33A.53.53,0,0,1,22.45,35.66Z"/><path d="M22.45,36.39H15.61a1.26,1.26,0,0,1-1.19-.81l0-.06-.71-4.43a1.21,1.21,0,0,1,.16-1,1.3,1.3,0,0,1,1.05-.53h8.18a1.3,1.3,0,0,1,1.05.53,1.25,1.25,0,0,1,.17,1l-.63,4.42,0,.07A1.25,1.25,0,0,1,22.45,36.39Zm.5-1.06Zm-7.16-.41h6.47l.56-3.9H15.17Z"/><path d="M23,33.68h-8a.74.74,0,1,1,0-1.47h8a.74.74,0,0,1,0,1.47Z"/></g></svg>