<svg width="30" height="30" viewBox="0 0 30 30" fill="none" xmlns="http://www.w3.org/2000/svg">
<path d="M7.63031 7.26432C6.35833 7.26432 5.37434 6.90106 4.71835 6.18262C3.53436 4.89103 3.88635 2.97786 3.90235 2.89714C3.96635 2.56617 4.27835 2.35629 4.60635 2.41279C4.93434 2.47737 5.14234 2.79219 5.08634 3.12316C5.07834 3.14738 4.83834 4.52777 5.61434 5.35923C6.15833 5.94045 7.11032 6.1584 8.4383 5.99695C8.7663 5.95659 9.0703 6.19876 9.1103 6.52973C9.1503 6.8607 8.9103 7.16745 8.5823 7.20781C8.24631 7.2401 7.93431 7.26432 7.63031 7.26432Z" fill="black"/>
<path d="M17.7582 7.26432C16.4862 7.26432 15.5022 6.90106 14.8462 6.18262C13.6623 4.89103 14.0143 2.97786 14.0303 2.89714C14.0943 2.56617 14.4062 2.35629 14.7342 2.41279C15.0622 2.47737 15.2702 2.79219 15.2142 3.12316C15.2062 3.14738 14.9662 4.52777 15.7422 5.35923C16.2862 5.94045 17.2382 6.1584 18.5662 5.99695C18.8942 5.95659 19.1982 6.19876 19.2382 6.52973C19.2782 6.8607 19.0382 7.16745 18.7102 7.20781C18.3662 7.2401 18.0542 7.26432 17.7582 7.26432Z" fill="black"/>
<path d="M10.3183 6.8607C9.04632 6.8607 8.06233 6.49744 7.40633 5.77899C6.22235 4.48741 6.57434 2.57424 6.59034 2.49352C6.65434 2.16255 6.96634 1.95266 7.29434 2.00917C7.62233 2.07375 7.83033 2.38857 7.77433 2.71954C7.76633 2.74376 7.52633 4.12415 8.30232 4.95561C8.84632 5.53682 9.79831 5.75477 11.1263 5.59333C11.4543 5.55296 11.7583 5.79514 11.7983 6.12611C11.8383 6.45708 11.5983 6.76383 11.2703 6.80419C10.9263 6.83648 10.6143 6.8607 10.3183 6.8607Z" fill="black"/>
<path d="M20.4462 6.8607C19.1742 6.8607 18.1902 6.49744 17.5342 5.77899C16.3502 4.48741 16.7022 2.57424 16.7182 2.49352C16.7822 2.16255 17.0942 1.95266 17.4222 2.00917C17.7502 2.07375 17.9582 2.38857 17.9022 2.71954C17.8942 2.74376 17.6542 4.12415 18.4302 4.95561C18.9742 5.53682 19.9262 5.75477 21.2542 5.59333C21.5822 5.55296 21.8862 5.79514 21.9262 6.12611C21.9662 6.45708 21.7262 6.76383 21.3982 6.80419C21.0542 6.83648 20.7422 6.8607 20.4462 6.8607Z" fill="black"/>
<path d="M16.2561 17.7234C17.564 12.0479 15.7393 6.77006 12.1804 5.93496C8.62156 5.09985 4.67621 9.02374 3.36826 14.6992C2.06031 20.3747 3.88504 25.6526 7.44392 26.4877C11.0028 27.3228 14.9481 23.3989 16.2561 17.7234Z" fill="white"/>
<path d="M8.39831 27.2113C8.03031 27.2113 7.67032 27.1709 7.31032 27.0821C5.38234 26.6301 3.85436 25.0398 3.01436 22.61C2.20637 20.2771 2.12637 17.4194 2.78237 14.5618C4.16635 8.57205 8.43831 4.4309 12.3183 5.34308C14.2462 5.79514 15.7742 7.38541 16.6142 9.81521C17.4222 12.1481 17.5022 15.0058 16.8462 17.8634C15.5902 23.3042 11.9503 27.2113 8.39831 27.2113ZM11.1983 6.43286C8.20631 6.43286 5.07834 9.96051 3.95836 14.8363C3.35036 17.4679 3.42236 20.0914 4.15035 22.2064C4.84635 24.2326 6.07033 25.5403 7.58232 25.8955C7.86231 25.9601 8.15031 25.9924 8.43031 25.9924C11.4223 25.9924 14.5502 22.4647 15.6702 17.589C16.2782 14.9573 16.2062 12.3338 15.4782 10.2188C14.7822 8.19265 13.5583 6.88492 12.0463 6.52973C11.7663 6.46515 11.4783 6.43286 11.1983 6.43286Z" fill="black"/>
<path d="M9.5702 17.9725C10.0405 15.9316 9.38224 14.0331 8.09984 13.7322C6.81744 13.4313 5.39656 14.8418 4.92622 16.8828C4.45587 18.9237 5.11418 20.8221 6.39658 21.123C7.67898 21.4239 9.09986 20.0134 9.5702 17.9725Z" fill="black"/>
<path d="M26.6318 17.7237C27.9397 12.0482 26.115 6.77032 22.5561 5.93522C18.9972 5.10011 15.0519 9.02401 13.7439 14.6995C12.436 20.3749 14.2607 25.6528 17.8196 26.4879C21.3785 27.323 25.3238 23.3991 26.6318 17.7237Z" fill="white"/>
<path d="M18.7982 27.2113C18.4222 27.2113 18.0462 27.1709 17.6782 27.0821C15.7503 26.6301 14.2223 25.0398 13.3823 22.61C12.5743 20.2771 12.4943 17.4194 13.1503 14.5618C13.8063 11.7042 15.1343 9.17749 16.8782 7.44191C18.6942 5.63369 20.7582 4.89103 22.6862 5.34308C24.6142 5.79514 26.1421 7.38541 26.9821 9.81521C27.7901 12.1481 27.8701 15.0058 27.2141 17.8634C26.5581 20.7211 25.2302 23.2477 23.4862 24.9833C22.0222 26.4444 20.3902 27.2113 18.7982 27.2113ZM21.5822 6.43286C20.3102 6.43286 18.9662 7.07866 17.7262 8.31374C16.1423 9.88786 14.9343 12.2047 14.3263 14.8443C13.7183 17.4759 13.7903 20.0995 14.5183 22.2145C15.2143 24.2406 16.4383 25.5484 17.9502 25.9036C19.4622 26.2587 21.1262 25.6291 22.6382 24.1196C24.2222 22.5454 25.4302 20.2286 26.0381 17.589C26.6461 14.9573 26.5741 12.3338 25.8461 10.2188C25.1502 8.19265 23.9262 6.88492 22.4142 6.52973C22.1422 6.46515 21.8622 6.43286 21.5822 6.43286Z" fill="black"/>
<path d="M19.9457 17.9727C20.4161 15.9318 19.7578 14.0334 18.4754 13.7325C17.193 13.4316 15.7721 14.8421 15.3018 16.883C14.8314 18.9239 15.4897 20.8223 16.7721 21.1233C18.0545 21.4242 19.4754 20.0136 19.9457 17.9727Z" fill="black"/>
</svg>
