<svg xmlns="http://www.w3.org/2000/svg" viewBox="0 0 33.36 33.41"><defs><style>.cls-1{fill:#fff;}</style></defs><g id="아이콘"><polyline class="cls-1" points="18.57 14.95 18.51 8.7 26.47 0.74 26.47 6.9 32.63 6.9 24.57 14.95 18.57 14.95"/><path d="M24.57,15.69h-6a.73.73,0,0,1-.73-.73L17.77,8.7A.77.77,0,0,1,18,8.17L26,.22a.72.72,0,0,1,.8-.16.73.73,0,0,1,.46.68V6.16h5.42a.74.74,0,0,1,.68.45.76.76,0,0,1-.16.81l-8.06,8.05A.71.71,0,0,1,24.57,15.69ZM19.3,14.21h5l6.58-6.58H26.47a.74.74,0,0,1-.74-.73V2.52L19.25,9Z"/><line class="cls-1" x1="26.47" y1="6.9" x2="7.2" y2="26.17"/><path d="M7.2,26.9a.73.73,0,0,1-.52-1.25L26,6.38a.74.74,0,0,1,1,1L7.72,26.69A.75.75,0,0,1,7.2,26.9Z"/><polygon points="13.42 26.2 6.44 27.02 7.09 20.06 0.74 32.68 13.42 26.2"/><path d="M.74,33.41a.73.73,0,0,1-.66-1.06L6.44,19.73a.74.74,0,0,1,.86-.37.73.73,0,0,1,.53.77l-.57,6.05,6.08-.71a.73.73,0,0,1,.42,1.38L1.07,33.33A.64.64,0,0,1,.74,33.41ZM6,23.88,2.41,31l7-3.59-2.91.34a.75.75,0,0,1-.6-.21A.72.72,0,0,1,5.7,27Z"/><path d="M23,10.57h0a.74.74,0,0,1-.74-.74l0-5.15A.74.74,0,0,1,23.06,4h0a.73.73,0,0,1,.73.74l0,5.15A.75.75,0,0,1,23,10.57Z"/><path d="M23.6,11.14a.74.74,0,0,1-.74-.74.75.75,0,0,1,.73-.74l5.15,0h0a.73.73,0,0,1,.74.73.74.74,0,0,1-.74.74l-5.14,0Z"/></g></svg>