<svg width="current" height="current" viewBox="0 0 60 62" fill="none" xmlns="http://www.w3.org/2000/svg">
<path d="M16.1267 12.138C16.4259 11.7596 16.5976 11.2986 16.6177 10.8196C16.6378 10.3405 16.5054 9.86719 16.2388 9.46577C16.4133 9.21118 16.49 8.9038 16.4552 8.59867C16.4476 8.15866 16.3314 7.72708 16.1164 7.34117C15.9014 6.95526 15.5942 6.62662 15.2213 6.38363C14.7849 6.15105 14.3055 6.00682 13.8115 5.95943C13.3175 5.91205 12.8189 5.96247 12.345 6.10773C12.1508 6.17398 11.972 6.27787 11.8192 6.41326C11.6665 6.54866 11.5429 6.7128 11.4557 6.896H11.023C11.5518 6.10773 12.7696 3.92422 11.8242 2.30827C11.4965 1.72938 10.9829 1.27377 10.3638 1.01274C9.74478 0.751715 9.05523 0.700012 8.40312 0.865728C8.04153 0.988196 7.74246 1.24411 7.56905 1.57946C7.39564 1.9148 7.36146 2.30332 7.47373 2.66299C7.87433 4.70461 7.87433 5.45346 6.33603 6.45457C5.73831 6.80633 5.21144 7.26325 4.78171 7.80252C4.14075 7.6291 2.37811 7.27437 1.72914 8.44101C1.43472 9.14177 1.30596 9.89918 1.35258 10.6561C1.35258 11.0029 1.35258 11.397 1.40066 11.8306C1.54487 13.9195 2.20185 14.6211 2.54637 14.8575C3.34757 15.3778 4.76568 14.8575 5.27845 14.6526C5.39084 14.7882 5.51409 14.9147 5.647 15.031C6.82359 16.0693 8.34489 16.6495 9.9254 16.6627H10.5103C12.8337 16.6627 14.3881 16.2685 15.029 15.5118C15.1536 15.3718 15.2466 15.2073 15.3018 15.0293C15.3571 14.8513 15.3733 14.6638 15.3495 14.4792C15.5895 14.3421 15.7949 14.1535 15.9504 13.9274C16.096 13.678 16.1766 13.3971 16.185 13.1096C16.1934 12.8221 16.1293 12.5371 15.9985 12.2799L16.1267 12.138ZM13.1863 14.7945C13.6009 14.8519 14.0216 14.8519 14.4361 14.7945L14.7807 14.7078C14.7616 14.8655 14.6946 15.0138 14.5884 15.1334C14.2519 15.5197 13.2103 16.1582 9.9254 16.0715C8.51566 16.0458 7.16222 15.5227 6.1117 14.5974C5.64826 14.1982 5.258 13.7236 4.95797 13.1943C4.95118 13.177 4.93897 13.1624 4.92311 13.1525C4.90726 13.1425 4.88859 13.1379 4.86984 13.1391V13.1391C4.84724 13.1447 4.82747 13.1582 4.81421 13.177C4.80094 13.1959 4.79509 13.2188 4.79773 13.2416C4.82931 13.5555 4.92178 13.8606 5.07014 14.1402C4.35707 14.4319 3.41166 14.6526 2.95498 14.3609C2.77871 14.2427 2.15378 13.7224 2.06565 11.7596C1.90234 10.721 1.99298 9.65903 2.33004 8.66173C2.72263 7.92864 4.03659 8.14935 4.58942 8.27547C4.48243 8.54748 4.42284 8.8353 4.41316 9.12681C4.4108 9.1507 4.41777 9.17458 4.43265 9.19361C4.44753 9.21264 4.4692 9.2254 4.49328 9.22929C4.51767 9.23402 4.54298 9.22928 4.56389 9.21606C4.58481 9.20283 4.5997 9.18214 4.60545 9.15834C4.79276 8.65429 5.09413 8.19874 5.48676 7.82616C5.87485 7.47492 6.29605 7.16082 6.74464 6.88812C8.54734 5.72148 8.54734 4.6652 8.13071 2.52898C8.05264 2.30091 8.06746 2.05195 8.17204 1.8344C8.27662 1.61685 8.46284 1.44764 8.69156 1.36234C9.21569 1.24018 9.76602 1.28953 10.2591 1.50291C10.7521 1.7163 11.161 2.08207 11.4236 2.54474C12.2969 4.12129 10.6705 6.4861 10.3821 6.86447C10.1543 6.89812 9.92938 6.94818 9.70907 7.01425C9.68712 7.01811 9.66747 7.03002 9.65409 7.04758C9.64071 7.06513 9.63459 7.08702 9.63697 7.10883C9.63863 7.12971 9.64629 7.14969 9.65906 7.16644C9.67183 7.18319 9.68917 7.19601 9.70907 7.20342C11.1282 7.50128 12.5884 7.55992 14.0275 7.37684C14.0491 7.37536 14.0695 7.36678 14.0855 7.35247C14.1015 7.33817 14.1121 7.319 14.1157 7.29802C14.1179 7.27537 14.1129 7.25261 14.1014 7.23286C14.0899 7.2131 14.0725 7.19732 14.0516 7.18767C13.5579 7.01341 13.0377 6.92278 12.5133 6.91965H12.1848C12.305 6.80118 12.4499 6.70975 12.6094 6.65164C13.0062 6.53156 13.4235 6.49131 13.8365 6.53329C14.2494 6.57527 14.6495 6.69863 15.013 6.896C15.3067 7.09608 15.5463 7.36364 15.711 7.67546C15.8758 7.98729 15.9607 8.33395 15.9584 8.68538C15.9721 8.78993 15.9628 8.89615 15.931 8.99682C15.8992 9.09749 15.8457 9.19022 15.7741 9.2687C15.1172 10.057 13.1142 10.3092 13.0981 10.3092C13.0747 10.3128 13.0532 10.3241 13.0372 10.3413C13.0211 10.3585 13.0116 10.3805 13.01 10.4038C13.0089 10.4162 13.0103 10.4288 13.0142 10.4407C13.018 10.4525 13.0242 10.4636 13.0324 10.4731C13.0406 10.4826 13.0506 10.4905 13.0619 10.4962C13.0732 10.5019 13.0855 10.5053 13.0981 10.5063C13.5343 10.5614 13.9759 10.5614 14.4121 10.5063C14.9463 10.4313 15.456 10.2371 15.9023 9.93873C16.0696 10.2255 16.1488 10.5539 16.1303 10.8841C16.1118 11.2142 15.9964 11.532 15.7982 11.799C14.997 12.5873 13.0501 12.808 13.034 12.808C13.0214 12.809 13.0091 12.8125 12.9978 12.8182C12.9865 12.8239 12.9765 12.8317 12.9683 12.8412C12.9601 12.8508 12.9539 12.8618 12.9501 12.8737C12.9462 12.8856 12.9448 12.8981 12.9459 12.9105C12.9475 12.9338 12.957 12.9559 12.9731 12.9731C12.9891 12.9903 13.0106 13.0016 13.034 13.0051V13.0051C13.4831 13.068 13.939 13.068 14.3881 13.0051C14.8056 12.9447 15.2094 12.814 15.5819 12.6189C15.6518 12.7797 15.6838 12.954 15.6754 13.1288C15.6671 13.3035 15.6187 13.4741 15.5338 13.6278C15.005 14.4161 13.2263 14.6526 13.2103 14.6526C13.1855 14.6564 13.163 14.6688 13.1468 14.6877C13.1306 14.7065 13.1219 14.7304 13.1222 14.7551C13.1296 14.7656 13.1391 14.7744 13.1501 14.7812C13.1611 14.788 13.1734 14.7925 13.1863 14.7945V14.7945Z" fill="black" stroke="black" stroke-width="0.3"/>
</svg>
