<svg xmlns="http://www.w3.org/2000/svg" viewBox="0 0 29.78 32.6"><defs><style>.cls-1{fill:#fff;}</style></defs><g id="아이콘"><path d="M4.14,32.6a5.48,5.48,0,0,1-1.24-.13A3.65,3.65,0,0,1,.49,30.78C-.87,28.47.68,24.92,4,22.72a9.76,9.76,0,0,1,3.47-1.47V6.51A.75.75,0,0,1,8,5.8L27.34,0A.72.72,0,0,1,28,.15a.71.71,0,0,1,.3.59V16.52a3.33,3.33,0,0,1,1,1.08h0c1.36,2.31-.19,5.85-3.52,8.06a8.12,8.12,0,0,1-6.06,1.46,3.62,3.62,0,0,1-2.4-1.68c-1.36-2.32.19-5.86,3.52-8.06a9.55,9.55,0,0,1,4-1.55V8.92l-13.8,4v8.64a3.39,3.39,0,0,1,1.49,1.36c1.35,2.31-.2,5.85-3.53,8.06A9,9,0,0,1,4.14,32.6ZM9,7.06V21.89a.73.73,0,0,1-.66.73,8.06,8.06,0,0,0-3.46,1.32c-2.59,1.72-4,4.51-3.07,6.1a2.18,2.18,0,0,0,1.47,1,6.74,6.74,0,0,0,4.91-1.26c2.59-1.71,4-4.5,3.07-6.09A2.1,2.1,0,0,0,10,22.77a.74.74,0,0,1-.51-.7V12.39a.74.74,0,0,1,.53-.7L25.32,7.23a.7.7,0,0,1,.64.12.72.72,0,0,1,.3.59v8.58a.73.73,0,0,1-.72.73,7.67,7.67,0,0,0-3.9,1.35c-2.59,1.72-4,4.51-3.06,6.1a2.16,2.16,0,0,0,1.47,1A6.76,6.76,0,0,0,25,24.43c2.59-1.71,4-4.5,3.06-6.09h0a2,2,0,0,0-.81-.75.73.73,0,0,1-.39-.65V1.73Z"/><path class="cls-1" d="M9,7.06V21.89a.73.73,0,0,1-.66.73,8.06,8.06,0,0,0-3.46,1.32c-2.59,1.72-4,4.51-3.07,6.1a2.18,2.18,0,0,0,1.47,1,6.74,6.74,0,0,0,4.91-1.26c2.59-1.71,4-4.5,3.07-6.09A2.1,2.1,0,0,0,10,22.77a.74.74,0,0,1-.51-.7V12.39a.74.74,0,0,1,.53-.7L25.32,7.23a.7.7,0,0,1,.64.12.72.72,0,0,1,.3.59v8.58a.73.73,0,0,1-.72.73,7.67,7.67,0,0,0-3.9,1.35c-2.59,1.72-4,4.51-3.06,6.1a2.16,2.16,0,0,0,1.47,1A6.76,6.76,0,0,0,25,24.43c2.59-1.71,4-4.5,3.06-6.09h0a2,2,0,0,0-.81-.75.73.73,0,0,1-.39-.65V1.73Z"/><rect x="9.9" y="12.49" width="16.02" height="1.47" transform="translate(-3.05 5.73) rotate(-16.76)"/></g></svg>