<svg xmlns="http://www.w3.org/2000/svg" viewBox="0 0 31.97 32.47"><defs><style>.cls-1{fill:#fff;}</style></defs><g id="아이콘"><path class="cls-1" d="M31.23,3.61C16.55,13.69,12.77,31.74,12.77,31.74a38.88,38.88,0,0,0-12-16.41l4.44-5.4s5.25,5.21,6.78,8.55c0,0,5-13.2,10.51-17.74Z"/><path d="M12.77,32.47a.74.74,0,0,1-.69-.46A38.36,38.36,0,0,0,.31,15.93a.74.74,0,0,1-.14-1.07L4.61,9.47a.77.77,0,0,1,.54-.27.75.75,0,0,1,.55.21,52.1,52.1,0,0,1,6.15,7.35C13.34,13.16,17.44,3.93,22,.17A.74.74,0,0,1,22.7,0l8.76,2.87a.74.74,0,0,1,.19,1.31C17.39,14,13.52,31.71,13.49,31.89a.76.76,0,0,1-.66.58ZM1.79,15.2A40,40,0,0,1,12.6,29.47a54.57,54.57,0,0,1,3.23-8.34A47.17,47.17,0,0,1,29.62,3.86l-7-2.29c-5.18,4.6-9.93,17-10,17.17a.73.73,0,0,1-.66.47.75.75,0,0,1-.7-.43C10.13,16.24,6.61,12.47,5.23,11Z"/></g></svg>