<svg xmlns="http://www.w3.org/2000/svg" viewBox="0 0 30.99 30.43"><defs><style>.cls-1{fill:#fff;}</style></defs><g id="아이콘"><ellipse class="cls-1" cx="9.14" cy="17.09" rx="12.8" ry="8.1" transform="translate(-9.58 22.13) rotate(-76.91)"/><path d="M7.45,30.43a6.32,6.32,0,0,1-1.37-.15C3.72,29.73,1.85,27.8.82,24.85a17.79,17.79,0,0,1-.28-9.76A17.76,17.76,0,0,1,5.1,6.46c2.22-2.19,4.75-3.1,7.11-2.55s4.23,2.48,5.26,5.43a18,18,0,0,1,.28,9.76,17.92,17.92,0,0,1-4.56,8.63A8.34,8.34,0,0,1,7.45,30.43Zm3.4-25.2A7,7,0,0,0,6.13,7.51,16.41,16.41,0,0,0,2,15.43a16.47,16.47,0,0,0,.24,8.94c.86,2.45,2.35,4,4.2,4.47s3.89-.33,5.74-2.16a16.32,16.32,0,0,0,4.16-7.92h0a16.28,16.28,0,0,0-.24-8.94c-.85-2.45-2.34-4-4.19-4.47A4.46,4.46,0,0,0,10.85,5.23Z"/><ellipse cx="6" cy="18.57" rx="4.61" ry="2.92" transform="translate(-13.44 20.21) rotate(-76.91)"/><ellipse class="cls-1" cx="21.84" cy="17.09" rx="12.8" ry="8.1" transform="translate(0.25 34.5) rotate(-76.91)"/><path d="M20.11,30.43a6,6,0,0,1-1.33-.15c-2.36-.55-4.23-2.48-5.26-5.43a17.79,17.79,0,0,1-.28-9.76A17.92,17.92,0,0,1,17.8,6.46c2.22-2.19,4.75-3.1,7.11-2.55s4.23,2.48,5.26,5.43a18,18,0,0,1,.28,9.76C28.92,25.69,24.46,30.43,20.11,30.43Zm3.44-25.2a7,7,0,0,0-4.72,2.28,16.49,16.49,0,0,0-4.16,7.92,16.47,16.47,0,0,0,.24,8.94c.86,2.45,2.35,4,4.2,4.47a4.61,4.61,0,0,0,1,.12c3.67,0,7.49-4.28,8.86-10.2a16.38,16.38,0,0,0-.23-8.94c-.86-2.45-2.35-4-4.2-4.47A4.46,4.46,0,0,0,23.55,5.23Z"/><path d="M17,5.5a.73.73,0,0,1-.65-.39C15.2,3,13.62,1.77,11.86,1.56A5.5,5.5,0,0,0,7.61,3.09.74.74,0,0,1,6.64,2,7,7,0,0,1,12,.1c2.25.26,4.23,1.8,5.58,4.32A.74.74,0,0,1,17,5.5Z"/><path d="M29.51,5.44a.74.74,0,0,1-.65-.38C27.74,3,26.16,1.71,24.41,1.5A5.57,5.57,0,0,0,20.15,3a.74.74,0,1,1-1-1.12A7,7,0,0,1,24.58,0c2.25.27,4.23,1.8,5.58,4.32a.72.72,0,0,1-.65,1.08Z"/><ellipse cx="18.7" cy="18.57" rx="4.61" ry="2.92" transform="translate(-3.62 32.58) rotate(-76.91)"/></g></svg>