<svg xmlns="http://www.w3.org/2000/svg" viewBox="0 0 29.99 32.17"><defs><style>.cls-1{fill:#fff;}</style></defs><g id="아이콘"><ellipse class="cls-1" cx="14.99" cy="16.08" rx="16.14" ry="14.92" transform="translate(-4.07 27.04) rotate(-76.91)"/><path d="M15.5,0V1.47a12.27,12.27,0,0,1,2.82.33,12.84,12.84,0,0,1,8.26,6.29,15.2,15.2,0,0,1,1.51,11A15.43,15.43,0,0,1,23,27.51a13.37,13.37,0,0,1-8.51,3.18A12.59,12.59,0,0,1,3.41,24.08,15.26,15.26,0,0,1,1.89,13,15.53,15.53,0,0,1,7,4.65,13.37,13.37,0,0,1,15.5,1.47V0m0,0C8.59,0,2.21,5.16.46,12.7c-2,8.68,2.85,17.24,10.88,19.1a13.61,13.61,0,0,0,3.15.37c6.91,0,13.29-5.16,15-12.71,2-8.68-2.85-17.23-10.88-19.1A14.16,14.16,0,0,0,15.5,0Z"/><ellipse class="cls-1" cx="14.99" cy="16.08" rx="13.41" ry="12.4" transform="translate(-4.07 27.04) rotate(-76.91)"/><path d="M15.41,2.72V4.2a10.21,10.21,0,0,1,9,5.37,12.4,12.4,0,0,1,1.23,9C24.36,24,19.71,28,14.57,28a10.35,10.35,0,0,1-2.28-.26C6.42,26.34,2.86,20,4.35,13.61,5.62,8.16,10.27,4.2,15.41,4.2V2.72m0,0C9.67,2.73,4.38,7,2.92,13.28c-1.68,7.21,2.37,14.31,9,15.86a11.68,11.68,0,0,0,2.61.3c5.74,0,11-4.28,12.5-10.55C28.74,11.68,24.7,4.58,18,3a11.23,11.23,0,0,0-2.62-.31Z"/><ellipse class="cls-1" cx="14.89" cy="17.02" rx="2.17" ry="1.95" transform="translate(-5.06 27.67) rotate(-76.91)"/><path d="M15,16.34h.07a.37.37,0,0,1,.24.2.87.87,0,0,1,.06.58.67.67,0,0,1-.55.57h-.07a.42.42,0,0,1-.24-.21.81.81,0,0,1-.06-.58.66.66,0,0,1,.55-.57m0-1.47a2.12,2.12,0,0,0-2,1.71,2.07,2.07,0,0,0,1.41,2.55,1.83,1.83,0,0,0,.4.05,2.12,2.12,0,0,0,2-1.72,2.06,2.06,0,0,0-1.4-2.55,1.81,1.81,0,0,0-.4,0Z"/><path d="M20,23.22A.76.76,0,0,1,19.5,23l-5.37-5.67a.76.76,0,0,1-.2-.56l.75-10.31a.74.74,0,1,1,1.47.11l-.73,10L20.57,22A.74.74,0,0,1,20,23.22Z"/><path d="M17.22,9.38a.73.73,0,0,1-.6-.3L15.4,7.39,13.69,9a.74.74,0,0,1-1,0,.73.73,0,0,1,0-1L15,5.74a.74.74,0,0,1,.57-.19.76.76,0,0,1,.53.3l1.7,2.36a.73.73,0,0,1-.16,1A.69.69,0,0,1,17.22,9.38Z"/><path d="M20.82,24h-.07l-2.91-.27A.74.74,0,0,1,18,22.22l2,.19-.16-1.83a.74.74,0,1,1,1.47-.13l.23,2.71a.75.75,0,0,1-.21.59A.73.73,0,0,1,20.82,24Z"/></g></svg>