<svg width="29" height="28" viewBox="0 0 29 28" fill="none" xmlns="http://www.w3.org/2000/svg">
<path d="M20.5577 27.56H1.84223C1.49732 27.56 1.22632 27.2808 1.22632 26.9441C1.22632 26.5992 1.50553 26.3282 1.84223 26.3282H20.5577C20.9026 26.3282 21.1736 26.6074 21.1736 26.9441C21.1736 27.2808 20.9026 27.56 20.5577 27.56Z" fill="black"/>
<path d="M4.36402 20.1447L1.60474 26.8869L8.39619 24.7928L25.4446 7.74438L20.7226 3.02239C20.7226 3.02239 4.29832 20.0872 4.36402 20.1447Z" fill="#5CE8A4"/>
<path d="M2.99622 24.5L4.49622 20.5L6.99622 21L6.8144 22H8.49622L7.99622 24.5L4.99622 25.5L2.99622 24.5Z" fill="white"/>
<path d="M23.9962 6L6.99622 23L3.99622 20.5L19.9962 3L23.9962 6Z" fill="white"/>
<path d="M1.60432 27.5027C1.43186 27.5027 1.26761 27.4288 1.14443 27.3056C0.980188 27.1332 0.939128 26.8786 1.02946 26.6569L3.78875 19.9147H3.79696C3.87087 19.7504 4.00226 19.6026 4.0926 19.5123C4.21578 19.3727 4.40466 19.1756 4.65103 18.921C5.12733 18.4118 5.80894 17.6974 6.63015 16.8351C8.0837 15.3159 10.1121 13.1971 12.6579 10.5446C17.0514 5.97864 21.4449 1.41268 21.4449 1.41268C21.5599 1.2895 21.7159 1.2238 21.8801 1.2238C21.8801 1.2238 21.8801 1.2238 21.8883 1.2238C22.0526 1.2238 22.2086 1.2895 22.3236 1.40447L27.0456 6.12646C27.2837 6.36461 27.2837 6.7588 27.0456 6.99695L8.8228 25.2197C8.74889 25.2936 8.66677 25.3429 8.56822 25.3758L1.78498 27.4781C1.72749 27.4945 1.6618 27.5027 1.60432 27.5027ZM4.89739 20.4649L2.67189 25.9178L8.06728 24.2589L25.7481 6.57813L21.9048 2.73484C15.2611 9.60842 5.71039 19.5451 4.89739 20.4649ZM4.96309 20.2842C4.95487 20.3171 4.94666 20.3499 4.93024 20.3746L4.92202 20.3992C4.93845 20.3663 4.95487 20.3335 4.96309 20.2842ZM4.79884 19.7094C4.86454 19.7751 4.91381 19.849 4.93845 19.9311C4.91381 19.8572 4.86454 19.7833 4.79884 19.7094Z" fill="black"/>
<path d="M27.1008 2.57059C26.5999 1.93826 25.9265 1.29771 25.9265 1.29771C24.1609 -0.467907 22.0093 1.78222 22.0093 1.78222L26.682 6.45494C26.682 6.45494 28.8664 4.8043 27.1008 2.57059Z" fill="white"/>
<path d="M26.6835 7.07067C26.5275 7.07067 26.3632 7.01318 26.2482 6.89L21.5755 2.21728C21.3374 1.97913 21.3374 1.59316 21.5673 1.35501C21.6166 1.29752 22.8648 0.0164243 24.3759 0C24.3841 0 24.4005 0 24.4087 0C25.1396 0 25.8048 0.287425 26.3714 0.854064C26.3879 0.870489 27.0695 1.52746 27.595 2.18443C28.2356 2.99744 28.4984 3.83508 28.3916 4.68914C28.2192 6.05236 27.1105 6.90642 27.0613 6.93927C26.9463 7.02961 26.8149 7.07067 26.6835 7.07067ZM22.9305 1.81489L26.6917 5.57605C26.897 5.32148 27.1105 4.96014 27.168 4.5249C27.2337 4.01574 27.0448 3.48195 26.626 2.94816C26.1661 2.35689 25.5174 1.74098 25.5174 1.74098C25.1725 1.39607 24.8193 1.24004 24.4169 1.24004C24.4087 1.24004 24.4087 1.24004 24.4005 1.24004C23.8339 1.24004 23.2919 1.5521 22.9305 1.81489Z" fill="black"/>
<path d="M24.8036 8.24486C24.6476 8.24486 24.4915 8.18738 24.3684 8.0642L20.1309 3.82672C19.8927 3.58857 19.8927 3.19439 20.1309 2.95623C20.369 2.71808 20.7632 2.71808 21.0014 2.95623L25.2388 7.19371C25.477 7.43186 25.477 7.82604 25.2388 8.0642C25.1157 8.17917 24.9596 8.24486 24.8036 8.24486Z" fill="black"/>
<path d="M8.44797 25.021C8.44028 25.021 8.43259 25.021 8.4249 25.021C8.10199 25.0057 7.85596 24.7366 7.87134 24.4213L7.93285 22.7914L6.80265 22.9375C6.61045 22.9605 6.41824 22.8914 6.29522 22.7453C6.16452 22.5992 6.11839 22.3993 6.17221 22.2148L6.4413 21.1845L4.59609 21.2614C4.27318 21.2691 4.00409 21.0308 3.9964 20.7079C3.98871 20.3849 4.22705 20.1159 4.54996 20.1082L7.17938 20.0005C7.3639 19.9928 7.54074 20.0697 7.65606 20.2158C7.77139 20.3619 7.80983 20.5464 7.7637 20.7232L7.51767 21.6766L8.47872 21.5536C8.64786 21.5305 8.81701 21.5843 8.94002 21.6997C9.06304 21.815 9.13224 21.9764 9.12455 22.1456L9.03228 24.4598C9.00922 24.7827 8.7555 25.021 8.44797 25.021Z" fill="black"/>
<path d="M8.61727 22.4459C8.46124 22.4459 8.30521 22.3884 8.18203 22.2652C7.93567 22.0271 7.93566 21.6329 8.17382 21.3947C8.25594 21.3126 23.2185 6.18581 23.2185 6.18581C23.4566 5.93945 23.8508 5.93945 24.089 6.1776C24.3353 6.41575 24.3353 6.80994 24.0972 7.04809C24.0972 7.04809 9.12643 22.1749 9.05252 22.257C8.92933 22.3884 8.7733 22.4459 8.61727 22.4459Z" fill="black"/>
<path d="M6.61727 21.4459C6.46124 21.4459 6.30521 21.3884 6.18203 21.2652C5.93567 21.0271 5.93566 20.6329 6.17382 20.3947C6.25594 20.3126 11.1257 15.5082 11.1257 15.5082C11.3639 15.2618 11.7581 15.2618 11.9962 15.5C12.2426 15.7382 12.2426 16.1323 12.0044 16.3705C12.0044 16.3705 7.12643 21.1749 7.05252 21.257C6.92933 21.3884 6.7733 21.4459 6.61727 21.4459Z" fill="black"/>
<path d="M3.06577 24.111L4.45362 25.4989L1.604 26.8867L3.06577 24.111Z" fill="black"/>
<path d="M1.60423 27.5025C1.43998 27.5025 1.27574 27.4368 1.16077 27.3136C0.971889 27.1248 0.930826 26.8291 1.06222 26.5992L2.52398 23.8235C2.61432 23.651 2.78677 23.5278 2.97565 23.5032C3.17275 23.4704 3.36984 23.536 3.50123 23.6757L4.88909 25.0635C5.0287 25.2031 5.09439 25.4084 5.06154 25.6055C5.02869 25.8026 4.90551 25.9751 4.72484 26.0572L1.87522 27.445C1.78489 27.4861 1.69456 27.5025 1.60423 27.5025ZM3.22202 25.1456L3.03314 25.507L3.40268 25.3263L3.22202 25.1456Z" fill="black"/>
<path d="M26.6842 6.45487L25.2389 8.06445L20.6565 3.60525L21.8062 2.16812L26.6842 6.45487Z" fill="black"/>
</svg>
