<svg width="current" height="current" viewBox="0 0 25 33" fill="none" xmlns="http://www.w3.org/2000/svg">
<path fill-rule="evenodd" clip-rule="evenodd" d="M23.4585 13.9711L1 1L3.88509 26.7742L10.0349 22.7516L16.1209 31.6823L23.5601 26.6127L17.57 17.8228L23.4585 13.9711Z" fill="white"/>
<path d="M1 1L1.35009 0.393837C1.1214 0.261752 0.837833 0.269624 0.616818 0.414191C0.395803 0.558759 0.274966 0.815411 0.304345 1.07787L1 1ZM23.4585 13.9711L23.8417 14.5569C24.0451 14.4238 24.1649 14.1947 24.1582 13.9516C24.1515 13.7086 24.0191 13.4865 23.8086 13.3649L23.4585 13.9711ZM3.88509 26.7742L3.18944 26.852C3.21648 27.0937 3.36695 27.3039 3.58691 27.4075C3.80687 27.5111 4.06481 27.4931 4.26827 27.36L3.88509 26.7742ZM10.0349 22.7516L10.6133 22.3574C10.3985 22.0422 9.97088 21.957 9.65167 22.1658L10.0349 22.7516ZM16.1209 31.6823L15.5424 32.0765C15.7601 32.396 16.1956 32.4785 16.5151 32.2607L16.1209 31.6823ZM23.5601 26.6127L23.9543 27.1912C24.1077 27.0866 24.2133 26.9254 24.2478 26.743C24.2824 26.5606 24.2431 26.3719 24.1385 26.2185L23.5601 26.6127ZM17.57 17.8228L17.1868 17.237C17.0295 17.3398 16.9202 17.5017 16.8835 17.686C16.8468 17.8703 16.8857 18.0617 16.9915 18.217L17.57 17.8228ZM0.649906 1.60616L23.1084 14.5772L23.8086 13.3649L1.35009 0.393837L0.649906 1.60616ZM4.58075 26.6963L1.69566 0.92213L0.304345 1.07787L3.18944 26.852L4.58075 26.6963ZM9.65167 22.1658L3.50191 26.1884L4.26827 27.36L10.418 23.3374L9.65167 22.1658ZM16.6993 31.2881L10.6133 22.3574L9.4564 23.1458L15.5424 32.0765L16.6993 31.2881ZM23.1659 26.0343L15.7267 31.1038L16.5151 32.2607L23.9543 27.1912L23.1659 26.0343ZM16.9915 18.217L22.9816 27.0069L24.1385 26.2185L18.1485 17.4286L16.9915 18.217ZM23.0753 13.3853L17.1868 17.237L17.9532 18.4086L23.8417 14.5569L23.0753 13.3853Z" fill="black"/>
</svg>
