<svg width="current" height="current" viewBox="0 0 37 29" fill="none" xmlns="http://www.w3.org/2000/svg">
<path d="M30.9063 18.78H7.03625V5.57999C7.03625 3.90999 8.39625 2.53999 10.0763 2.53999H27.8663C29.5363 2.53999 30.9063 3.89999 30.9063 5.57999V18.78Z" fill="white"/>
<path d="M33.7462 21.32H4.20618V5.61C4.20618 2.52 6.71618 0 9.80618 0H28.1362C31.2262 0 33.7462 2.52 33.7462 5.61V21.32Z" fill="white"/>
<path d="M1.76622 26.29C1.78622 26.89 2.26622 27.45 2.96622 27.45L35.0062 27.37C35.6862 27.37 36.1362 26.86 36.1962 26.29V25.1H1.74622L1.76622 26.29Z" fill="white"/>
<path d="M2.96622 28.18C1.92622 28.18 1.07622 27.36 1.03622 26.32V26.31L0.996216 24.37H36.9362V26.36C36.8262 27.36 36.0262 28.09 35.0262 28.09L2.96622 28.18C2.97622 28.18 2.96622 28.18 2.96622 28.18ZM2.50622 26.26C2.51622 26.44 2.64622 26.71 2.97622 26.71L35.0162 26.63C35.3262 26.63 35.4462 26.39 35.4762 26.23V25.83H2.49622L2.50622 26.26Z" fill="black"/>
<path d="M33.7462 21.32H4.20618V5.61C4.20618 2.52 6.71618 0 9.80618 0H28.1362C31.2262 0 33.7462 2.52 33.7462 5.61V21.32ZM5.66618 19.86H32.2862V5.61C32.2862 3.32 30.4262 1.47 28.1462 1.47H9.80618C7.51618 1.47 5.66618 3.33 5.66618 5.61V19.86Z" fill="black"/>
<path d="M30.9063 18.78H7.03625V5.57999C7.03625 3.90999 8.39625 2.53999 10.0763 2.53999H27.8663C29.5363 2.53999 30.9063 3.89999 30.9063 5.57999V18.78ZM8.50626 17.31H29.4463V5.57999C29.4463 4.70999 28.7363 4.00999 27.8763 4.00999H10.0763C9.20625 4.00999 8.50626 4.71999 8.50626 5.57999V17.31Z" fill="black"/>
<path d="M4.72624 20.64L2.06624 23.44C1.33624 24.21 1.88624 25.47 2.93624 25.47L35.0062 25.39C36.1362 25.39 36.6362 23.98 35.7662 23.26L32.9462 20.72C32.9562 20.72 4.16624 20.64 4.72624 20.64Z" fill="white"/>
<path d="M2.93623 26.2C2.15623 26.2 1.47623 25.75 1.16623 25.03C0.856235 24.31 0.996235 23.5 1.54623 22.93L4.22623 20.35V19.9H6.44623C12.5162 19.92 32.7262 19.97 32.9662 19.97H33.2462L36.2562 22.69C36.8862 23.21 37.1062 24.05 36.8362 24.82C36.5562 25.6 35.8462 26.1 35.0262 26.1L2.93623 26.2ZM5.04623 21.38L2.59623 23.95C2.40623 24.15 2.46623 24.37 2.50623 24.46C2.54623 24.55 2.65623 24.74 2.93623 24.74L35.0062 24.66C35.3062 24.66 35.4162 24.44 35.4462 24.35C35.4762 24.26 35.5362 24.02 35.3062 23.83L35.2762 23.81L32.6662 21.45L5.04623 21.38Z" fill="black"/>
<path d="M23.3762 24.13H14.5662C14.1662 24.13 13.8362 23.8 13.8362 23.4C13.8362 23 14.1662 22.67 14.5662 22.67H23.3762C23.7762 22.67 24.1062 23 24.1062 23.4C24.1062 23.8 23.7862 24.13 23.3762 24.13Z" fill="black"/>
<path d="M15.9962 8L17.9962 7L19.4962 7.5L21.4962 7L22.9962 8.5V11.5L20.4962 14L19.4962 13.5H18.4962L16.9962 14L15.4962 13.5L14.9962 11L15.9962 8Z" fill="#5CE8A4"/>
<path d="M16.7362 14.93C16.5562 14.93 16.3662 14.91 16.1962 14.87C15.2762 14.66 14.5662 13.95 14.1962 12.88C13.8762 11.97 13.8462 10.88 14.0962 9.8C14.3462 8.72 14.8662 7.75 15.5462 7.08C16.3562 6.29 17.3062 5.97 18.2162 6.18C18.6262 6.27 18.9962 6.48 19.3262 6.76C20.0262 6.24 20.8162 6.04 21.5662 6.22C22.4762 6.43 23.1862 7.13 23.5562 8.19C23.8662 9.09 23.9062 10.17 23.6562 11.24C23.4262 12.22 22.9662 13.12 22.3662 13.77C21.7062 14.49 20.9062 14.88 20.1062 14.88C19.9262 14.88 19.7462 14.86 19.5662 14.82C19.1762 14.73 18.8162 14.55 18.5062 14.28C17.9462 14.71 17.3462 14.93 16.7362 14.93ZM17.6662 7.75C17.2562 7.75 16.8962 8.05 16.6962 8.24C16.2262 8.7 15.8762 9.38 15.6962 10.17C15.5162 10.95 15.5362 11.72 15.7462 12.34C15.8462 12.64 16.0962 13.16 16.5762 13.27C16.6362 13.28 16.6862 13.29 16.7462 13.29C17.1262 13.29 17.5562 13.02 17.9362 12.56C18.1062 12.35 18.3662 12.24 18.6362 12.26C18.9062 12.28 19.1462 12.44 19.2762 12.67C19.4462 12.98 19.6662 13.17 19.9262 13.23C19.9762 13.24 20.0362 13.25 20.0962 13.25C20.7662 13.25 21.7062 12.34 22.0462 10.87C22.2262 10.1 22.2062 9.34 21.9962 8.73C21.8962 8.43 21.6462 7.92 21.1862 7.82C20.7862 7.73 20.2962 7.98 19.8662 8.5C19.6962 8.71 19.4262 8.82 19.1562 8.79C18.8862 8.76 18.6462 8.61 18.5162 8.37C18.3962 8.14 18.1762 7.86 17.8462 7.78C17.7862 7.76 17.7262 7.75 17.6662 7.75Z" fill="black"/>
</svg>
