<svg xmlns="http://www.w3.org/2000/svg" viewBox="0 0 39.5 25"><defs><style>.cls-1{fill:#fff;}</style></defs><g id="아이콘"><polygon class="cls-1" points="15.23 6.82 29.48 2.79 33.23 6.68 33.39 15.21 22.07 21.11 16.8 19.87 13.23 14.59 15.23 6.82"/><path class="cls-1" d="M29.48,2.79s1.19-1.8,4.64.36A9.81,9.81,0,0,1,38.5,13.94s-1.59,6.48-4,3.72"/><path d="M35.7,19.08A2.3,2.3,0,0,1,34,18.15a.74.74,0,0,1,.08-1,.73.73,0,0,1,1,.07c.19.22.46.48.69.42.68-.16,1.59-2.1,2-3.82a9,9,0,0,0-4-10l0,0c-2.73-1.71-3.62-.61-3.65-.56l-.6-.42-.62-.41c.07-.1,1.64-2.36,5.64.14A10.62,10.62,0,0,1,39.22,14.1v0C39,14.86,38,18.57,36.11,19A1.7,1.7,0,0,1,35.7,19.08Z"/><path class="cls-1" d="M12.5,9.63c-9.42,3-11.55-4-11.55-4C-.64-.45,7.06,1.59,7.06,1.59s6.1,2,11.94-.24c0,0,7.69-2.64,11.54,2.88"/><path d="M8.14,11.11a8.94,8.94,0,0,1-4.18-1A7.79,7.79,0,0,1,.25,5.88v0C-.24,4,0,2.61.94,1.67a5.07,5.07,0,0,1,4-1.13A11.08,11.08,0,0,1,7.25.88h0c.06,0,5.93,1.92,11.44-.23h0C18.84.62,27-2.1,31.14,3.81a.73.73,0,0,1-.18,1,.75.75,0,0,1-1-.18,7.64,7.64,0,0,0-6.57-3.19A13.28,13.28,0,0,0,19.25,2a20,20,0,0,1-12.4.25C5.85,2,3.08,1.62,2,2.72c-.54.53-.65,1.46-.32,2.74a6.51,6.51,0,0,0,3,3.4c2,1,4.53,1,7.6.06a.74.74,0,1,1,.45,1.41A15.33,15.33,0,0,1,8.14,11.11Z"/><path class="cls-1" d="M14.62,7.23s-5.71,3.84-.13,9.23"/><path d="M14.49,17.2A.75.75,0,0,1,14,17c-1.92-1.86-2.81-3.79-2.64-5.72a6.93,6.93,0,0,1,2.88-4.66.75.75,0,0,1,1,.2.74.74,0,0,1-.2,1,5.5,5.5,0,0,0-2.24,3.57c-.12,1.46.62,3,2.21,4.52A.74.74,0,0,1,15,17,.7.7,0,0,1,14.49,17.2Z"/><path class="cls-1" d="M16.87,14.08a6,6,0,0,0-.69,8.25,4.61,4.61,0,0,0,3,1.86,2.41,2.41,0,0,0,2.9-1.29"/><path d="M19.87,25a5.18,5.18,0,0,1-.85-.08,5.45,5.45,0,0,1-3.44-2.16,6.67,6.67,0,0,1,.82-9.24.73.73,0,1,1,1,1.12,5.25,5.25,0,0,0-.57,7.26,3.93,3.93,0,0,0,2.49,1.57c1.43.25,1.89-.38,2.11-.87a.73.73,0,1,1,1.34.6A2.92,2.92,0,0,1,19.87,25Z"/><path class="cls-1" d="M19.79,21.05S24,26.27,30.94,22.44c0,0,5.17-2.9,3.58-11.49"/><path d="M26,24.57a9.39,9.39,0,0,1-6.8-3.06.74.74,0,1,1,1.14-.93c.17.2,4,4.68,10.22,1.21.19-.1,4.68-2.79,3.21-10.71a.74.74,0,0,1,.59-.86.73.73,0,0,1,.86.59c1.67,9-3.71,12.14-3.94,12.27A10.84,10.84,0,0,1,26,24.57Z"/><path d="M18.16,6.8a.75.75,0,0,1-.69-.47.73.73,0,0,1,.41-1,3.49,3.49,0,0,1,2.06-.11.74.74,0,0,1,.52.91.73.73,0,0,1-.9.51,2.14,2.14,0,0,0-1.13,0A.66.66,0,0,1,18.16,6.8Z"/><path d="M20.56,13.48a.74.74,0,0,1-.38-1.37,4.59,4.59,0,0,1,2.64-.54A.73.73,0,0,1,22.65,13a3.06,3.06,0,0,0-1.71.34A.76.76,0,0,1,20.56,13.48Z"/></g></svg>