<svg xmlns="http://www.w3.org/2000/svg" viewBox="0 0 29.99 32.17"><defs><style>.cls-1{fill:#fff;}</style></defs><g id="아이콘"><ellipse class="cls-1" cx="14.99" cy="16.08" rx="16.14" ry="14.92" transform="translate(-4.07 27.04) rotate(-76.91)"/><path d="M15.5,0V1.47a12.27,12.27,0,0,1,2.82.33c7.22,1.68,11.61,9.45,9.77,17.33A15.43,15.43,0,0,1,23,27.51a13.37,13.37,0,0,1-8.51,3.18A12.59,12.59,0,0,1,3.41,24.08,15.26,15.26,0,0,1,1.89,13,15.53,15.53,0,0,1,7,4.65,13.37,13.37,0,0,1,15.5,1.47V0m0,0C8.59,0,2.21,5.16.46,12.7c-2,8.68,2.85,17.24,10.88,19.1a13.61,13.61,0,0,0,3.15.37c6.91,0,13.29-5.16,15-12.71,2-8.68-2.85-17.23-10.88-19.1A14.16,14.16,0,0,0,15.5,0Z"/><path d="M14.11,27a2,2,0,0,1-.49-.06,1.6,1.6,0,0,1-1.06-.75c-.54-.93,0-2.3,1.22-3.12a3.41,3.41,0,0,1,1.41-.54l.19,0h0a3.08,3.08,0,0,1,.51,0,1.74,1.74,0,0,1,.57.19,1.59,1.59,0,0,1,.58.57c.54.93,0,2.3-1.23,3.12A3.21,3.21,0,0,1,14.11,27Zm1.29-3h0a1.83,1.83,0,0,0-.78.31c-.65.43-.85,1-.77,1.15s.1.05.12.06A1.5,1.5,0,0,0,15,25.2c.64-.43.85-1,.76-1.15s0,0,0,0,0,0-.06,0Z"/><path d="M15.84,6.8a69.3,69.3,0,0,0-1.25,13.1c0,.43.68.39.68,0A67.58,67.58,0,0,1,16.51,6.93.34.34,0,0,0,15.84,6.8Z"/><path d="M14.91,20.81a1,1,0,0,1-.48-.12A.9.9,0,0,1,14,19.9,68.86,68.86,0,0,1,15.24,6.68h0a.91.91,0,0,1,.61-.7,1,1,0,0,1,1,.18.92.92,0,0,1,.29.89,67.21,67.21,0,0,0-1.23,12.8.91.91,0,0,1-.47.83A1,1,0,0,1,14.91,20.81Zm.3-.91Z"/></g></svg>