<svg xmlns="http://www.w3.org/2000/svg" viewBox="0 0 29.99 32.17"><defs><style>.cls-1{fill:#fff;}</style></defs><g id="아이콘"><path class="cls-1" d="M25.81,15.7h0a9.19,9.19,0,0,0-4.69-3h0a3.81,3.81,0,0,0,.51-.81.5.5,0,0,0,.05-.13h0A13.2,13.2,0,0,0,23,8a7.21,7.21,0,0,0-.21-3.54,6.44,6.44,0,0,0-3-3.61l0,0a3.47,3.47,0,0,0-3.53,0,4.32,4.32,0,0,0-1.64,3.09,9.91,9.91,0,0,0,0,2h0a13.2,13.2,0,0,1,.11,1.9.66.66,0,0,1,0,.14c-.21,1.78-2.49,1.94-3.86,2.53a8.55,8.55,0,0,0-3.29,2.61l0-.06a2.33,2.33,0,0,0-.58-.55c-.17-.13-1.61-1-3.54,1.42a9.91,9.91,0,0,0-.91,9.26v0c.29.48,1.33,2.91,2.8,2.84a1.81,1.81,0,0,0,.31,0,1.45,1.45,0,0,0,.29-.13,6.54,6.54,0,0,0,3,3.3,10,10,0,0,0,4.32,1.46,10.11,10.11,0,0,0,3-.21,2.53,2.53,0,0,0,2.19,1.27,3.48,3.48,0,0,0,.72,0,4.07,4.07,0,0,0,2.8-1.21,4.49,4.49,0,0,0,1.39-4,.67.67,0,0,0,.23-.1c1.69-1.24,2.53-2.59,2.48-4a3.4,3.4,0,0,0-.09-.65,3.76,3.76,0,0,0,1.28-2.05A5,5,0,0,0,25.81,15.7Z"/><path d="M25.81,15.7h0a9.19,9.19,0,0,0-4.69-3h0a3.81,3.81,0,0,0,.51-.81.5.5,0,0,0,.05-.13h0A13.2,13.2,0,0,0,23,8a7.21,7.21,0,0,0-.21-3.54,6.44,6.44,0,0,0-3-3.61l0,0a3.47,3.47,0,0,0-3.53,0,4.32,4.32,0,0,0-1.64,3.09,9.91,9.91,0,0,0,0,2h0a13.2,13.2,0,0,1,.11,1.9.66.66,0,0,1,0,.14c-.21,1.78-2.49,1.94-3.86,2.53a8.55,8.55,0,0,0-3.29,2.61l0-.06a2.33,2.33,0,0,0-.58-.55c-.17-.13-1.61-1-3.54,1.42a9.91,9.91,0,0,0-.91,9.26v0c.29.48,1.33,2.91,2.8,2.84a1.81,1.81,0,0,0,.31,0,1.45,1.45,0,0,0,.29-.13,6.54,6.54,0,0,0,3,3.3,10,10,0,0,0,4.32,1.46,10.11,10.11,0,0,0,3-.21,2.53,2.53,0,0,0,2.19,1.27,3.48,3.48,0,0,0,.72,0,4.07,4.07,0,0,0,2.8-1.21,4.49,4.49,0,0,0,1.39-4,.67.67,0,0,0,.23-.1c1.69-1.24,2.53-2.59,2.48-4a3.4,3.4,0,0,0-.09-.65,3.76,3.76,0,0,0,1.28-2.05A5,5,0,0,0,25.81,15.7ZM8,14.69s0,0,0-.06.05-.17.07-.24a6,6,0,0,1,2.11-2.28,18.83,18.83,0,0,1,3.08-1.27c1.5-.6,2.42-1.11,2.56-2.82V8a17.82,17.82,0,0,0-.09-2.26c-.08-.85.12-3.17,1.18-3.92A2.33,2.33,0,0,1,19.21,2a5.32,5.32,0,0,1,2.37,2.92,8.46,8.46,0,0,1-1,6.36,0,0,0,0,1,0,0h0a3.46,3.46,0,0,1-.9,1.15h0a5.34,5.34,0,0,0-.69-.05.54.54,0,0,0,0,1.08,7.64,7.64,0,0,1,5.91,2.86v0a4.05,4.05,0,0,1,1,3,2.5,2.5,0,0,1-.58,1.13,6.08,6.08,0,0,0-1.57-1.69.68.68,0,0,0-.86.09.49.49,0,0,0,.11.75,4,4,0,0,1,1.68,2.71,3.8,3.8,0,0,1-1.84,3,5.09,5.09,0,0,0-1.25-1.66.68.68,0,0,0-.87,0,.5.5,0,0,0,0,.76,3.49,3.49,0,0,1,.12,5.28,2.84,2.84,0,0,1-2,.84c-1.05.09-1.45-.26-1.64-.6a7.29,7.29,0,0,0,1.78-1,.5.5,0,0,0,0-.77.68.68,0,0,0-.86,0c-.15.14-3.84,2.74-8.86-.14-.15-.09-3.9-2.15-2.29-7.86a.55.55,0,0,0-.45-.66.62.62,0,0,0-.74.39,10.09,10.09,0,0,0-.3,4.65.17.17,0,0,1-.05.15.43.43,0,0,1-.31,0c-.26-.05-.38-.13-.69-.57a7.88,7.88,0,0,1-1.6-3.91,8.7,8.7,0,0,1,1.27-5.7l.08-.09c1.31-1.66,2-1.17,2-1.18h0a1.42,1.42,0,0,1,.59.71.56.56,0,0,1,0,.36c0,.12,0,.3-.06.41a.63.63,0,0,0,.62.62A.64.64,0,0,0,8,14.78Z"/><path d="M20.28,17.37A2.93,2.93,0,0,0,18.61,17a.61.61,0,1,0,.09,1.22,1.81,1.81,0,0,1,.91.22.56.56,0,0,0,.21.09.61.61,0,0,0,.46-1.11Z"/><path d="M18.12,22.07A3.92,3.92,0,0,0,16,21.48.61.61,0,1,0,16,22.7a2.61,2.61,0,0,1,1.41.37.58.58,0,0,0,.3.11.64.64,0,0,0,.55-.26A.62.62,0,0,0,18.12,22.07Z"/></g></svg>

