<svg width="current" height="current" viewBox="0 0 51 51" fill="none" xmlns="http://www.w3.org/2000/svg">
<path d="M40.5806 28.3345L31.8467 20.0902L23.1832 18.9574L19.1728 23.1258L18.3863 25.3631L20.224 33.8388L33.6236 37.087L39.1091 32.0899L40.5806 28.3345Z" fill="white"/>
<path d="M39.4262 25.5386C39.4262 25.5386 41.6272 25.0901 42.5641 29.2093C42.5641 29.2093 44.5621 35.9733 37.8333 40.3608C37.8333 40.3608 31.8965 43.9562 32.1816 40.1807" fill="white"/>
<path d="M32.0064 42.0795C31.6473 41.7204 31.3532 41.1239 31.4264 40.1171C31.4556 39.7 31.8228 39.376 32.247 39.4114C32.664 39.4397 32.9872 39.806 32.9507 40.2303C32.9287 40.5396 32.9426 40.9278 33.151 41.0498C33.769 41.423 35.8624 40.6654 37.4383 39.7215C43.5698 35.7159 41.9089 29.6921 41.8373 29.4333L41.823 29.3902C41.0791 26.1264 39.6192 26.2936 39.5545 26.3009L39.4259 25.5532L39.2759 24.7984C39.3981 24.7766 42.2104 24.2627 43.3119 29.036C43.455 29.5823 45.1292 36.5266 38.2565 41.0148L38.2349 41.022C37.5513 41.4328 34.0901 43.4288 32.344 42.3595C32.2291 42.2734 32.1142 42.1872 32.0064 42.0795Z" fill="black"/>
<path d="M21.9387 18.1032C12.8265 13.3972 16.3797 6.72701 16.3797 6.72701C19.7088 1.05661 23.8563 8.19918 23.8563 8.19918C23.8563 8.19918 26.8332 14.1711 32.7912 16.774C32.7912 16.774 40.3801 20.4752 39.1421 27.3583" fill="white"/>
<path d="M17.6493 16.0019C16.5074 14.8599 15.7251 13.6025 15.2954 12.2224C14.3069 9.04528 15.6476 6.46935 15.7124 6.36141L15.7268 6.33262C16.7284 4.62718 17.9304 3.77001 19.311 3.76832C20.5406 3.77401 21.7981 4.46998 23.062 5.84906C23.9381 6.81156 24.4978 7.77444 24.5194 7.81037L24.5481 7.85348C24.5768 7.91097 27.4892 13.6169 33.1022 16.0765L33.131 16.0908C33.21 16.1267 41.2157 20.1293 39.898 27.4943C39.8255 27.9115 39.4225 28.1852 39.0055 28.1138C38.5886 28.0424 38.3158 27.6401 38.3882 27.2229C39.4815 21.1022 32.7839 17.6301 32.4677 17.4723C26.4667 14.8406 23.432 9.0557 23.1881 8.56703C22.6428 7.64727 20.9198 5.30519 19.3019 5.29997C18.5109 5.30094 17.7552 5.8987 17.0562 7.08603C16.9841 7.24432 15.9893 9.31648 16.7628 11.7892C17.4505 13.9887 19.3106 15.8776 22.2857 17.4128C22.6665 17.6065 22.8098 18.0665 22.608 18.4407C22.4134 18.822 21.953 18.9664 21.5793 18.7655C19.9983 17.9621 18.6835 17.0361 17.6493 16.0019Z" fill="black"/>
<path d="M25.2622 17.8974C25.2622 17.8974 18.2528 16.5326 18.3724 24.5861Z" fill="white"/>
<path d="M17.833 25.1411C17.6966 25.0047 17.6105 24.8178 17.6108 24.6165C17.571 21.8265 18.3286 19.7618 19.8762 18.4728C22.1652 16.5572 25.2781 17.1359 25.4147 17.1573C25.8245 17.2359 26.0972 17.6382 26.0176 18.0482C25.938 18.4582 25.535 18.7319 25.1252 18.6533C25.0749 18.6462 22.5659 18.1962 20.8599 19.6437C19.6938 20.623 19.1165 22.292 19.1496 24.5858C19.1563 25.0101 18.8179 25.3628 18.4008 25.3633C18.1707 25.3636 17.9695 25.2776 17.833 25.1411Z" fill="black"/>
<path d="M21.8735 24.5893C21.8735 24.5893 16.3012 24.1431 15.2943 30.1486C15.0987 31.3353 15.3488 32.6222 16.1025 33.6927C16.7557 34.6195 17.7615 35.4093 19.1787 34.8682" fill="white"/>
<path d="M16.051 34.8224C15.8499 34.6213 15.6632 34.3914 15.4837 34.1399C14.6582 32.9545 14.3149 31.4592 14.554 30.028C15.4377 24.7345 19.7751 23.6577 21.9465 23.8277C22.3707 23.8631 22.6794 24.2294 22.643 24.6537C22.6065 25.0781 22.2394 25.3877 21.8224 25.3594C21.6139 25.3381 16.9258 25.0706 16.0637 30.285C15.8899 31.3207 16.1402 32.4062 16.736 33.2611C17.6046 34.4897 18.3885 34.3665 18.9137 34.1717C19.3094 34.0202 19.7478 34.2138 19.8983 34.6091C20.0488 35.0045 19.8541 35.4433 19.4585 35.5948C18.2067 36.0709 17.0205 35.792 16.051 34.8224Z" fill="black"/>
<path d="M18.9021 31.8562C18.9021 31.8562 18.1745 38.8178 26.0528 41.0517C26.0528 41.0517 31.976 42.7127 37.1338 35.228" fill="white"/>
<path d="M20.8713 39.0085C17.7615 35.8987 18.126 31.8283 18.1405 31.7707C18.1841 31.3536 18.5656 31.044 18.9826 31.0866C19.3996 31.1292 19.7012 31.5028 19.6647 31.9271C19.6356 32.186 19.1248 38.2844 26.2628 40.3107C26.4785 40.3679 31.7477 41.6918 36.4948 34.79C36.7326 34.4374 37.2073 34.3505 37.5593 34.5874C37.9114 34.8242 37.9971 35.2987 37.7594 35.6514C32.3567 43.4959 26.1099 41.8569 25.8439 41.7781C23.6012 41.148 22.0061 40.1433 20.8713 39.0085Z" fill="black"/>
<path d="M28.1786 20.1813C27.9631 19.9659 27.8844 19.628 28.0214 19.333C28.1873 18.9517 28.6333 18.7642 29.0214 18.9363C29.122 18.9793 30.0563 19.3953 30.6088 20.3653C30.8169 20.7318 30.6941 21.1994 30.3271 21.4083C29.9601 21.6173 29.4929 21.4956 29.2848 21.1292C28.9762 20.5902 28.4229 20.3392 28.4229 20.3392C28.3222 20.2962 28.2432 20.246 28.1786 20.1813Z" fill="black"/>
<path d="M25.0279 26.851C24.8411 26.6643 24.7552 26.3911 24.8274 26.1178C24.9358 25.7078 25.3388 25.4628 25.7557 25.563C25.8132 25.5773 27.1431 25.9136 28.0836 27.0989C28.3421 27.4294 28.2912 27.9112 27.9601 28.1705C27.629 28.4298 27.1473 28.38 26.8888 28.0496C26.2857 27.2881 25.3944 27.0447 25.38 27.0447C25.2362 27.0161 25.1212 26.9444 25.0279 26.851Z" fill="black"/>
</svg>
