<svg xmlns="http://www.w3.org/2000/svg" viewBox="0 0 30.95 32.32"><defs><style>.cls-1{fill:#fff;}</style></defs><g id="아이콘"><path class="cls-1" d="M28.59,18.45a20,20,0,0,0,1.1-3.3c1.6-6.87-.63-13.26-5-14.28C21.82.21,18.75,2,16.52,5.33,15.58,3,14,1.35,12,.87,7.6-.14,2.77,4.62,1.16,11.49a16.71,16.71,0,0,0-.42,3.38v.59a18,18,0,0,0,.34,3.27,16.9,16.9,0,0,0,2,5l0,0a19.54,19.54,0,0,0,5.51,5.76l3.09,2S23.39,28.9,28.59,18.45Z"/><path d="M11.73,32.32a.79.79,0,0,1-.41-.13l-3.09-2,0,0a20.05,20.05,0,0,1-5.71-6l0,0a17.39,17.39,0,0,1-2.1-5.23A18.06,18.06,0,0,1,0,15.46c0-.2,0-.4,0-.61a17.58,17.58,0,0,1,.43-3.53C2.14,4.06,7.38-.94,12.13.16a7,7,0,0,1,4.53,3.73c2.4-3,5.4-4.38,8.2-3.73A6.84,6.84,0,0,1,29.1,3.4c1.86,3,2.35,7.45,1.31,11.92a21,21,0,0,1-1.16,3.46h0C24,29.42,12.38,32.18,11.89,32.3ZM9.06,28.94l2.8,1.84c1.82-.5,11.54-3.57,16.07-12.66h0A20.13,20.13,0,0,0,29,15c1-4.1.54-8.15-1.13-10.82a5.46,5.46,0,0,0-3.31-2.58c-2.45-.57-5.28,1-7.4,4.15a.73.73,0,0,1-.69.32.74.74,0,0,1-.6-.46c-.88-2.18-2.31-3.61-4-4-4-.92-8.41,3.6-9.92,10.07a16,16,0,0,0-.4,3.23c0,.18,0,.37,0,.56a15.87,15.87,0,0,0,.34,3.13,15.66,15.66,0,0,0,1.93,4.79l0,0A18.53,18.53,0,0,0,9.06,28.94ZM28.59,18.45Z"/><path d="M17.91,26.1a.73.73,0,0,1-.6-.3.74.74,0,0,1,.16-1c.51-.37,1-.75,1.46-1.13a.73.73,0,0,1,1,.09.74.74,0,0,1-.09,1c-.49.4-1,.81-1.54,1.19A.69.69,0,0,1,17.91,26.1Z"/><path d="M21.52,22.93a.73.73,0,0,1-.5-.19.74.74,0,0,1,0-1,18.05,18.05,0,0,0,5.14-13,.74.74,0,1,1,1.47-.15c0,.3.72,7.46-5.53,14.17A.7.7,0,0,1,21.52,22.93Z"/><path d="M14.16,12a.44.44,0,0,1-.16,0,.73.73,0,0,1-.55-.88C15.1,4,20.22-.91,24.86.16a.74.74,0,0,1-.33,1.44c-3.85-.89-8.18,3.5-9.65,9.79A.74.74,0,0,1,14.16,12Z"/></g></svg>