<svg width="23" height="22" viewBox="0 0 23 22" fill="none" xmlns="http://www.w3.org/2000/svg">
<path d="M11.4206 2.93656C11.1719 2.93656 10.9766 2.73526 10.9766 2.49252V0.444036C10.9766 0.195376 11.1779 0 11.4206 0C11.6633 0 11.8646 0.201296 11.8646 0.444036V2.49252C11.8646 2.73526 11.6633 2.93656 11.4206 2.93656Z" fill="#777777"/>
<path d="M17.7848 5.60127C17.6724 5.60127 17.5599 5.55983 17.4711 5.47102C17.2994 5.29933 17.2994 5.01514 17.4711 4.84345L18.9216 3.39293C19.0933 3.22124 19.3774 3.22124 19.5491 3.39293C19.7208 3.56462 19.7208 3.84881 19.5491 4.0205L18.0986 5.47102C18.0098 5.55983 17.8973 5.60127 17.7848 5.60127Z" fill="#777777"/>
<path d="M19.2354 19.4186C19.1229 19.4186 19.0104 19.3772 18.9216 19.2884L17.4711 17.8379C17.2994 17.6662 17.2994 17.382 17.4711 17.2103C17.6427 17.0386 17.9269 17.0386 18.0986 17.2103L19.5491 18.6608C19.7208 18.8325 19.7208 19.1167 19.5491 19.2884C19.4603 19.3713 19.3478 19.4186 19.2354 19.4186Z" fill="#777777"/>
<path d="M22.3734 11.9061H20.3249C20.0762 11.9061 19.8809 11.7048 19.8809 11.4621C19.8809 11.2194 20.0822 11.0181 20.3249 11.0181H22.3734C22.622 11.0181 22.8174 11.2194 22.8174 11.4621C22.8174 11.7048 22.622 11.9061 22.3734 11.9061Z" fill="#777777"/>
<path d="M5.03223 5.60127C4.91975 5.60127 4.80726 5.55983 4.71845 5.47102L3.26793 4.0205C3.09624 3.84881 3.09624 3.56462 3.26793 3.39293C3.43962 3.22124 3.72381 3.22124 3.8955 3.39293L5.34602 4.84345C5.51771 5.01514 5.51771 5.29933 5.34602 5.47102C5.26313 5.55983 5.15064 5.60127 5.03223 5.60127Z" fill="#777777"/>
<path d="M3.58806 19.4186C3.47557 19.4186 3.36309 19.3772 3.27428 19.2884C3.10258 19.1167 3.10258 18.8325 3.27428 18.6608L4.7248 17.2103C4.89649 17.0386 5.18067 17.0386 5.35237 17.2103C5.52406 17.382 5.52406 17.6662 5.35237 17.8379L3.90185 19.2884C3.81304 19.3713 3.70055 19.4186 3.58806 19.4186Z" fill="#777777"/>
<path d="M2.49252 11.9061H0.444036C0.195376 11.9061 0 11.7048 0 11.4621C0 11.2194 0.201296 11.0181 0.444036 11.0181H2.49252C2.74118 11.0181 2.93656 11.2194 2.93656 11.4621C2.93656 11.7048 2.74118 11.9061 2.49252 11.9061Z" fill="#777777"/>
<path d="M17.8679 11.0055C17.8679 7.44138 14.9788 4.55811 11.4205 4.55811C7.86234 4.55811 4.97314 7.4473 4.97314 11.0055C4.97314 13.4447 6.32893 15.5643 8.32413 16.6596L8.88658 19.8862H14.0848L14.5584 16.6359C16.5299 15.5406 17.8679 13.4329 17.8679 11.0055Z" fill="white"/>
<path d="M14.4634 20.3374H8.50743L7.91538 16.945C5.81954 15.7076 4.52295 13.4519 4.52295 11.0067C4.52295 7.20578 7.61344 4.10938 11.4203 4.10938C15.2272 4.10938 18.3177 7.19986 18.3177 11.0067C18.3177 13.4282 17.0388 15.678 14.9667 16.9213L14.4634 20.3374ZM9.25341 19.4493H13.6938L14.1437 16.3648L14.3332 16.2582C16.2396 15.1984 17.4177 13.1855 17.4177 11.0127C17.4177 7.7031 14.7239 5.00929 11.4144 5.00929C8.10484 5.00929 5.41102 7.7031 5.41102 11.0127C5.41102 13.2032 6.60696 15.2221 8.53112 16.276L8.72057 16.3766L9.25341 19.4493Z" fill="#777777"/>
<path d="M7.96901 11.7048C8.09926 11.9238 8.44265 11.7225 8.3124 11.5035C8.0223 11.0121 7.9927 10.4023 8.27096 9.90494C8.53738 9.4313 9.01694 9.1412 9.5557 9.08199C10.1181 9.02279 10.7398 9.15896 11.2194 9.4609C11.2312 9.46682 11.243 9.47866 11.2549 9.48458C10.7161 9.93454 10.349 10.5562 10.3727 11.2785C10.3846 11.5923 10.4675 11.9179 10.6391 12.1843C10.799 12.433 11.0477 12.7112 11.3733 12.658C11.693 12.6047 11.9061 12.2968 12.0482 12.0304C12.1844 11.7699 12.2791 11.4857 12.3206 11.1956C12.4034 10.6036 12.2791 9.98783 11.8943 9.52011C12.137 9.37802 12.3916 9.27145 12.6462 9.21224C13.2205 9.07607 13.8776 9.13528 14.3158 9.56155C14.6888 9.9227 14.8782 10.4615 14.6828 10.9529C14.5881 11.1897 14.9729 11.2903 15.0617 11.0594C15.2808 10.5029 15.1032 9.88126 14.7302 9.4313C14.3098 8.92214 13.6349 8.709 12.9896 8.76229C12.51 8.80373 12.0186 8.96951 11.5923 9.24185C11.1602 8.90438 10.5799 8.73268 10.0471 8.68532C9.27744 8.61428 8.51962 8.88662 8.0519 9.52011C7.57826 10.1595 7.56642 11.0298 7.96901 11.7048ZM11.9357 10.6509C11.9831 11.1186 11.8647 11.6041 11.6101 12.0008C11.5509 12.0955 11.4739 12.208 11.3674 12.2613C11.243 12.3205 11.1542 12.2258 11.0713 12.131C10.9056 11.9416 10.8108 11.6988 10.7753 11.4561C10.6747 10.7693 11.0358 10.1773 11.5568 9.76285C11.77 9.99967 11.9002 10.3135 11.9357 10.6509Z" fill="#777777"/>
<path d="M11.2844 12.8947C11.0476 12.8947 10.7338 12.7763 10.4378 12.3086C10.2543 12.0184 10.1536 11.6691 10.1418 11.2902C10.124 10.6508 10.3786 10.0351 10.8759 9.53184C10.4793 9.34239 10.0115 9.2595 9.57343 9.30687C9.08795 9.36015 8.68536 9.61473 8.46038 10.0173C8.22356 10.4377 8.24132 10.9646 8.4959 11.3968C8.61431 11.5981 8.5551 11.8408 8.34789 11.9652C8.14067 12.0895 7.89201 12.0303 7.7736 11.8231C7.31772 11.0653 7.35917 10.0884 7.86833 9.39567C8.34789 8.7385 9.16491 8.39511 10.0589 8.47208C10.645 8.52536 11.1838 8.70298 11.5982 8.98716C12.0245 8.74442 12.5041 8.59049 12.9659 8.55496C13.7355 8.48984 14.4578 8.77402 14.8959 9.30687C15.3518 9.86339 15.4939 10.5679 15.263 11.16C15.1624 11.4146 14.8959 11.4797 14.6946 11.4027C14.4815 11.3198 14.3868 11.1067 14.4697 10.8936C14.6177 10.5206 14.4933 10.0647 14.1559 9.74498C13.8184 9.41936 13.2737 9.31279 12.6876 9.45488C12.5277 9.4904 12.3679 9.54961 12.214 9.62657C12.4981 10.0825 12.6166 10.6627 12.5337 11.2547C12.4922 11.5744 12.3916 11.8823 12.2376 12.1605C12.1488 12.3263 11.8824 12.8296 11.3969 12.9006C11.3673 12.8947 11.3259 12.8947 11.2844 12.8947ZM11.5153 10.0824C11.2252 10.3607 10.9055 10.8166 10.9943 11.4205C11.0239 11.6395 11.1128 11.8408 11.2371 11.9829C11.2489 12.0007 11.2726 12.0244 11.2963 12.0421C11.3437 12.0066 11.3969 11.9237 11.4265 11.8823C11.6574 11.527 11.7581 11.1008 11.7166 10.6745C11.693 10.4554 11.6278 10.2601 11.5153 10.0824Z" fill="#777777"/>
<path d="M10.716 19.1345C10.5147 19.1345 10.3312 18.9983 10.2838 18.7911L8.95762 13.2496C8.89841 13.0127 9.04643 12.77 9.28917 12.7108C9.52598 12.6516 9.76872 12.7996 9.82793 13.0423L11.1541 18.5839C11.2133 18.8207 11.0653 19.0635 10.8226 19.1227C10.787 19.1286 10.7515 19.1345 10.716 19.1345Z" fill="#777777"/>
<path d="M12.0244 19.1348C11.9889 19.1348 11.9534 19.1288 11.9178 19.1229C11.681 19.0637 11.533 18.8269 11.5863 18.5842L12.9125 13.0426C12.9717 12.8058 13.2085 12.6578 13.4512 12.7111C13.6881 12.7703 13.8361 13.0071 13.7828 13.2498L12.4566 18.7914C12.4092 18.9986 12.2257 19.1348 12.0244 19.1348Z" fill="#777777"/>
<path d="M13.5753 21.5501H9.4369C9.30073 21.5501 9.18232 21.4731 9.13495 21.3547L8.70868 18.6905C8.63763 18.501 8.79157 18.3057 9.01062 18.3057H13.9601C14.1792 18.3057 14.3272 18.501 14.2621 18.6905L13.8832 21.3547C13.8299 21.4731 13.7115 21.5501 13.5753 21.5501Z" fill="white"/>
<path d="M13.5754 22.0003H9.43695C9.11724 22.0003 8.82714 21.8049 8.72057 21.5089L8.7028 21.4675L8.27061 18.7914C8.21141 18.5842 8.24693 18.3592 8.37126 18.1816C8.51335 17.9803 8.75017 17.856 9.00475 17.856H13.9543C14.2089 17.856 14.4457 17.9803 14.5878 18.1816C14.7121 18.3592 14.7476 18.5842 14.6943 18.7855L14.3095 21.4615L14.2917 21.503C14.1852 21.799 13.8951 22.0003 13.5754 22.0003ZM9.54943 21.1063H13.4629L13.8003 19.5966H9.17052L9.54943 21.1063Z" fill="#777777"/>
<path d="M13.8777 20.3612H9.02289C8.77423 20.3612 8.57886 20.1599 8.57886 19.9172C8.57886 19.6744 8.78015 19.4731 9.02289 19.4731H13.8777C14.1263 19.4731 14.3217 19.6744 14.3217 19.9172C14.3217 20.1599 14.1263 20.3612 13.8777 20.3612Z" fill="#777777"/>
</svg>
