<svg width="30" height="30" viewBox="0 0 30 30" fill="none" xmlns="http://www.w3.org/2000/svg">
<path d="M25.2941 19.5327C25.7263 18.9861 25.9743 18.3202 26.0033 17.6282C26.0324 16.9362 25.8411 16.2526 25.4561 15.6728C25.7081 15.305 25.8189 14.861 25.7685 14.4203C25.7577 13.7847 25.5897 13.1613 25.2792 12.6039C24.9687 12.0465 24.525 11.5718 23.9863 11.2208C23.3559 10.8849 22.6635 10.6765 21.95 10.6081C21.2364 10.5396 20.5162 10.6125 19.8317 10.8223C19.5511 10.918 19.2928 11.068 19.0722 11.2636C18.8516 11.4592 18.673 11.6963 18.5471 11.9609H17.9221C18.686 10.8223 20.445 7.66832 19.0794 5.33416C18.606 4.498 17.8641 3.83989 16.9699 3.46285C16.0758 3.08581 15.0798 3.01113 14.1378 3.2505C13.6155 3.42739 13.1835 3.79705 12.933 4.28144C12.6826 4.76582 12.6332 5.32701 12.7954 5.84653C13.374 8.79555 13.374 9.87723 11.152 11.3233C10.2887 11.8314 9.52762 12.4914 8.90689 13.2703C7.98106 13.0198 5.43503 12.5074 4.49763 14.1926C4.07235 15.2048 3.88636 16.2988 3.95371 17.3921C3.95371 17.8931 3.95371 18.4624 4.02315 19.0886C4.23146 22.1059 5.18044 23.1193 5.67807 23.4609C6.83535 24.2124 8.88375 23.4609 9.62441 23.1649C9.78675 23.3607 9.96477 23.5435 10.1568 23.7114C11.8563 25.2112 14.0537 26.0493 16.3367 26.0683H17.1815C20.5376 26.0683 22.7828 25.499 23.7086 24.4059C23.8885 24.2036 24.0228 23.9661 24.1026 23.709C24.1824 23.4519 24.2059 23.1811 24.1715 22.9144C24.5181 22.7164 24.8148 22.4439 25.0395 22.1173C25.2498 21.7571 25.3662 21.3513 25.3783 20.9361C25.3904 20.5208 25.2979 20.1091 25.1089 19.7376L25.2941 19.5327ZM21.0468 23.3698C21.6457 23.4527 22.2533 23.4527 22.8522 23.3698L23.3498 23.2446C23.3223 23.4724 23.2255 23.6867 23.0721 23.8594C22.586 24.4173 21.0815 25.3396 16.3367 25.2144C14.3004 25.1773 12.3454 24.4217 10.828 23.0851C10.1586 22.5085 9.59487 21.8229 9.16149 21.0584C9.15168 21.0335 9.13404 21.0123 9.11114 20.998C9.08824 20.9837 9.06127 20.9769 9.03419 20.9787C9.00155 20.9868 8.97299 21.0062 8.95383 21.0335C8.93468 21.0607 8.92622 21.0938 8.93004 21.1267C8.97565 21.5802 9.10922 22.0208 9.32351 22.4248C8.29353 22.846 6.92793 23.1648 6.26828 22.7436C6.01368 22.5728 5.11099 21.8213 4.98369 18.9861C4.7478 17.4859 4.87872 15.9519 5.3656 14.5114C5.93267 13.4525 7.83061 13.7713 8.62914 13.9535C8.4746 14.3464 8.38852 14.7621 8.37454 15.1832C8.37114 15.2177 8.38121 15.2522 8.40269 15.2797C8.42418 15.3071 8.45549 15.3256 8.49027 15.3312C8.52551 15.338 8.56206 15.3312 8.59227 15.3121C8.62248 15.293 8.64399 15.2631 8.65229 15.2287C8.92286 14.5006 9.35817 13.8426 9.9253 13.3045C10.4859 12.7971 11.0943 12.3434 11.7422 11.9495C14.3461 10.2644 14.3461 8.73862 13.7443 5.65297C13.6316 5.32354 13.653 4.96392 13.804 4.64968C13.9551 4.33545 14.2241 4.09104 14.5544 3.96782C15.3115 3.79137 16.1064 3.86266 16.8186 4.17088C17.5308 4.4791 18.1214 5.00744 18.5008 5.67574C19.7622 7.95297 17.4129 11.3688 16.9963 11.9153C16.6673 11.9639 16.3424 12.0363 16.0242 12.1317C15.9925 12.1373 15.9641 12.1545 15.9448 12.1798C15.9254 12.2052 15.9166 12.2368 15.92 12.2683C15.9224 12.2985 15.9335 12.3273 15.952 12.3515C15.9704 12.3757 15.9954 12.3942 16.0242 12.4049C18.0741 12.8352 20.1833 12.9199 22.262 12.6554C22.2931 12.6533 22.3226 12.6409 22.3457 12.6202C22.3688 12.5996 22.3841 12.5719 22.3893 12.5416C22.3924 12.5089 22.3852 12.476 22.3687 12.4475C22.3521 12.4189 22.3269 12.3961 22.2967 12.3822C21.5836 12.1305 20.8323 11.9996 20.0747 11.995H19.6002C19.7738 11.8239 19.9831 11.6919 20.2136 11.6079C20.7867 11.4345 21.3895 11.3763 21.986 11.437C22.5825 11.4976 23.1604 11.6758 23.6854 11.9609C24.1096 12.2499 24.4557 12.6364 24.6937 13.0868C24.9316 13.5372 25.0543 14.0379 25.051 14.5455C25.0708 14.6966 25.0573 14.85 25.0114 14.9954C24.9655 15.1408 24.8882 15.2748 24.7848 15.3881C23.8359 16.5267 20.9427 16.8911 20.9195 16.8911C20.8857 16.8962 20.8546 16.9125 20.8314 16.9374C20.8083 16.9622 20.7945 16.9941 20.7922 17.0277C20.7906 17.0457 20.7927 17.0638 20.7982 17.0809C20.8038 17.0981 20.8127 17.114 20.8246 17.1278C20.8364 17.1416 20.8509 17.1529 20.8672 17.1611C20.8835 17.1693 20.9013 17.1743 20.9195 17.1757C21.5496 17.2553 22.1874 17.2553 22.8175 17.1757C23.5891 17.0674 24.3254 16.787 24.97 16.3559C25.2116 16.7702 25.326 17.2445 25.2993 17.7214C25.2726 18.1983 25.1059 18.6574 24.8196 19.0431C23.6623 20.1817 20.8501 20.5005 20.8269 20.5005C20.8087 20.5019 20.7909 20.5069 20.7746 20.5151C20.7583 20.5234 20.7438 20.5347 20.732 20.5484C20.7201 20.5622 20.7112 20.5781 20.7056 20.5953C20.7001 20.6125 20.698 20.6306 20.6996 20.6485C20.7019 20.6821 20.7157 20.714 20.7389 20.7389C20.762 20.7637 20.7931 20.78 20.8269 20.7851C21.4756 20.8759 22.1341 20.8759 22.7827 20.7851C23.3858 20.6979 23.9691 20.5092 24.5071 20.2272C24.6081 20.4596 24.6543 20.7114 24.6423 20.9638C24.6303 21.2162 24.5603 21.4626 24.4377 21.6847C23.6738 22.8233 21.1047 23.1649 21.0815 23.1649C21.0458 23.1703 21.0132 23.1883 20.9898 23.2155C20.9664 23.2427 20.9538 23.2773 20.9542 23.3129C20.965 23.328 20.9787 23.3409 20.9946 23.3507C21.0105 23.3604 21.0283 23.367 21.0468 23.3698Z" fill="black" stroke="black" stroke-width="0.3"/>
</svg>
