<svg xmlns="http://www.w3.org/2000/svg" viewBox="0 0 29.99 32.17"><defs><style>.cls-1{fill:#fff;}</style></defs><g id="아이콘"><path class="cls-1" d="M18.65.36C10.62-1.5,2.48,4,.46,12.7S3.31,29.94,11.34,31.8s16.17-3.65,18.19-12.34S26.68,2.23,18.65.36ZM3.12,13.28c1.69-7.3,8.39-12,15-10.46A9.45,9.45,0,0,1,23,5.76L4.85,23.83A15.72,15.72,0,0,1,3.12,13.28Zm22.94,4.6c-1.7,7.3-8.39,12-14.95,10.45a9.28,9.28,0,0,1-4.95-2.94L24.32,7.33A15.77,15.77,0,0,1,26.06,17.88Z"/><path d="M15.56,2.53V4h0a9.32,9.32,0,0,1,2.17.25A7.22,7.22,0,0,1,20.89,5.8L5.31,21.3a13.65,13.65,0,0,1-.76-7.69C5.84,8.05,10.47,4,15.56,4V2.53m0,0c-5.68,0-11,4.38-12.44,10.75A15.72,15.72,0,0,0,4.85,23.83L23,5.76a9.45,9.45,0,0,0-4.95-2.94,11.38,11.38,0,0,0-2.51-.29Z"/><path d="M15.5,0V1.47a12.27,12.27,0,0,1,2.82.33,12.84,12.84,0,0,1,8.26,6.29,15.2,15.2,0,0,1,1.51,11A15.43,15.43,0,0,1,23,27.51a13.37,13.37,0,0,1-8.51,3.18A12.59,12.59,0,0,1,3.41,24.08,15.26,15.26,0,0,1,1.89,13,15.53,15.53,0,0,1,7,4.65,13.37,13.37,0,0,1,15.5,1.47V0m0,0C8.59,0,2.21,5.16.46,12.7c-2,8.68,2.85,17.24,10.88,19.1a13.61,13.61,0,0,0,3.15.37c6.91,0,13.29-5.16,15-12.71,2-8.68-2.85-17.23-10.88-19.1A14.16,14.16,0,0,0,15.5,0Z"/><path d="M23.92,8.65a12.72,12.72,0,0,1,1.51,9.82c-1.29,5.56-5.92,9.6-11,9.6a9.32,9.32,0,0,1-2.17-.25,9.68,9.68,0,0,1-4.73-2.67l16.4-16.5M24,6.45,5.5,25.09a11.41,11.41,0,0,0,6.42,4.17,11.21,11.21,0,0,0,2.5.28c5.68,0,11-4.37,12.45-10.74C28,14.15,26.8,9.31,24,6.45Z"/></g></svg>