<svg id="cursor" xmlns="http://www.w3.org/2000/svg" viewBox="0 0 128.34 128.17"><defs><style>.cls-1{fill:#fff;}</style></defs><polygon class="cls-1" points="3.5 3.5 27.26 100.02 46.99 80.29 91.37 124.67 124.84 91.21 82.21 48.59 101.59 29.21 3.5 3.5"/><path d="M91.37,128.17a3.49,3.49,0,0,1-2.47-1L47,85.24,29.74,102.49a3.49,3.49,0,0,1-3.42.9,3.53,3.53,0,0,1-2.46-2.54L.1,4.34A3.51,3.51,0,0,1,4.39.11l98.09,25.72a3.5,3.5,0,0,1,1.58,5.86l-16.9,16.9,40.15,40.15a3.49,3.49,0,0,1,0,5L93.85,127.15A3.51,3.51,0,0,1,91.37,128.17ZM47,76.79a3.46,3.46,0,0,1,2.47,1l41.91,41.9,28.52-28.51L79.74,51.06a3.49,3.49,0,0,1,0-5L94.8,31.05,8.31,8.38,29.18,93.15,44.51,77.82A3.48,3.48,0,0,1,47,76.79Z"/></svg>