<svg xmlns="http://www.w3.org/2000/svg" viewBox="0 0 29.99 32.17"><defs><style>.cls-1{fill:#fff;}</style></defs><g id="아이콘"><ellipse class="cls-1" cx="14.99" cy="16.08" rx="16.14" ry="14.92" transform="translate(-4.07 27.04) rotate(-76.91)"/><path d="M15.5,0V1.47a12.27,12.27,0,0,1,2.82.33c7.22,1.68,11.61,9.45,9.77,17.33A15.43,15.43,0,0,1,23,27.51a13.37,13.37,0,0,1-8.51,3.18,12.77,12.77,0,0,1-2.82-.32C4.45,28.69.06,20.91,1.89,13A15.53,15.53,0,0,1,7,4.65,13.37,13.37,0,0,1,15.5,1.47V0m0,0C8.59,0,2.21,5.16.46,12.7c-2,8.68,2.85,17.24,10.88,19.1a13.61,13.61,0,0,0,3.15.37c6.91,0,13.29-5.16,15-12.71,2-8.68-2.85-17.23-10.88-19.1A14.16,14.16,0,0,0,15.5,0Z"/><path d="M19.06,7.44c-1.28-1.1-3.37-1.13-4.94-.8a4.88,4.88,0,0,0-4,3.56c-.1.52.7.8.81.26a4,4,0,0,1,3.1-2.94,7.25,7.25,0,0,1,2.41-.16,3.46,3.46,0,0,1,2.12.79c1.14,1.07.85,2.83,0,4s-2.46,1.77-3.44,2.95C14,16.45,14,18.34,13.94,20c0,.55.84.6.84.05,0-1.65.06-3.55,1.34-4.77.63-.6,1.4-1,2.07-1.54a5.58,5.58,0,0,0,1.58-1.93A3.68,3.68,0,0,0,19.06,7.44Z"/><path d="M14.38,21.07h0a1,1,0,0,1-1-1.05c0-2,.15-3.86,1.37-5.33a8.76,8.76,0,0,1,1.76-1.49,6.78,6.78,0,0,0,1.65-1.43,2.47,2.47,0,0,0,.06-3.18A2.93,2.93,0,0,0,16.42,8a6.91,6.91,0,0,0-2.21.14,3.42,3.42,0,0,0-2.65,2.48.94.94,0,0,1-.63.73,1.11,1.11,0,0,1-1-.23,1.09,1.09,0,0,1-.34-1A5.46,5.46,0,0,1,14,6c.83-.17,3.67-.61,5.47.93h0a4.27,4.27,0,0,1,.86,5.13,6.24,6.24,0,0,1-1.75,2.14c-.29.23-.59.44-.88.64a7.9,7.9,0,0,0-1.14.86c-1.1,1-1.13,2.8-1.15,4.34A1,1,0,0,1,14.38,21.07Z"/><path d="M14.13,27a2.07,2.07,0,0,1-.5-.06,1.58,1.58,0,0,1-1.05-.75c-.55-.93,0-2.3,1.22-3.12a3.37,3.37,0,0,1,1.4-.54l.2,0h0a3.18,3.18,0,0,1,.51,0,1.69,1.69,0,0,1,.56.19,1.51,1.51,0,0,1,.58.57c.55.93,0,2.3-1.22,3.12A3.21,3.21,0,0,1,14.13,27Zm1.28-3h0a1.88,1.88,0,0,0-.78.31c-.64.43-.85,1-.76,1.15s.09.05.11.06A1.5,1.5,0,0,0,15,25.2c.65-.43.85-1,.77-1.15l0,0s0,0-.06,0Z"/></g></svg>