<svg xmlns="http://www.w3.org/2000/svg" viewBox="0 0 33.29 25.17"><defs><style>.cls-1{fill:#fff;}</style></defs><g id="아이콘"><path class="cls-1" d="M6.4.74H32.55a0,0,0,0,1,0,0v18a5.66,5.66,0,0,1-5.66,5.66H6.4A5.66,5.66,0,0,1,.74,18.77V6.4A5.66,5.66,0,0,1,6.4.74Z" transform="translate(33.29 25.17) rotate(180)"/><path d="M25.19,25.17H0V8.1A8.1,8.1,0,0,1,8.1,0H25.19a8.11,8.11,0,0,1,8.1,8.1v9A8.12,8.12,0,0,1,25.19,25.17ZM1.47,23.69H25.19a6.64,6.64,0,0,0,6.63-6.62v-9a6.64,6.64,0,0,0-6.63-6.63H8.1A6.64,6.64,0,0,0,1.47,8.1Z"/><path d="M25,9.06H9.18a.74.74,0,0,1,0-1.48H25a.74.74,0,0,1,0,1.48Z"/><path d="M25,13.33H9.18a.74.74,0,1,1,0-1.47H25a.74.74,0,0,1,0,1.47Z"/><path d="M18.65,17.61H9.18a.74.74,0,1,1,0-1.47h9.47a.74.74,0,0,1,0,1.47Z"/></g></svg>