<svg id="레이어_1" xmlns="http://www.w3.org/2000/svg" viewBox="0 0 312.74 437.56"><defs><style>.cls-1{fill:#fff;}</style></defs><path d="M312.67,202.26c-.4,15.34-1.42,30.65-4.13,45.77-1.84,10.31-4,20.61-6.74,30.71a294.58,294.58,0,0,1-10,30.28,296.67,296.67,0,0,1-13.71,29.64,216,216,0,0,1-17.33,27.67,232.1,232.1,0,0,1-18.3,22.19c-12.09,12.69-25.5,23.83-40.93,32.29-14.67,8-30.16,13.86-46.88,15.88a106.83,106.83,0,0,1-47.09-4.37,127.33,127.33,0,0,1-20-8.35A142.42,142.42,0,0,1,64,407.55,138.74,138.74,0,0,1,41.54,383.3a182.39,182.39,0,0,1-23.11-42A298.12,298.12,0,0,1,6.76,304.35c-1.25-5-1.9-10.05-2.71-15.1C3,283,2,276.71,1.26,270.4c-.59-5.2-.92-10.45-1-15.69-.21-7.94-.28-15.9-.14-23.84.1-5.53.51-11.05,1-16.56.55-6.07,1.17-12.15,2.1-18.17,1-6.42,2.29-12.8,3.65-19.16,1.27-6,2.45-12,4.28-17.77,3.38-10.68,7-21.31,10.91-31.79A196.17,196.17,0,0,1,40.42,91.09,5,5,0,0,0,41,89.51c1.78-8.23,7.41-14.32,12-20.84A183.29,183.29,0,0,1,81.66,37.2a156.63,156.63,0,0,1,39.8-26.07C141,2.41,161.47-1.69,182.92.65A111.61,111.61,0,0,1,220,11.25a131,131,0,0,1,37.92,28.16,176.22,176.22,0,0,1,30.74,45.1A223.59,223.59,0,0,1,302,119.4a265.5,265.5,0,0,1,7.69,35.73A277.48,277.48,0,0,1,312.67,202.26Zm-5.16-3.83c-.43-26.64-3.2-48.79-9-70.59a221.57,221.57,0,0,0-14.39-39.35c-7.68-15.88-17.18-30.61-29.46-43.42-14.28-14.88-30.71-26.42-50.51-32.78a103.19,103.19,0,0,0-42.85-4.63,126,126,0,0,0-24.49,5.2,129.44,129.44,0,0,0-30.35,14.41A153.06,153.06,0,0,0,76.27,52.2c-4,4.24-8,8.46-11.62,13C59.31,72,54.39,79.17,49.19,86.09c-1.85,2.47-4.3,4.52-5.9,7.12a138.67,138.67,0,0,0-7.92,14.57c-3.66,8-7.12,16.07-10.27,24.27q-4.43,11.5-8,23.34c-1.93,6.49-3.3,13.16-4.76,19.78-1.16,5.25-2.29,10.52-3.06,15.84-.87,6-1.44,12.13-1.93,18.22-.64,8.06-1.34,16.13-1.52,24.2-.16,7.22.16,14.47.64,21.68C7.1,264,7.61,273,9,281.78a301.75,301.75,0,0,0,6.6,30.3,197.57,197.57,0,0,0,25.11,56.45,154.47,154.47,0,0,0,24.91,30c13.26,12.13,28.1,21.45,45.42,26.71,18.66,5.66,37.42,6,56.35,1.73a124.86,124.86,0,0,0,36.11-14.73,168.41,168.41,0,0,0,38-31.28,186.77,186.77,0,0,0,22-28.65A273,273,0,0,0,278,326.91c4.83-10.09,8.71-20.62,12.83-31a218.79,218.79,0,0,0,11.49-42.26C305.78,234,308.3,214.29,307.51,198.43Z"/><path class="cls-1" d="M307.51,198.43c.79,15.86-1.73,35.61-5.22,55.19a218.79,218.79,0,0,1-11.49,42.26c-4.12,10.41-8,20.94-12.83,31a273,273,0,0,1-14.48,25.42,186.77,186.77,0,0,1-22,28.65,168.41,168.41,0,0,1-38,31.28A124.86,124.86,0,0,1,167.43,427c-18.93,4.25-37.69,3.93-56.35-1.73C93.76,420,78.92,410.68,65.66,398.55a154.47,154.47,0,0,1-24.91-30,197.57,197.57,0,0,1-25.11-56.45A301.75,301.75,0,0,1,9,281.78C7.61,273,7.1,264,6.5,255.11c-.48-7.21-.8-14.46-.64-21.68.18-8.07.88-16.14,1.52-24.2.49-6.09,1.06-12.18,1.93-18.22.77-5.32,1.9-10.59,3.06-15.84,1.46-6.62,2.83-13.29,4.76-19.78q3.53-11.82,8-23.34c3.15-8.2,6.61-16.29,10.27-24.27a138.67,138.67,0,0,1,7.92-14.57c1.6-2.6,4.05-4.65,5.9-7.12C54.39,79.17,59.31,72,64.65,65.23c3.59-4.57,7.63-8.79,11.62-13a153.06,153.06,0,0,1,30.16-24.93,129.44,129.44,0,0,1,30.35-14.41,126,126,0,0,1,24.49-5.2,103.19,103.19,0,0,1,42.85,4.63c19.8,6.36,36.23,17.9,50.51,32.78,12.28,12.81,21.78,27.54,29.46,43.42a221.57,221.57,0,0,1,14.39,39.35C304.31,149.64,307.08,171.79,307.51,198.43Zm-2.73-.33c0-4,.15-7.66,0-11.35a262.06,262.06,0,0,0-5.43-43.42c-1.55-7.06-3-14.17-5.23-21-4.07-12.54-8.54-25-15.21-36.43-3.77-6.46-7.39-13.06-11.72-19.14a139.52,139.52,0,0,0-24-26.18A121.14,121.14,0,0,0,213,21.8,96,96,0,0,0,182.24,14c-14.09-1-28.13.06-41.7,4.39-8.94,2.86-17.74,6.21-25.71,11.26-7.3,4.63-14.56,9.37-21.46,14.58A122.54,122.54,0,0,0,79.5,56.83c-4.84,5-9.39,10.28-13.79,15.66a128.25,128.25,0,0,0-9.44,13c-2.57,4.12-5.87,8-6.35,13.17-.1,1-1.09,2-1.71,2.9a36.71,36.71,0,0,0-2.38,3.51c-2.93,5.8-5.87,11.59-8.6,17.49-2.49,5.38-4.89,10.82-7,16.36-2.89,7.64-5.33,15.41-7.53,23.3a284,284,0,0,0-6.45,27.68c-1,5.86-2.11,11.72-2.77,17.63s-.91,11.86-1.21,17.79c-.24,4.94-.44,9.89-.39,14.84,0,5.23.23,10.47.65,15.69.72,8.74,1.36,17.51,2.63,26.19,1,6.84,3.06,13.52,4.36,20.33,2.09,10.95,6.35,21.19,10.17,31.57a112.84,112.84,0,0,0,6.84,14.51c3.42,6.34,6.91,12.67,10.88,18.67,3.41,5.16,7.47,9.89,11.36,14.71a115.86,115.86,0,0,0,26.81,23.72,109.67,109.67,0,0,0,28.32,13.16,106.16,106.16,0,0,0,30.58,4.51c11.17.11,21.94-2.2,32.62-5.32,9.07-2.64,17.41-6.87,25.6-11.31a135.22,135.22,0,0,0,17.53-11.95,168.42,168.42,0,0,0,25.13-24.07A205.55,205.55,0,0,0,270,335.09a263.4,263.4,0,0,0,12.2-24.71c3.12-7.41,6.05-14.94,8.5-22.6,2.88-9,5.76-18.13,7.5-27.42,1.66-8.89,3.84-17.69,4.5-26.84C303.56,221.63,305.33,209.81,304.78,198.1Z"/><path d="M304.78,198.1c.55,11.71-1.22,23.53-2.08,35.42-.66,9.15-2.84,17.95-4.5,26.84-1.74,9.29-4.62,18.4-7.5,27.42-2.45,7.66-5.38,15.19-8.5,22.6A263.4,263.4,0,0,1,270,335.09a205.55,205.55,0,0,1-24.64,35.52,168.42,168.42,0,0,1-25.13,24.07,135.22,135.22,0,0,1-17.53,11.95c-8.19,4.44-16.53,8.67-25.6,11.31-10.68,3.12-21.45,5.43-32.62,5.32a106.16,106.16,0,0,1-30.58-4.51,109.67,109.67,0,0,1-28.32-13.16,115.86,115.86,0,0,1-26.81-23.72c-3.89-4.82-8-9.55-11.36-14.71-4-6-7.46-12.33-10.88-18.67A112.84,112.84,0,0,1,29.69,334c-3.82-10.38-8.08-20.62-10.17-31.57-1.3-6.81-3.36-13.49-4.36-20.33-1.27-8.68-1.91-17.45-2.63-26.19-.42-5.22-.61-10.46-.65-15.69-.05-4.95.15-9.9.39-14.84.3-5.93.54-11.89,1.21-17.79s1.75-11.77,2.77-17.63a284,284,0,0,1,6.45-27.68c2.2-7.89,4.64-15.66,7.53-23.3,2.11-5.54,4.51-11,7-16.36,2.73-5.9,5.67-11.69,8.6-17.49a36.71,36.71,0,0,1,2.38-3.51c.62-.95,1.61-1.89,1.71-2.9.48-5.21,3.78-9,6.35-13.17a128.25,128.25,0,0,1,9.44-13c4.4-5.38,9-10.68,13.79-15.66A122.54,122.54,0,0,1,93.37,44.22c6.9-5.21,14.16-9.95,21.46-14.58,8-5.05,16.77-8.4,25.71-11.26,13.57-4.33,27.61-5.42,41.7-4.39A96,96,0,0,1,213,21.8a121.14,121.14,0,0,1,30.13,18.76,139.52,139.52,0,0,1,24,26.18c4.33,6.08,7.95,12.68,11.72,19.14,6.67,11.46,11.14,23.89,15.21,36.43,2.22,6.85,3.68,14,5.23,21a262.06,262.06,0,0,1,5.43,43.42C304.93,190.44,304.78,194.14,304.78,198.1Zm-5,.9a218.66,218.66,0,0,0-6.66-59.57,202.86,202.86,0,0,0-11.34-34.68,215.36,215.36,0,0,0-12.4-24.14,145.2,145.2,0,0,0-19.59-25.52,119.67,119.67,0,0,0-23.91-19.48,108,108,0,0,0-29.63-12.42A98.42,98.42,0,0,0,152,22.34a112.81,112.81,0,0,0-43,18.74c-3.93,2.77-7.56,6-11.52,8.68C90.69,54.4,85.3,60.46,79.75,66.29,75.29,71,71.83,76.6,67.44,81.36,62,87.29,58.58,94.69,52.93,100.53c-2.74,2.83-4.28,6.91-6,10.58-2.7,5.61-5.23,11.3-7.66,17a246.37,246.37,0,0,0-10.59,30,287.36,287.36,0,0,0-10.48,59c-.75,12-1.48,24.07-.28,36.12.45,4.52.29,9.12,1,13.59q2,13.21,4.78,26.31c1.46,6.92,3.12,13.83,5.25,20.57a171.46,171.46,0,0,0,6.73,16.91c2.83,6.48,5.57,13.05,9,19.2a156.67,156.67,0,0,0,11.68,17.65c4.06,5.37,8.63,10.38,13.19,15.35a107.27,107.27,0,0,0,18.1,15.31c3.23,2.24,6.46,4.68,10,6.19,6.23,2.63,12,6.14,18.87,7.59,6.64,1.4,13.12,3.24,20,3.85,18.27,1.63,35.57-1.92,52.34-8.77a70.45,70.45,0,0,0,9.81-5.14c5.81-3.51,11.72-6.92,17.16-11,5.2-3.87,9.88-8.46,14.76-12.77a111.93,111.93,0,0,0,14.91-16.17c5.13-6.74,10-13.68,14.83-20.65A117.23,117.23,0,0,0,267.13,330c2.87-5.37,5.75-10.77,8.11-16.38,4.07-9.66,8.14-19.36,11.47-29.29,2.78-8.3,4.65-16.93,6.62-25.48,1.44-6.21,2.59-12.49,3.51-18.79C298.89,226.14,300.6,212.19,299.75,199Z"/><path d="M258.27,225.36,257,231.92l-.63,0c-.15-.93-.31-1.86-.53-3.13-1,.93-2,1.67-2.82,2.55q-11.38,12.13-22.74,24.32-28.62,30.53-57.27,61c-5.86,6.22-11.75,12.41-17.87,18.36-4.89,4.76-10.13,9.16-15.24,13.68a12.39,12.39,0,0,1-3.15,2.17,3.12,3.12,0,0,1-2.63-.05c-1.18-.9-.5-2.08.35-2.92,1-1,2.16-1.85,3.22-2.8,5-4.45,10.23-8.66,14.91-13.41,15.39-15.61,30.59-31.4,45.83-47.16q26.72-27.61,53.4-55.26C253.39,227.69,254.9,225.89,258.27,225.36Z"/><path d="M187.06,347.8c-.17-1.6-.55-2.49-.28-3.07a19.4,19.4,0,0,1,2.63-4.35q6.09-7.14,12.42-14.09c8.08-8.81,16.17-17.62,24.42-26.27,3.92-4.11,8.16-7.93,12.39-11.73a24.36,24.36,0,0,1,4.51-2.61l.49.78a47.85,47.85,0,0,0-3.68,3.13c-3.48,3.55-7,7.11-10.31,10.81-9.14,10.16-18.18,20.4-27.29,30.58C197.53,336.36,192.63,341.68,187.06,347.8Z"/></svg>