<svg id="레이어_1" xmlns="http://www.w3.org/2000/svg" viewBox="0 0 158.36 95.74"><defs><style>.cls-1{fill:#fff;}</style></defs><path d="M46.79,51.74q-12.33.93-24.66,1.85a41.21,41.21,0,0,1-6.37.22c-.91-.08-1.73-1.12-2.6-1.72.74-.72,1.37-1.9,2.23-2.09a79.18,79.18,0,0,1,12.14-2.22c10.49-.7,21-1,31.51-1.49,1.13,0,2.27,0,3.41.05A2.5,2.5,0,0,1,65.17,49a2.46,2.46,0,0,1-2.57,2.78c-3,.18-6,.28-9,.36-2.28,0-4.55,0-6.83,0Z"/><polygon class="cls-1" points="11.53 17.02 41.23 4.38 138.28 0.45 151.29 10.82 156.59 19.64 154.51 84.66 136.8 89.75 11.53 17.02"/><path d="M0,67.48c0,2.46.11,4.91.15,7.36,0,.12,0,.24.05.36.63,4.22,1.16,8.46,1.93,12.66A7.78,7.78,0,0,0,7.44,94a24.71,24.71,0,0,0,12.12,1.5,104.78,104.78,0,0,1,13.61-.8c6.55,0,13.09.4,19.64.42,14.67,0,29.34-.06,44-.12,10.93,0,21.92,1.08,32.7-1.76a7.15,7.15,0,0,1,2.12-.07c5.65.23,10.3-2.75,15.25-4.73a1.72,1.72,0,0,0,.66-.54c1.18-1.37.67-3.38-1.09-3.64a9.52,9.52,0,0,0-3.71.48A29.15,29.15,0,0,0,139.44,86c.5-4.71,1-9.19,1.44-13.68.15-1.7,0-3.42.05-5.12.31-11.25.67-22.49,1-33.74a29.52,29.52,0,0,0-1.69-11.71,15.37,15.37,0,0,0-8.58-8.86c-6-2.67-12.18-2.76-18.44-2.45-16.48.83-33,1.85-49.44,2.74-12.94.7-25.87,1.31-38.81,1.94a17.22,17.22,0,0,1-2.52-.48C26.86,13,30.49,12,33.86,10.42a47.94,47.94,0,0,1,16.48-4c6.52-.56,13.08-.76,19.63-.91,15.52-.36,31-.51,46.56-.92,5.47-.15,10.92-.82,16.69-1.27C130.79.09,130.79,0,126.94,0,104.72.28,82.5.41,60.29,1c-7.47.22-15.16-.17-22.38,2.57C31.54,6,25.16,8.43,18.9,11.1c-1.74.74-3.09,2.42-4.61,3.67A14.88,14.88,0,0,1,11.53,17C4.27,20.43.86,26,1.15,34,1.21,35.66,1,37.37,1,39.07.68,45,.35,51,.14,57c-.11,3.37,0,6.75,0,10.51Zm6-36c.35-6.16,6.48-11,12.7-11.08,10.52-.11,21-.67,31.54-1.12,6-.26,11.93-.65,17.89-1Q89.2,17,110.27,15.6c3.52-.23,7-.52,10.53-.92,7.13-.8,14.65,5.09,15.36,12.31.32,3.24.24,6.51.3,9.77,0,1-.16,2-.16,3,0,11.66-.13,23.32,0,35,.06,4.18-.79,7.92-3.38,11.16a9.49,9.49,0,0,1-7.62,4c-13.8.19-27.6.72-41.4.75-14.64,0-29.28-.36-43.92-.6a178.3,178.3,0,0,0-23.32,1.25c-2.65.3-5.66-.76-8.19-1.9-1.21-.54-2.21-2.65-2.4-4.16a123.13,123.13,0,0,1-.86-12.75c-.13-5.26,0-10.53,0-15.8H4.87C5.23,48.25,5.52,39.86,6,31.48Z"/><path d="M158.26,74.56l-.64-.08c0-5-.25-9.72,0-14.38.87-13.53,1.31-27.05-1.08-40.46-.88-5-1.43-10.33-6.22-13.51A99.46,99.46,0,0,0,141.55,1a5.8,5.8,0,0,0-3.27-.53A1.92,1.92,0,0,0,137,3.65a10.41,10.41,0,0,0,2.54,2.22,80.52,80.52,0,0,1,6.79,4.4c1.46,1.2,3.07,2.89,3.43,4.61,1.19,5.68,2.44,11.46,2.59,17.23.37,13.81,0,27.64.19,41.46.05,3.87.23,7.66-1.46,11.26-.07.15.19.44.45,1,1-.36,2.29-.47,3-1.17a50,50,0,0,0,3.85-5.15C158.26,77.87,158.25,76.22,158.26,74.56Z"/><path class="cls-1" d="M4.87,56.63c.36-8.38.65-16.77,1.12-25.15.35-6.16,6.48-11,12.7-11.08,10.52-.11,21-.67,31.54-1.12,6-.26,11.93-.65,17.89-1Q89.2,17,110.27,15.6c3.52-.23,7-.52,10.53-.92,7.13-.8,14.65,5.09,15.36,12.31.32,3.24.24,6.51.3,9.77,0,1-.16,2-.16,3,0,11.66-.13,23.32,0,35,.06,4.18-.79,7.92-3.38,11.16a9.49,9.49,0,0,1-7.62,4c-13.8.19-27.6.72-41.4.75-14.64,0-29.28-.36-43.92-.6a178.3,178.3,0,0,0-23.32,1.25c-2.65.3-5.66-.76-8.19-1.9-1.21-.54-2.21-2.65-2.4-4.16a123.13,123.13,0,0,1-.86-12.75c-.13-5.26,0-10.53,0-15.8Zm121-3.37c0-7.13-.91-11.16-3-15.77-5.36-11.94-19.6-18.07-33.06-11.3A32.1,32.1,0,0,0,74.1,43.85c-4,10.23-3.33,20,2.42,29.39,5.56,9.06,18.31,16.11,32.46,8A32.81,32.81,0,0,0,125.91,53.26ZM46.79,51.74l0,.38c2.28,0,4.55,0,6.83,0,3-.08,6-.18,9-.36A2.46,2.46,0,0,0,65.17,49a2.5,2.5,0,0,0-2.72-2.63c-1.14-.05-2.28-.1-3.41-.05-10.51.46-21,.79-31.51,1.49A79.18,79.18,0,0,0,15.39,50c-.86.19-1.49,1.37-2.23,2.09.87.6,1.69,1.64,2.6,1.72a41.21,41.21,0,0,0,6.37-.22Q34.46,52.69,46.79,51.74ZM19.45,37c1.39-.11,2.39-.18,3.38-.27L41.53,35c6.8-.64,13.61-1.28,20.41-2,1.45-.14,3-.49,3-2.35s-1.54-2.54-3.18-2.8a7,7,0,0,0-1.71,0Q48.18,29,36.27,30c-3.12.28-6.24.52-9.34.94-3.52.47-7,1.1-10.53,1.71-1.26.22-2.75.46-2.69,2.15.08,2,1.72,2,3.15,2.06C17.86,37,18.85,37,19.45,37ZM51.61,65.48l0,.34c3.36-.5,6.76-.84,10.06-1.6a3.71,3.71,0,0,0,2.2-2.6c.19-1.72-1.28-2.38-2.89-2.27-2.26.15-4.52.38-6.78.61q-18,1.82-36,3.66a14.39,14.39,0,0,0-4.1,1A2.34,2.34,0,0,0,13,66.55c.1.59,1,1.2,1.73,1.51a4.74,4.74,0,0,0,2.1.13c4.82-.32,9.64-.65,14.45-1C38,66.63,44.82,66,51.61,65.48ZM54.23,75C54.3,71,51,68.57,47.35,70a11.43,11.43,0,0,0-6.75,7.25A5.14,5.14,0,0,0,46,84,9.57,9.57,0,0,0,54.23,75ZM26.39,71.27c-4.07.06-8.6,4.32-8.5,8a5.87,5.87,0,0,0,5.91,5.46c3.87.06,7.85-4,7.82-8A5.23,5.23,0,0,0,26.39,71.27Z"/><path d="M125.91,53.26A32.81,32.81,0,0,1,109,81.21c-14.15,8.14-26.9,1.09-32.46-8-5.75-9.35-6.46-19.16-2.42-29.39A32.1,32.1,0,0,1,89.87,26.19c13.46-6.77,27.7-.64,33.06,11.3C125,42.1,125.92,46.13,125.91,53.26ZM81.22,57c0,.42,0,1.28,0,2.13.69,10.35,11,19.61,22.57,13.55,9.36-4.91,13.74-12.9,14-23.09a16.91,16.91,0,0,0-6.49-14.23c-6.35-4.94-13-4.44-20.41.89C84.3,41,81,48.14,81.22,57Z"/><path d="M19.45,37c-.6,0-1.59-.07-2.59-.14-1.43-.1-3.07-.09-3.15-2.06-.06-1.69,1.43-1.93,2.69-2.15,3.51-.61,7-1.24,10.53-1.71,3.1-.42,6.22-.66,9.34-.94q11.9-1.09,23.8-2.14a7,7,0,0,1,1.71,0c1.64.26,3.18.84,3.18,2.8s-1.57,2.21-3,2.35c-6.8.68-13.61,1.32-20.41,2l-18.7,1.78C21.84,36.86,20.84,36.93,19.45,37Z"/><path d="M51.61,65.48C44.82,66,38,66.63,31.24,67.16c-4.81.38-9.63.71-14.45,1a4.74,4.74,0,0,1-2.1-.13c-.7-.31-1.63-.92-1.73-1.51a2.34,2.34,0,0,1,1.17-1.93,14.39,14.39,0,0,1,4.1-1q18-1.87,36-3.66c2.26-.23,4.52-.46,6.78-.61,1.61-.11,3.08.55,2.89,2.27a3.71,3.71,0,0,1-2.2,2.6c-3.3.76-6.7,1.1-10.06,1.6Z"/><path d="M54.23,75A9.57,9.57,0,0,1,46,84a5.14,5.14,0,0,1-5.43-6.69A11.43,11.43,0,0,1,47.35,70C51,68.57,54.3,71,54.23,75Z"/><path d="M26.39,71.27a5.23,5.23,0,0,1,5.23,5.47c0,4-3.95,8.06-7.82,8a5.87,5.87,0,0,1-5.91-5.46C17.79,75.59,22.32,71.33,26.39,71.27Z"/><path class="cls-1" d="M81.22,57c-.24-8.86,3.08-16,9.7-20.75,7.38-5.33,14.06-5.83,20.41-.89a16.91,16.91,0,0,1,6.49,14.23c-.28,10.19-4.66,18.18-14,23.09-11.57,6.06-21.88-3.2-22.57-13.55C81.17,58.28,81.22,57.42,81.22,57Z"/></svg>