<svg id="레이어_1" xmlns="http://www.w3.org/2000/svg" viewBox="0 0 118.95 45.67"><defs><style>.cls-1{fill:#fff;}</style></defs><path d="M76.67,25.82l5-2.69c-1.43,2.52-.51,5.24-1.23,7.64l2.14,1.32c-1.7,3.16-4.68,4.33-7.36,5.86-3.42,1.95-7.57,2.55-10.36,5.71-.36.41-1.31.33-2,.41a222.82,222.82,0,0,1-36.61,1.35c-3.92-.21-7.84-.68-11.74-1.22a3.73,3.73,0,0,1-2.19-1.67A17.16,17.16,0,0,1,11.07,39L14.24,37,9.48,36V42c-2.82-.5-2.82-.5-2.76-5.74a35.43,35.43,0,0,1-4-1.89c-3.49-2.18-3.63-5.53-.24-7.89a22.74,22.74,0,0,1,4.62-2.09c1.16-.46,2.37-.78,3.37-1.1.17-.61.37-.91.3-1.13-1.58-4.54-.33-7.13,4.36-8,2.32-.42,4.79-.05,7.19.07,1.83.09,3.71.74,5.46.46,8.09-1.26,16.17-.37,24.27-.24,6.66.11,13.34-.2,20-.43,3.7-.13,5.4.62,6.25,3.6A8.14,8.14,0,0,1,78,21.22C77.69,22.54,77.24,23.83,76.67,25.82ZM74.36,18c-.91-.11-1.43-.23-1.94-.23-9.1,0-18.2,0-27.3,0-5.55,0-11.1-.15-16.65-.15-1.84,0-3.72.16-4.57,2.23.15.3.22.64.41.75,1.47.84,3.4,1.5,2.9,3.66s-2.63,2.27-4.47,2.49c-.42,0-.86,0-1.28.06a7.38,7.38,0,0,0-1.2.43L21.38,30l31.25-2.59a8.27,8.27,0,0,1,2.93,0,2.47,2.47,0,0,1,1.52,1.68,2.5,2.5,0,0,1-1.32,1.83,13.5,13.5,0,0,1-3.33.69c-2.47.4-5,.77-7.43,1.15l0,.66,16.8,1ZM32.68,37.45c-4.34-1.4-10.41-1.28-13.29.09C23.69,39.36,27.91,38,32.68,37.45Zm-16.24-21a6.6,6.6,0,0,0-2.27.75,8.81,8.81,0,0,0-1.45,2.24c.86.53,1.71,1.46,2.6,1.49,1.3.05,2.62-.54,4.41-1ZM8.58,30.31,7,27.44,3.11,30C5.56,32.65,5.56,32.65,8.58,30.31ZM60.93,41.13l0-.94-10.14.52v.42Z"/><path d="M73.92,0c11.87,1.51,23.15,2.78,34.37,4.47,2.84.43,5.55,2,8.2,3.33,2.06,1,2.85,3.52,2.28,5.91s-2.35,2.85-4.24,2.71c-3.34-.24-6.68-.73-10-1.26-9-1.44-17.94-3-26.92-4.44a10.23,10.23,0,0,0-3-.21,3.9,3.9,0,0,1-3.94-2c-1-1.46-3.1-3-1.85-4.76S72.33,1.12,73.92,0ZM109.7,7.72C99.51,5.35,89.67,3.77,79.56,4,88.73,6.09,98,7.79,107.22,9.45a3.59,3.59,0,0,0,1.6-.22C109,9.18,109.09,8.79,109.7,7.72ZM108,12.64c-9-3.23-18.31-4.7-27.74-5.92a8.5,8.5,0,0,0,0,1.34Q94.13,10.38,108,12.64Zm5.74,1c1.84.4,2.6-.1,2.58-1.57,0-1.63-.53-2.81-2.58-2.89ZM75.69,8V3.58L72.38,5.8Z"/><path class="cls-1" d="M74.36,18,61.85,34.42l-16.8-1,0-.66c2.48-.38,5-.75,7.43-1.15a13.5,13.5,0,0,0,3.33-.69,2.5,2.5,0,0,0,1.32-1.83,2.47,2.47,0,0,0-1.52-1.68,8.27,8.27,0,0,0-2.93,0L21.38,30l-1.12-2.86a7.38,7.38,0,0,1,1.2-.43c.42-.08.86,0,1.28-.06,1.84-.22,4-.24,4.47-2.49s-1.43-2.82-2.9-3.66c-.19-.11-.26-.45-.41-.75.85-2.07,2.73-2.24,4.57-2.23,5.55,0,11.1.13,16.65.15,9.1,0,18.2,0,27.3,0C72.93,17.73,73.45,17.85,74.36,18Z"/><path class="cls-1" d="M32.68,37.45c-4.77.51-9,1.91-13.29.09C22.27,36.17,28.34,36.05,32.68,37.45Z"/><path class="cls-1" d="M16.44,16.5,19.73,20c-1.79.43-3.11,1-4.41,1-.89,0-1.74-1-2.6-1.49a8.81,8.81,0,0,1,1.45-2.24A6.6,6.6,0,0,1,16.44,16.5Z"/><path class="cls-1" d="M8.58,30.31c-3,2.34-3,2.34-5.47-.32L7,27.44Z"/><path class="cls-1" d="M60.93,41.13H50.85v-.42L61,40.19Z"/><path class="cls-1" d="M109.7,7.72c-.61,1.07-.7,1.46-.88,1.51a3.59,3.59,0,0,1-1.6.22C98,7.79,88.73,6.09,79.56,4,89.67,3.77,99.51,5.35,109.7,7.72Z"/><path class="cls-1" d="M108,12.64Q94.14,10.36,80.27,8.06a8.5,8.5,0,0,1,0-1.34C89.69,7.94,99,9.41,108,12.64Z"/><path class="cls-1" d="M113.74,13.6V9.14c2.05.08,2.56,1.26,2.58,2.89C116.34,13.5,115.58,14,113.74,13.6Z"/><path class="cls-1" d="M75.69,8,72.38,5.8l3.31-2.22Z"/></svg>