<svg id="레이어_1" xmlns="http://www.w3.org/2000/svg" viewBox="0 0 518.5 280.9"><defs><style>.cls-1{fill:#fff;}.cls-2{fill:none;stroke:#000;stroke-miterlimit:10;stroke-width:5px;}</style></defs><path class="cls-1" d="M515.63,39.88S464.17,8.31,315.9,6.19c0,0-198.8-18.45-304.15,24,0,0-20.2,18,1.12,29.48L13.45,89S33.83,107,46,108.84c0,0-11.79,88.49-8.63,124.24,0,0,90.31,72.64,206.3,35.14,0,0,102.06-51.23,227.47-24.6l3.26-28.44,3.48-107.07s23.05-10.48,26.73-20.9Z"/><path d="M478.69,184.86l-1.22-.09c0-1.44,0-2.68,0-3.92q.09-28,.17-56a10.51,10.51,0,0,0-.28-3.38,2.7,2.7,0,0,0-1.79-1.39c-.38-.08-1.28.75-1.4,1.28a27.17,27.17,0,0,0-.65,5.07c-.32,11.26-.65,22.51-.83,33.76-.43,26.64-.77,53.29-1.17,79.93,0,1.07-.22,2.14-.37,3.49-1.72-.38-3.09-.65-4.44-1-24.7-6.3-49.72-9.86-75.26-8.93-11.39.42-22.78.83-34.14,1.67a368.35,368.35,0,0,0-83.28,16c-11.13,3.5-22,7.77-30.35,16.82-2.17-3.33-2.83-6.84-1.53-10.31a21.57,21.57,0,0,0,1.14-8.36c-.08-3.42-.06-6.84,0-10.26q0-37.83.1-75.66c0-11.17-.73-22.35.46-33.83-.82.11-1.88-.06-2.27.37a5.65,5.65,0,0,0-1.45,2.93c-.4,4.11-.74,8.24-.82,12.36-.23,12-.26,23.94-.48,35.9-.51,27.64-1.63,55.26-.48,82.91.17,4.14-.77,5.21-4.86,6.06a231.66,231.66,0,0,1-76.51,3.14c-14.26-1.77-28.42-4.34-42.62-6.53-23.25-3.59-44.44-12.07-63.13-26.49a86,86,0,0,1-7-6.17,8.9,8.9,0,0,1-2.64-6.07c-1.21-15.81-.72-31.61-.09-47.4.46-11.53,1.28-23,2-34.55q1-16.42,2.07-32.84c.1-1.5.36-3,.56-4.58,1.22.22,1.92.33,2.61.48,18.66,4,37.35,7.81,56.32,10,10.18,1.18,20.4,2.06,30.62,2.85,17.61,1.36,35.21,3.12,52.85,3.69,26.19.84,52.42.91,78.63,1.07,25.81.15,51.49-2,77.14-4.9,19.24-2.16,38.55-3.79,57.83-5.58,14.75-1.37,29.52-2.55,44.26-4,4.37-.42,8.68-1.41,13-2,6.19-.85,12.39-1.56,18.58-2.39a12.53,12.53,0,0,0,3.26-1c1.45-.62,2.31-1.75,1.8-3.4s-2-1.86-3.48-1.53c-2.36.5-4.7,1.17-7.08,1.55-22.39,3.58-45,5-67.56,6.91q-21.07,1.75-42.12,3.88c-16.86,1.69-33.68,3.94-50.57,5.26-36.69,2.85-73.47,2.44-110.21,1.33-21.63-.65-43.23-2.41-64.83-3.88-10.65-.72-21.34-1.45-31.89-3-16.35-2.33-32.62-5.19-48.87-8.1-11-2-21.68-4.86-31.43-10.56-3.67-2.14-7.35-4.26-11.46-6.65,0-3,0-6.41,0-9.81s-.46-6.64.09-9.81c.59-3.38-3.3-6.33-.67-9.72,22.72,9,31.06,11.46,49.35,15.16C94.1,81.25,126.35,85,158.74,87.34c24.28,1.76,48.63,2.91,73,3.59A1298.18,1298.18,0,0,0,391.79,86c22.69-2.17,45.3-4.94,67.64-9.56,16.33-3.37,32.56-7.12,47.47-15a6.87,6.87,0,0,1,1.78-.25c-1.1,6.36-2.42,12.47-3.15,18.65-.7,5.92-4,9.8-8.53,13.11-3.2,2.37-6.4,4.75-9.51,7.24-.64.52-.86,1.56-1.27,2.36a9.23,9.23,0,0,0,3,.41,12.78,12.78,0,0,0,3-1.52,52.47,52.47,0,0,1,5.3-2.66,15.06,15.06,0,0,0,6.56-5.25c1.64-2.06.89-4.17.5-6.28,4.87-.78,4.87-.79,5.42-5.9.68-6.37,1.41-12.74,2.05-19.11a12.15,12.15,0,0,1,3.22-7.6c4.19-4.52,4.2-10,.32-14.72a27.77,27.77,0,0,0-5-4.58c-2-1.52-3.74-1.48-4.48-.13-1,1.75.05,2.89,1.35,4,1.6,1.36,3.09,2.86,4.38,4.07-.69,3-1.37,5.46-1.8,8a5.28,5.28,0,0,1-2.72,4.09c-3.12,1.7-6.17,3.57-9.41,5-9.53,4.26-19.58,6.94-29.72,9.26-28.94,6.62-58.32,10.4-87.87,12.56Q340.49,85,300.54,86.29c-35.89,1.17-71.79.39-107.66-1.41-24.19-1.22-48.33-3-72.39-5.75-22.93-2.64-45.75-5.95-68.23-11.27-11.78-2.79-23.49-5.93-34.39-11.38a46,46,0,0,1-9.56-6.33c-4.47-3.9-4.29-7.54,0-11.6a12.25,12.25,0,0,1,2.32-1.88c3.48-1.92,6.91-4,10.54-5.59,9.83-4.28,20.17-7,30.6-9.34,26.72-6,53.86-9.31,81.1-11.83,32.19-3,64.47-4.29,96.78-4.86,0-1.63-.07-3.25-.1-4.88C198.34.5,167.57,2,136.58,4.5a3.31,3.31,0,0,1-.73.09h-.31l-6.75.54V4.59h-4.26v.7c-1.65.32-2.88.64-4.12.79C110.24,7.31,100,8.38,89.88,9.76A397.08,397.08,0,0,0,38,20c-9.08,2.5-18.09,5.27-26.21,10.16a41.1,41.1,0,0,0-8.89,7.2C-.28,40.76-1,45.14,1.48,49.23c1.68,2.8,1.74,5.51,1.67,8.54C3,67,3,76.26,3,85.51a4.52,4.52,0,0,0,1.12,3c.4.39,1.72-.14,2.72-.28.15.17.34.38.51.6,2.38,3.14,4.32,6.88,9.29,6.23.54-.07,1.23.66,1.79,1.09a71.89,71.89,0,0,0,22.48,11.11,14.7,14.7,0,0,1,2.22,1c-2.72,18.57-3.88,36.91-5,55.22C37,180.7,36.54,198,35.83,215.61a3,3,0,0,1,.11.82v9.11l.51-.18c.36,2.94.64,5.33.93,7.72s.91,4.79,3.94,5.38c.61.12,1.14.8,1.67,1.26,16.09,14.13,34.08,24.62,55.19,29.41,24.61,5.59,49.38,10.08,74.64,11.42,19,1,37.86,0,56.4-4.75.82-.21,1.86-.63,2.48-.32,1.73.87,3-.05,4.4-.69a44.05,44.05,0,0,1,9.25-3.15c2.94-.65,5.25-4.08,7.87-6.25a9.92,9.92,0,0,1,1.85-1.07,132.29,132.29,0,0,1,22.47-9.26c41.47-12.27,83.89-17.28,127-16.26a255,255,0,0,1,30.61,2.63c10.41,1.51,20.66,4.08,31,6.17,1.09.22,2.56.79,3.25.32a27.56,27.56,0,0,0,6.12-5.25c.93-1.14,1.09-3.15,1.11-4.77.24-14.82.37-29.64.55-44.45,0-1.51.17-3,.27-4.68l1.19,0C478.65,187.46,478.66,186.16,478.69,184.86ZM8.28,85.44c-1-1-2.17-1.6-2.11-2.08.09-.72,1-1.34,1.94-2.35a16.72,16.72,0,0,1,.44,2.13A17.61,17.61,0,0,1,8.28,85.44ZM7.86,62.06V57C10.1,58.18,10.1,58.18,7.86,62.06Z"/><path class="cls-2" d="M226.45,2.5s100.86,2.15,188.36,9.42"/><path d="M497.43,29.88C493.16,28,489,25.7,484.55,24.27c-21.07-6.8-42.82-10.52-64.68-13.65-6.59-.94-13.19-1.78-20-2.65a41.63,41.63,0,0,0,.14,4.74c1.14.12,2.3.25,3.45.39,20.52,2.39,41,5.31,61.08,10.08,10.66,2.52,21.18,5.62,31.77,8.42a12.48,12.48,0,0,0,2.53.14A2.91,2.91,0,0,0,497.43,29.88Z"/></svg>