<svg id="레이어_1" xmlns="http://www.w3.org/2000/svg" viewBox="0 0 147.08 210.95"><defs><style>.cls-1{fill:#fff;}</style></defs><path d="M147,128c.5,9.83-2,19.49-5.58,29.07s-7.61,18.71-13.54,27a73.45,73.45,0,0,1-14.74,15.34,24.23,24.23,0,0,1-6.35,3.44,131.47,131.47,0,0,1-44.23,8.1,37.24,37.24,0,0,1-20.42-5.13c-2.91-1.77-6.11-3.06-9.1-4.69a29.11,29.11,0,0,1-10.25-9.48c-1.68-2.47-3.37-4.95-5.23-7.29-10.16-12.79-15-27.79-17-43.61A63.64,63.64,0,0,1,4.6,108.46c2.19-5.4,4.24-10.86,6.3-16.31A37.41,37.41,0,0,1,19.43,79c4.88-5,9.8-9.92,14.69-14.89a16.16,16.16,0,0,0,1.62-2C42.9,52,50.15,42,57.14,31.76A115.15,115.15,0,0,0,63.5,20.22a4.07,4.07,0,0,0,.12-2c-.56-7.52,3.19-12.9,9.12-16.64C74.94.15,78.16.14,81,0c2.14-.1,3.92,1.87,4.33,4.07a4.45,4.45,0,0,1,0,2.53c-2.06,4.35.36,7.63,2.43,11a17.17,17.17,0,0,0,1.39,2.15c7.78,9.26,13.12,20,18,30.89a24.32,24.32,0,0,0,8.09,10.18A46.25,46.25,0,0,1,127.29,74a3.24,3.24,0,0,0,.47.71c5.69,5,8,12,10.78,18.67a14.77,14.77,0,0,0,1,2.33C145.69,105.44,147,116.33,147,128ZM40.64,70.09c-3.5,3.31-7.13,6.7-10.7,10.15-.6.58-1.44,1.44-1.36,2.07.29,2.41-1.21,3.22-2.95,4A3.57,3.57,0,0,0,24,87.67c-4,7.18-7.91,14.39-11.85,21.59-4.64,17.35-4.92,34.62,1.33,51.67a72.77,72.77,0,0,0,4.77,10.48c17.53,31.36,54.76,40.28,83.9,19.3,26.22-18.89,35.76-45.55,32.22-77.13-.62-5.54-3.3-10.84-4.73-16.33-1.82-6.93-5.58-12.73-9.94-18.23-1.14-1.44-2.23-2.8-4.38-3.08a4.4,4.4,0,0,1-2.67-2.36,15.15,15.15,0,0,0-6-6.43,53.7,53.7,0,0,0-39.18-8.23A58.4,58.4,0,0,0,42.73,69.14c.57.8,1,1.42,1.93,2.69ZM99.11,50.58c-2-7.8-12.56-25.38-19.29-32-1.58,3.67-4.64,5-8.27,4.64-3.22-.29-4.47,1.57-5.69,4a57,57,0,0,1-4.29,7.34c-4.89,6.83-10,13.54-14.92,20.32a22.84,22.84,0,0,0-1.47,3,53.37,53.37,0,0,1,20.23-6.56c2.11-.23,4.21-.62,6.32-.92C80.85,49.13,90,47.62,99.11,50.58Z"/><path class="cls-1" d="M40.64,70.09l4,1.74c-.92-1.27-1.36-1.89-1.93-2.69A58.4,58.4,0,0,1,67.44,58.92a53.7,53.7,0,0,1,39.18,8.23,15.15,15.15,0,0,1,6,6.43,4.4,4.4,0,0,0,2.67,2.36c2.15.28,3.24,1.64,4.38,3.08,4.36,5.5,8.12,11.3,9.94,18.23,1.43,5.49,4.11,10.79,4.73,16.33,3.54,31.58-6,58.24-32.22,77.13-29.14,21-66.37,12.06-83.9-19.3a72.77,72.77,0,0,1-4.77-10.48c-6.25-17.05-6-34.32-1.33-51.67C16.11,102.06,20,94.85,24,87.67a3.57,3.57,0,0,1,1.61-1.32c1.74-.82,3.24-1.63,2.95-4-.08-.63.76-1.49,1.36-2.07C33.51,76.79,37.14,73.4,40.64,70.09ZM75,91.93c2.21,3.09,3.64,5.2,5.2,7.21A8.88,8.88,0,0,0,83,101.72a3.46,3.46,0,0,0,3,0,3.28,3.28,0,0,0,.54-3,14.27,14.27,0,0,0-2.38-3.5A55.6,55.6,0,0,1,76.32,82c-1.28-.57-2.42-1.14-3.6-1.59a3.79,3.79,0,0,0-4.3,1c-3.12,3.08-6.3,6.11-9.44,9.18a9.65,9.65,0,0,0-2.23,2.53c-.36.77-.38,2.29.1,2.7a3.42,3.42,0,0,0,3,.55A13.4,13.4,0,0,0,63,93.59c2.11-2,4.2-4,6.3-6.06a5.89,5.89,0,0,1,.22,3.36c-1.73,9.22-3.53,18.44-5.16,27.68a9.49,9.49,0,0,1-2.32,5.22c-3.1,3.46-2.82,7.77-1.16,11.68,1.46,3.44,4.47,5.27,8.45,5.31a4.58,4.58,0,0,1,2.84,1.4c6.22,6.27,12.36,12.61,18.51,18.95,1.27,1.3,2.46,2.68,4.36,4.76-3.45-.89-5.86-1.68-8.33-2A3.28,3.28,0,0,0,83.93,165c-.76,1.43.49,2.28,1.71,2.88,3.7,1.82,7.38,3.69,11.09,5.48,4.14,2,6.56.78,7.36-3.69a10.88,10.88,0,0,0,.09-2.55c-.33-5-.67-10-1.07-14.91a7.79,7.79,0,0,0-.74-3.3c-.51-.84-1.66-1.84-2.48-1.8a3.34,3.34,0,0,0-2.35,2,16.83,16.83,0,0,0-.45,4.63c-.07,1.45,0,2.91,0,5.06l-23-22c.36-1.37.72-2.45.93-3.55.65-3.43.15-6.86-2.59-9-2.53-2-2.54-4.12-2.13-6.72.25-1.54.39-3.11.69-4.64C72.19,106.22,73.51,99.55,75,91.93ZM21.8,132.22a34.48,34.48,0,0,0,5-1.45c.71-.32,1.6-1.72,1.4-2.23-.33-.85-1.51-2-2.28-1.95a61.62,61.62,0,0,0-8.73,1.26,2.27,2.27,0,0,0-1.29,1.8,2.49,2.49,0,0,0,1.47,1.72A29.45,29.45,0,0,0,21.8,132.22Zm99.82-4.17c0,.14,0,.27.08.4a47.64,47.64,0,0,0,6.08-1.6,2.74,2.74,0,0,0,1.18-2.38c-.12-.71-1.29-1.84-1.9-1.79a67.2,67.2,0,0,0-9.15,1.53,2.74,2.74,0,0,0-1.35,2.29c.06.58,1.27,1.26,2.09,1.49A11.29,11.29,0,0,0,121.62,128.05ZM69.16,187.83c-1,.08-1.53,0-1.79.16-2.31,1.83-3.35,7.49-1.72,9.8a2.57,2.57,0,0,0,2,1,2.4,2.4,0,0,0,1.5-1.71C69.32,194.06,69.2,191,69.16,187.83ZM78.67,73.24C81,71.11,82.14,67,81.08,64.77a2.16,2.16,0,0,0-3.79-.2C75.89,66.55,76.48,70.86,78.67,73.24Z"/><path d="M75,91.93c-1.48,7.62-2.8,14.29-4.07,21-.3,1.53-.44,3.1-.69,4.64-.41,2.6-.4,4.75,2.13,6.72,2.74,2.14,3.24,5.57,2.59,9-.21,1.1-.57,2.18-.93,3.55l23,22c0-2.15,0-3.61,0-5.06a16.83,16.83,0,0,1,.45-4.63,3.34,3.34,0,0,1,2.35-2c.82,0,2,1,2.48,1.8a7.79,7.79,0,0,1,.74,3.3c.4,5,.74,9.94,1.07,14.91a10.88,10.88,0,0,1-.09,2.55c-.8,4.47-3.22,5.69-7.36,3.69-3.71-1.79-7.39-3.66-11.09-5.48-1.22-.6-2.47-1.45-1.71-2.88a3.28,3.28,0,0,1,2.79-1.19c2.47.37,4.88,1.16,8.33,2-1.9-2.08-3.09-3.46-4.36-4.76-6.15-6.34-12.29-12.68-18.51-18.95a4.58,4.58,0,0,0-2.84-1.4c-4,0-7-1.87-8.45-5.31-1.66-3.91-1.94-8.22,1.16-11.68a9.49,9.49,0,0,0,2.32-5.22c1.63-9.24,3.43-18.46,5.16-27.68a5.89,5.89,0,0,0-.22-3.36c-2.1,2-4.19,4-6.3,6.06a13.4,13.4,0,0,1-3.17,2.75,3.42,3.42,0,0,1-3-.55c-.48-.41-.46-1.93-.1-2.7A9.65,9.65,0,0,1,59,90.56c3.14-3.07,6.32-6.1,9.44-9.18a3.79,3.79,0,0,1,4.3-1c1.18.45,2.32,1,3.6,1.59a55.6,55.6,0,0,0,7.87,13.21,14.27,14.27,0,0,1,2.38,3.5,3.28,3.28,0,0,1-.54,3,3.46,3.46,0,0,1-3,0,8.88,8.88,0,0,1-2.79-2.58C78.63,97.13,77.2,95,75,91.93Z"/><path d="M21.8,132.22a29.45,29.45,0,0,1-4.47-.85,2.49,2.49,0,0,1-1.47-1.72,2.27,2.27,0,0,1,1.29-1.8,61.62,61.62,0,0,1,8.73-1.26c.77,0,1.95,1.1,2.28,1.95.2.51-.69,1.91-1.4,2.23A34.48,34.48,0,0,1,21.8,132.22Z"/><path d="M121.62,128.05a11.29,11.29,0,0,1-3-.06c-.82-.23-2-.91-2.09-1.49a2.74,2.74,0,0,1,1.35-2.29,67.2,67.2,0,0,1,9.15-1.53c.61-.05,1.78,1.08,1.9,1.79a2.74,2.74,0,0,1-1.18,2.38,47.64,47.64,0,0,1-6.08,1.6C121.67,128.32,121.64,128.19,121.62,128.05Z"/><path d="M69.16,187.83c0,3.17.16,6.23,0,9.28a2.4,2.4,0,0,1-1.5,1.71,2.57,2.57,0,0,1-2-1c-1.63-2.31-.59-8,1.72-9.8C67.63,187.79,68.16,187.91,69.16,187.83Z"/><path d="M78.67,73.24c-2.19-2.38-2.78-6.69-1.38-8.67a2.16,2.16,0,0,1,3.79.2C82.14,67,81,71.11,78.67,73.24Z"/></svg>