<svg id="레이어_1" xmlns="http://www.w3.org/2000/svg" viewBox="0 0 158.68 108.56"><defs><style>.cls-1{fill:#fff;}</style></defs><polygon class="cls-1" points="13.04 99.43 3.72 98.37 13.66 8.97 28.86 9.11 31 41.32 22.85 91.61 13.04 99.43"/><path d="M13.66,9c-.33,7.78-.89,14.54-.86,21.3A208.31,208.31,0,0,1,8.74,70C7.55,76.31,6.93,82.69,6,89c-.34,2.38-.68,4.77-1.16,7.13a4.32,4.32,0,0,1-1.15,2.22,2.83,2.83,0,0,1-2.19.8,2.69,2.69,0,0,1-1.4-1.83,10.22,10.22,0,0,1,0-3.4c1-6.74,1.92-13.48,3-20.21C4.06,67.85,5.34,62,6.06,56.12c1-8,1.7-16.07,2.26-24.13C8.86,24.21,9,16.39,9.4,8.6c.25-4.51,2.37-6.45,6.77-6.82C40.54-.31,65,.2,89.4.11c9.09,0,18.19-.19,27.28-.06,11.64.18,23.27.62,34.9.89a46.78,46.78,0,0,0,5.1-.43c2.44,2.32,2.37,2.29,1.23,5.46a12.86,12.86,0,0,0-.68,3.74c-.22,5.72,0,11.43-.55,17.16-.73,7.77-.64,15.62-1.22,23.4-1.06,14.16-2.37,28.3-3.57,42.45-.25,3-.39,6-.69,8.92-.19,1.93-.58,3.85-.82,5.41-10.89,3.23-21.29.3-31.7.13-11.64-.19-23.29-.13-34.94-.34-6.1-.11-12.19-.59-18.29-.84-11.76-.49-23.51-1-35.27-1.39-6.39-.2-12.78-.21-19.16-.22-2.64,0-5.29.25-7.94.38-.55-3.7-.37-3.31,2.62-4.69,2.74-1.27,5.12-3.39,7.51-5.33a29.55,29.55,0,0,0,4.07-4.29,5.18,5.18,0,0,0,1-2.59c1.06-9.74,2.15-19.47,3-29.23,1.14-12.43,2-24.89,3.23-37.32.27-2.77-.26-4.55-2.63-6.07C19.33,13.57,17,11.51,13.66,9Zm9.19,82.64c6.68-.37,12.5-.56,18.29-1a233.63,233.63,0,0,1,30.62-.89c7.66.37,15.32.8,23,.79,8.51,0,17-.56,25.54-.77,4.5-.11,9,0,14,0-.64-23.29,2.78-46.29,4.62-69.74l-4.23,1.21c-1-2.66-3.31-2.07-5.32-2.11-9.94-.18-19.89-.24-29.82-.52-11.5-.33-23-1.13-34.48-1.23C54,17.2,42.89,17.74,31.82,18c-4,.08-4.08.05-4.22,3.93-.29,7.67-.22,15.36-.77,23-.77,10.77-2,21.49-3,32.24C23.45,81.77,23.21,86.41,22.85,91.61ZM16.67,5.3c0,.28-.09.57-.13.85,3,2.08,6.31,3.86,9,6.32a6.68,6.68,0,0,0,6.11,1.9c1.12-.17,2.22-.53,3.35-.61,17.87-1.33,35.75-1,53.64-.52q22.77.62,45.53,1.35a8.28,8.28,0,0,0,6.49-2.31c2.34-2.21,5.15-3.92,8.59-6.46C104.47,3.88,60.57,5.12,16.67,5.3ZM13,99.43c8,.18,15,.24,22,.51,11.77.46,23.54,1,35.31,1.57,4.24.18,8.49.41,12.74.47,11.47.14,22.94,0,34.41.37,7.36.23,14.7,1.18,22.06,1.66,1.28.09,2.6-.52,4.24-.88-1.9-2.85-3.4-5.24-5.06-7.52-1.11-1.54-2.66-1.78-4.54-1.34a24.82,24.82,0,0,1-5.46.46c-4.38,0-8.77-.33-13.13-.09A349.07,349.07,0,0,1,80.29,95c-8.49-.41-17-.54-25.52-.37-8.22.16-16.43.87-24.64,1.32-1.7.09-3.4.11-5.1.13-2.3,0-4.6,0-6.9,0L18,95.43ZM153.49,8.76c-3.09,2-5.23,3.41-7.32,4.86a5.35,5.35,0,0,0-2.49,4.51c-.79,12-1.52,24.09-2.93,36.05-1.36,11.6-1.27,23.22-1.56,34.84a5.13,5.13,0,0,0,1.32,3.33c1.77,1.81,3.84,3.31,5.78,4.94C149.93,68.46,151.05,39,153.49,8.76Z"/><path class="cls-1" d="M22.85,91.61c.36-5.2.6-9.84,1-14.46,1-10.75,2.2-21.47,3-32.24.55-7.64.48-15.33.77-23,.14-3.88.23-3.85,4.22-3.93C42.89,17.74,54,17.2,65,17.29c11.5.1,23,.9,34.48,1.23,9.93.28,19.88.34,29.82.52,2,0,4.3-.55,5.32,2.11l4.23-1.21c-1.84,23.45-5.26,46.45-4.62,69.74-5,0-9.47-.09-14,0-8.52.21-17,.75-25.54.77-7.67,0-15.33-.42-23-.79a233.63,233.63,0,0,0-30.62.89C35.35,91.05,29.53,91.24,22.85,91.61Z"/><path class="cls-1" d="M16.67,5.3c43.9-.18,87.8-1.42,132.54.52-3.44,2.54-6.25,4.25-8.59,6.46a8.28,8.28,0,0,1-6.49,2.31q-22.77-.73-45.53-1.35c-17.89-.49-35.77-.81-53.64.52-1.13.08-2.23.44-3.35.61a6.68,6.68,0,0,1-6.11-1.9c-2.65-2.46-5.94-4.24-9-6.32C16.58,5.87,16.63,5.58,16.67,5.3Z"/><path class="cls-1" d="M13,99.43l5-4,.11.66c2.3,0,4.6,0,6.9,0,1.7,0,3.4,0,5.1-.13,8.21-.45,16.42-1.16,24.64-1.32,8.5-.17,17,0,25.52.37a349.07,349.07,0,0,0,35.29-.37c4.36-.24,8.75.11,13.13.09a24.82,24.82,0,0,0,5.46-.46c1.88-.44,3.43-.2,4.54,1.34,1.66,2.28,3.16,4.67,5.06,7.52-1.64.36-3,1-4.24.88-7.36-.48-14.7-1.43-22.06-1.66C106,102,94.53,102.12,83.06,102c-4.25-.06-8.5-.29-12.74-.47C58.55,101,46.78,100.4,35,99.94,28,99.67,21,99.61,13,99.43Z"/><path class="cls-1" d="M153.49,8.76c-2.44,30.23-3.56,59.7-7.2,88.53-1.94-1.63-4-3.13-5.78-4.94A5.13,5.13,0,0,1,139.19,89c.29-11.62.2-23.24,1.56-34.84,1.41-12,2.14-24,2.93-36a5.35,5.35,0,0,1,2.49-4.51C148.26,12.17,150.4,10.8,153.49,8.76Z"/></svg>