<svg width="16" height="16" viewBox="0 0 16 16" fill="none" xmlns="http://www.w3.org/2000/svg">
<path d="M3.92584 10.6665H1.33317C1.15636 10.6665 0.98679 10.5963 0.861766 10.4713C0.736742 10.3462 0.666504 10.1767 0.666504 9.99985V5.99985C0.666504 5.82304 0.736742 5.65347 0.861766 5.52845C0.98679 5.40342 1.15636 5.33318 1.33317 5.33318H3.92584L7.45517 2.44518C7.504 2.40515 7.56321 2.37981 7.62588 2.37211C7.68856 2.36442 7.75213 2.37468 7.8092 2.40172C7.86627 2.42875 7.91448 2.47144 7.94823 2.52481C7.98198 2.57818 7.99988 2.64004 7.99984 2.70318V13.2965C7.99988 13.3597 7.98198 13.4215 7.94823 13.4749C7.91448 13.5283 7.86627 13.571 7.8092 13.598C7.75213 13.625 7.68856 13.6353 7.62588 13.6276C7.56321 13.6199 7.504 13.5946 7.45517 13.5545L3.9265 10.6665H3.92584ZM13.6092 7.99985L15.9665 10.3572L15.0238 11.2999L12.6665 8.94252L10.3092 11.2999L9.3665 10.3572L11.7238 7.99985L9.3665 5.64252L10.3092 4.69985L12.6665 7.05719L15.0238 4.69985L15.9665 5.64252L13.6092 7.99985Z" fill="#587BFA"/>
</svg>
