<svg xmlns="http://www.w3.org/2000/svg" viewBox="0 0 1071.55 258.31"><defs><style>.cls-1{fill:#fff;}.cls-2{fill:#63f4ae;}</style></defs><path class="cls-1" d="M16,238.13V15.43H321.17v47.3H78.23v40.12H321.09v47.42H78.23v87.86Z" transform="translate(-16.02 0)"/><path class="cls-1" d="M345.79,238.13V15.43H408V187.3h96.38v50.83Z" transform="translate(-16.02 0)"/><path class="cls-1" d="M1087.57,104.38h0v132.9h-52.5l-.81-150c0-.1,0-.19,0-.29s0-.25,0-.37V85.46h-.06a18.05,18.05,0,0,0-36,0H998V237.11h-52.5V85.46h-.14a18.06,18.06,0,0,0-36,0h-.1V237.11h-52.5V104.38h0V85.93c0-.59,0-1.18.06-1.76a72.09,72.09,0,0,1,1.88-16.88c8.4-36.14,42.31-59.14,75.73-51.37,17,4,30.64,14.17,38.77,29,14.28-23.25,40.78-35.08,67-29,28.45,6.62,47.32,33.4,47.13,63.51Z" transform="translate(-16.02 0)"/><path class="cls-2" d="M616.33,258.31a70.54,70.54,0,0,1-15.94-1.82c-26.91-6.26-47.75-26.94-58.66-58.22-9.26-26.55-10.3-58.62-2.94-90.29s22.46-60,42.48-79.73C604.87,5,632.69-4.37,659.61,1.9A73.09,73.09,0,0,1,692,19C712.47,3.91,735.68-2,757.48,3.09c26.71,6.21,47.37,26.71,58.19,57.73h0c9.17,26.29,10.2,58,2.91,89.4-6.67,28.66-20.07,55-37.75,74.25-19.37,21.05-42.88,32.64-66.19,32.64a70.05,70.05,0,0,1-15.82-1.81,71.89,71.89,0,0,1-31-15.87C651.84,251.74,634.16,258.31,616.33,258.31ZM643.41,48c-11.88,0-22.66,8.7-28.44,14.4-13.64,13.44-24.09,33.48-29.42,56.41s-4.8,45.53,1.5,63.61c3.07,8.8,10.3,24,24.22,27.28a22.43,22.43,0,0,0,5.06.57c11,0,23.75-7.8,34.85-21.41a24,24,0,0,1,39.49,3.36c5.12,9.06,11.52,14.54,19,16.28a21.54,21.54,0,0,0,4.95.57c19.7,0,47.17-26.67,57.19-69.76,5.26-22.62,4.73-44.9-1.48-62.72h0c-3-8.65-10.11-23.62-23.74-26.79C735,47.14,720.55,54.55,708,69.65a24,24,0,0,1-39.49-3.8c-3.62-6.59-10-14.93-19.76-17.2A23.11,23.11,0,0,0,643.41,48Z" transform="translate(-16.02 0)"/></svg>