<svg width="83" height="19" viewBox="0 0 83 19" fill="none" xmlns="http://www.w3.org/2000/svg">
<g clip-path="url(#clip0_480:960)">
<path d="M0.998535 17.5157V1.13495H23.2124V4.6141H5.52837V7.56513H23.2066V11.0531H5.52837V17.5157H0.998535Z" fill="#4B6AD8"/>
<path d="M25.0045 17.5157V1.13495H29.5329V13.7769H37.5486V17.5157H25.0045Z" fill="#4B6AD8"/>
<path d="M82 7.46206V17H77.6783L77.6116 6.23484C77.6116 6.22766 77.6116 6.2212 77.6116 6.21402C77.6116 6.20685 77.6116 6.19608 77.6116 6.18747V6.10422H77.6066C77.5788 5.77824 77.4106 5.4735 77.1357 5.25112C76.8609 5.02874 76.4999 4.90516 76.1249 4.90516C75.75 4.90516 75.3889 5.02874 75.1141 5.25112C74.8393 5.4735 74.6711 5.77824 74.6432 6.10422H74.6267V16.9878H70.305V6.10422H70.2934C70.263 5.77982 70.0938 5.47727 69.8192 5.25669C69.5447 5.03611 69.185 4.91366 68.8117 4.91366C68.4384 4.91366 68.0787 5.03611 67.8042 5.25669C67.5297 5.47727 67.3604 5.77982 67.33 6.10422H67.3217V16.9878H63V7.46206V6.13795C63 6.09561 63 6.05326 63.0049 6.01164C63.0016 5.60392 63.0535 5.19728 63.1597 4.8002C63.8512 2.20651 66.6426 0.555851 69.3937 1.11349C70.7931 1.40056 71.916 2.13044 72.5852 3.19475C73.7607 1.52615 75.9422 0.677139 78.1006 1.11349C80.4425 1.58859 81.9959 3.51053 81.9802 5.67146L82 7.46206Z" fill="#4B6AD8"/>
<path d="M45.6975 19C45.307 19.0001 44.9177 18.9552 44.5372 18.8661C42.5784 18.4057 41.0614 16.8846 40.2673 14.5838C39.5932 12.6309 39.5175 10.272 40.0532 7.94248C40.589 5.61299 41.6881 3.52917 43.1454 2.07793C44.8633 0.367778 46.8884 -0.321432 48.8479 0.139758C49.7267 0.350019 50.5381 0.782874 51.2057 1.39755C52.6957 0.287603 54.3852 -0.147107 55.972 0.227288C57.9163 0.684065 59.4202 2.19194 60.2078 4.47362C60.8753 6.40738 60.9503 8.73981 60.4196 11.0494C59.9341 13.1575 58.9587 15.095 57.6717 16.5109C56.2618 18.0592 54.5504 18.9117 52.8537 18.9117C52.466 18.9117 52.0797 18.8671 51.7021 18.7786C50.8666 18.5823 50.0917 18.1814 49.4456 17.6113C48.2823 18.5167 46.9954 19 45.6975 19ZM47.6687 3.53064C46.8039 3.53064 46.0192 4.17057 45.5985 4.58984C44.6056 5.57842 43.845 7.05246 43.457 8.73908C43.069 10.4257 43.1076 12.088 43.5662 13.4179C43.7896 14.0652 44.3159 15.1832 45.3292 15.4245C45.45 15.4526 45.5736 15.4666 45.6975 15.4664C46.4982 15.4664 47.4263 14.8927 48.2343 13.8916C48.414 13.669 48.6447 13.4941 48.9064 13.3821C49.1681 13.27 49.4529 13.2242 49.7361 13.2485C50.0193 13.2729 50.2924 13.3667 50.5316 13.5218C50.7708 13.6769 50.969 13.8887 51.1088 14.1388C51.4815 14.8052 51.9474 15.2082 52.4919 15.3362C52.61 15.3642 52.7309 15.3783 52.8522 15.3782C54.2862 15.3782 56.2858 13.4164 57.0152 10.247C57.398 8.58314 57.3595 6.94433 56.9074 5.63358C56.689 4.99733 56.1715 3.89621 55.1793 3.66304C54.3357 3.46739 53.2839 4.01243 52.3703 5.12311C52.1883 5.34426 51.9555 5.5171 51.6923 5.6266C51.429 5.7361 51.1433 5.77894 50.8599 5.75139C50.5765 5.72383 50.3041 5.62673 50.0664 5.46851C49.8286 5.3103 49.6328 5.09577 49.4958 4.8436C49.2323 4.35887 48.7679 3.74543 48.0574 3.57846C47.9301 3.54728 47.7997 3.53124 47.6687 3.53064Z" fill="#4B6AD8"/>
</g>
<defs>
<clipPath id="clip0_480:960">
<rect width="83" height="19" fill="white"/>
</clipPath>
</defs>
</svg>
