<svg width="current" height="current" viewBox="0 0 24 24" xmlns="http://www.w3.org/2000/svg">
<path d="M19.5 18V15.5H20.5V18V18.5H21H23.5V19.5H21H20.5V20V22.5H19.5V20V19.5H19H16.5V18.5H19H19.5V18ZM21.5 3.993V12.6745C21.1713 12.5967 20.837 12.5447 20.5 12.5189V5V4.5H20H4H3.49996L3.5 5.00004L3.501 19L3.50109 20.2071L4.35457 19.3535L13.6466 10.0605L13.6471 10.06C13.733 9.9738 13.8474 9.92198 13.9689 9.91425C14.0847 9.90688 14.1993 9.94014 14.2931 10.008L14.3603 10.0694L17.35 13.0625C16.7972 13.3094 16.2803 13.6329 15.815 14.0244C15.1432 14.5897 14.5927 15.2852 14.1969 16.069C13.8011 16.8528 13.5682 17.7087 13.5121 18.5849C13.4708 19.2294 13.5259 19.8751 13.6743 20.5009L2.9925 20.5C2.86184 20.4999 2.73657 20.4479 2.64422 20.3554C2.55187 20.263 2.5 20.1377 2.5 20.007V3.99504C2.50129 3.86425 2.55378 3.73915 2.64624 3.64659C2.73866 3.55408 2.86362 3.50147 2.99433 3.5H21.008C21.2792 3.5 21.5 3.72049 21.5 3.993ZM8 7.5C8.39782 7.5 8.77936 7.65803 9.06066 7.93934C9.34196 8.22064 9.5 8.60218 9.5 9C9.5 9.39782 9.34196 9.77935 9.06066 10.0607C8.77935 10.342 8.39782 10.5 8 10.5C7.60218 10.5 7.22064 10.342 6.93934 10.0607C6.65803 9.77936 6.5 9.39782 6.5 9C6.5 8.60217 6.65803 8.22064 6.93934 7.93934C7.22064 7.65803 7.60217 7.5 8 7.5Z" fill="current" stroke="current"/>
</svg>
