<svg width="15" height="13" viewBox="0 0 15 13" xmlns="http://www.w3.org/2000/svg">
<path fill="current" d="M6.48985 12.4565C6.27183 12.4565 6.06835 12.3273 5.98114 12.1191C4.30968 8.09209 1.43184 6.08935 1.41004 6.06782C1.16295 5.89554 1.09755 5.56534 1.27196 5.3141C1.44638 5.07004 1.78067 5.00543 2.03503 5.17771C2.1513 5.25667 4.55676 6.92203 6.35904 10.3389C7.1003 8.0203 9.01885 3.49082 13.2847 0.533387C13.5318 0.361109 13.8734 0.41854 14.0478 0.662601C14.2222 0.906661 14.1641 1.24404 13.917 1.41632C8.47381 5.19208 7.04943 11.9468 7.03489 12.0114C6.98402 12.2483 6.78781 12.4206 6.54799 12.4421C6.52619 12.4565 6.50438 12.4565 6.48985 12.4565Z" />
<path fill="current" d="M6.49049 12.6356C6.19253 12.6356 5.93091 12.4633 5.81463 12.1905C4.1795 8.26403 1.41794 6.30437 1.30167 6.21823C0.974642 5.99571 0.894702 5.54348 1.11999 5.22046C1.35254 4.89744 1.80311 4.81129 2.13013 5.03381C2.23188 5.09842 4.50653 6.67046 6.30881 9.88631C7.16634 7.39546 9.12124 3.20336 13.1691 0.38949C13.329 0.281817 13.5179 0.238748 13.7141 0.267461C13.9031 0.303353 14.0702 0.403851 14.1865 0.561772C14.4191 0.884793 14.3391 1.33702 14.0121 1.56672C8.67066 5.2707 7.21722 11.9895 7.20268 12.0541C7.13728 12.3628 6.88292 12.5997 6.5559 12.6284C6.53409 12.6356 6.51229 12.6356 6.49049 12.6356ZM1.72317 5.26352C1.60689 5.26352 1.49062 5.32095 1.41795 5.42145C1.30167 5.58655 1.34527 5.80907 1.51242 5.92392C1.63596 6.01006 4.47746 8.02714 6.14893 12.0541C6.20706 12.1905 6.33787 12.2767 6.48322 12.2767H6.51956C6.67944 12.2623 6.81025 12.1475 6.83932 11.9895C6.89746 11.7096 8.33637 5.06253 13.7941 1.2796C13.9612 1.16474 13.9976 0.942221 13.8813 0.777122C13.8231 0.698161 13.7432 0.647908 13.6487 0.626374C13.5543 0.604839 13.4598 0.633553 13.3726 0.683801C9.17937 3.59099 7.27535 8.01279 6.51229 10.396L6.38148 10.8123L6.178 10.4247C4.39025 7.03655 2.01386 5.39991 1.91212 5.32813C1.86852 5.28506 1.79584 5.26352 1.72317 5.26352Z" />
</svg>
