<svg width="current" height="current" viewBox="0 0 56 56" fill="none" xmlns="http://www.w3.org/2000/svg">
<path d="M42.5099 31.0672C44.5847 22.9595 39.7688 15.0139 31.7532 13.3201C23.7377 11.6262 15.5578 16.8257 13.483 24.9333C11.4082 33.041 16.2241 40.9866 24.2396 42.6805C32.2552 44.3743 40.435 39.1748 42.5099 31.0672Z" fill="white"/>
<path d="M28.6941 13C21.7542 13 15.2902 17.8559 13.4859 24.9369C11.4138 33.045 16.2321 40.991 24.2426 42.6847C25.2638 42.9009 26.2948 43.009 27.3061 43.009C34.2459 43.009 40.7099 38.1532 42.5143 31.0721C44.5863 22.964 39.7681 15.018 31.7575 13.3243C30.7363 13.1081 29.7053 13 28.6941 13Z" fill="#587BFA"/>
<path d="M40.4241 30.6263C42.2 23.6866 38.0757 16.8851 31.212 15.4347C24.3484 13.9843 17.3447 18.4343 15.5688 25.374C13.7928 32.3137 17.9172 39.1152 24.7808 40.5656C31.6444 42.016 38.6482 37.5661 40.4241 30.6263Z" fill="white"/>
<path d="M40.4241 30.6261C42.2 23.6864 38.0757 16.8848 31.212 15.4344C24.3484 13.984 17.3447 18.434 15.5688 25.3737C13.7928 32.3135 17.9172 39.115 24.7808 40.5654C31.6444 42.0158 38.6482 37.5658 40.4241 30.6261Z" fill="white"/>
<path d="M28.5091 16.9998C23.4181 16.9998 18.6763 20.5596 17.3527 25.7509C15.8326 31.695 19.3672 37.5203 25.2436 38.762C25.9927 38.9205 26.7491 38.9998 27.4909 38.9998C32.5819 38.9998 37.3237 35.4399 38.6473 30.2486C40.1674 24.3045 36.6328 18.4792 30.7564 17.2375C30.0073 17.079 29.2509 16.9998 28.5091 16.9998Z" fill="#E55D5D"/>
<path d="M17 13.6866L13 18.353" stroke="#587BFA" stroke-width="2" stroke-linecap="round"/>
<path d="M24 41.5L22.5 47" stroke="#587BFA" stroke-width="2" stroke-linecap="round"/>
<path d="M35 40L37.5 47" stroke="#587BFA" stroke-width="2" stroke-linecap="round"/>
<path d="M41.1646 15.264L36 11.2716" stroke="#587BFA" stroke-width="2" stroke-linecap="round"/>
<path d="M32 23L24 34" stroke="white" stroke-width="2" stroke-linecap="round"/>
<path d="M31.464 33.2495L23.8531 23.7976" stroke="white" stroke-width="2" stroke-linecap="round"/>
</svg>
