<svg width="16" height="16" viewBox="0 0 16 16" fill="none" xmlns="http://www.w3.org/2000/svg">
<path d="M3.21866 14L3.20533 14.0133L3.19133 14H1.99466C1.8192 13.9998 1.65099 13.93 1.52699 13.8059C1.40298 13.6817 1.33333 13.5135 1.33333 13.338V2.662C1.33455 2.48692 1.4046 2.31934 1.52834 2.19548C1.65208 2.07161 1.81958 2.0014 1.99466 2H14.0053C14.3707 2 14.6667 2.29667 14.6667 2.662V13.338C14.6654 13.5131 14.5954 13.6807 14.4717 13.8045C14.3479 13.9284 14.1804 13.9986 14.0053 14H3.21866V14ZM13.3333 10V3.33333H2.66666V12.6667L9.33333 6L13.3333 10ZM13.3333 11.8853L9.33333 7.88533L4.552 12.6667H13.3333V11.8853ZM5.33333 7.33333C4.97971 7.33333 4.64057 7.19286 4.39052 6.94281C4.14047 6.69276 3.99999 6.35362 3.99999 6C3.99999 5.64638 4.14047 5.30724 4.39052 5.05719C4.64057 4.80714 4.97971 4.66667 5.33333 4.66667C5.68695 4.66667 6.02609 4.80714 6.27614 5.05719C6.52619 5.30724 6.66666 5.64638 6.66666 6C6.66666 6.35362 6.52619 6.69276 6.27614 6.94281C6.02609 7.19286 5.68695 7.33333 5.33333 7.33333Z" fill="#C4C0B6"/>
</svg>
