<svg width="current" height="current" viewBox="0 0 56 56" fill="none" xmlns="http://www.w3.org/2000/svg">
<path d="M42.5097 31.0672C44.5845 22.9595 39.7686 15.0139 31.7531 13.3201C23.7375 11.6262 15.5577 16.8257 13.4829 24.9333C11.408 33.041 16.224 40.9866 24.2395 42.6805C32.2551 44.3743 40.4349 39.1748 42.5097 31.0672Z" fill="white"/>
<path d="M28.6938 13C21.754 13 15.29 17.8559 13.4856 24.9369C11.4136 33.045 16.2318 40.991 24.2424 42.6847C25.2635 42.9009 26.2946 43.009 27.3058 43.009C34.2457 43.009 40.7097 38.1532 42.514 31.0721C44.5861 22.964 39.7678 15.018 31.7573 13.3243C30.7361 13.1081 29.705 13 28.6938 13Z" fill="#587BFA"/>
<path d="M40.424 30.6263C42.1999 23.6866 38.0755 16.8851 31.2119 15.4347C24.3483 13.9843 17.3446 18.4343 15.5686 25.374C13.7927 32.3137 17.9171 39.1152 24.7807 40.5656C31.6443 42.016 38.6481 37.5661 40.424 30.6263Z" fill="white"/>
<path d="M40.424 30.6261C42.1999 23.6864 38.0755 16.8848 31.2119 15.4344C24.3483 13.984 17.3446 18.434 15.5686 25.3737C13.7927 32.3135 17.9171 39.115 24.7807 40.5654C31.6443 42.0158 38.6481 37.5658 40.424 30.6261Z" fill="white"/>
<path d="M28.5091 16.9998C23.4181 16.9998 18.6763 20.5596 17.3527 25.7509C15.8326 31.695 19.3672 37.5203 25.2436 38.762C25.9927 38.9205 26.7491 38.9998 27.4909 38.9998C32.5819 38.9998 37.3237 35.4399 38.6473 30.2486C40.1674 24.3045 36.6328 18.4792 30.7564 17.2375C30.0073 17.079 29.2509 16.9998 28.5091 16.9998Z" fill="#5CE8A4"/>
<mask id="path-7-inside-1_605:3209" fill="white">
<path d="M26.4977 34.1977C26.2796 34.1977 26.0762 34.0685 25.989 33.8603C24.3175 29.8333 21.4397 27.8306 21.4179 27.809C21.1708 27.6368 21.1054 27.3065 21.2798 27.0553C21.4542 26.8113 21.7885 26.7466 22.0428 26.9189C22.1591 26.9979 24.5646 28.6632 26.3669 32.0801C27.1081 29.7615 29.0267 25.232 33.2925 22.2746C33.5396 22.1023 33.8812 22.1598 34.0556 22.4038C34.23 22.6479 34.1719 22.9853 33.9248 23.1575C28.4816 26.9333 27.0572 33.688 27.0427 33.7526C26.9918 33.9895 26.7956 34.1618 26.5558 34.1833C26.534 34.1977 26.5122 34.1977 26.4977 34.1977Z"/>
</mask>
<path d="M26.4977 34.1977C26.2796 34.1977 26.0762 34.0685 25.989 33.8603C24.3175 29.8333 21.4397 27.8306 21.4179 27.809C21.1708 27.6368 21.1054 27.3065 21.2798 27.0553C21.4542 26.8113 21.7885 26.7466 22.0428 26.9189C22.1591 26.9979 24.5646 28.6632 26.3669 32.0801C27.1081 29.7615 29.0267 25.232 33.2925 22.2746C33.5396 22.1023 33.8812 22.1598 34.0556 22.4038C34.23 22.6479 34.1719 22.9853 33.9248 23.1575C28.4816 26.9333 27.0572 33.688 27.0427 33.7526C26.9918 33.9895 26.7956 34.1618 26.5558 34.1833C26.534 34.1977 26.5122 34.1977 26.4977 34.1977Z" fill="white"/>
<path d="M25.989 33.8603L25.0654 34.2437L25.0666 34.2467L25.989 33.8603ZM21.4179 27.809L22.1206 27.0976L22.0598 27.0376L21.9898 26.9887L21.4179 27.809ZM21.2798 27.0553L20.4661 26.4738L20.4583 26.485L21.2798 27.0553ZM22.0428 26.9189L22.6046 26.0916L22.6036 26.091L22.0428 26.9189ZM26.3669 32.0801L25.4824 32.5466L26.5939 34.6539L27.3194 32.3846L26.3669 32.0801ZM33.2925 22.2746L33.8623 23.0964L33.8645 23.0949L33.2925 22.2746ZM33.9248 23.1575L34.4948 23.9792L34.4967 23.9778L33.9248 23.1575ZM27.0427 33.7526L26.067 33.5331L26.065 33.5426L27.0427 33.7526ZM26.5558 34.1833L26.4664 33.1873L26.2159 33.2098L26.0058 33.3481L26.5558 34.1833ZM26.4977 33.1977C26.6713 33.1977 26.8384 33.3 26.9113 33.4739L25.0666 34.2467C25.3139 34.837 25.888 35.1977 26.4977 35.1977V33.1977ZM26.9126 33.4769C26.0217 31.3307 24.8105 29.7258 23.8189 28.6536C23.3224 28.1168 22.8786 27.711 22.5533 27.4349C22.3904 27.2967 22.2572 27.191 22.1619 27.1176C22.1142 27.0809 22.0766 27.0527 22.0504 27.0333C22.0397 27.0253 22.0254 27.0148 22.0233 27.0132C22.0202 27.0109 22.0219 27.0122 22.0252 27.0147C22.0265 27.0157 22.0325 27.0202 22.0403 27.0264C22.0442 27.0295 22.0519 27.0357 22.0615 27.0437C22.0671 27.0484 22.0916 27.0689 22.1206 27.0976L20.7151 28.5205C20.7443 28.5493 20.769 28.57 20.775 28.575C20.7849 28.5834 20.7931 28.5899 20.7974 28.5934C20.8063 28.6004 20.8137 28.606 20.8167 28.6083C20.8235 28.6134 20.8299 28.6182 20.833 28.6205C20.8431 28.628 20.8465 28.6304 20.8585 28.6393C20.8776 28.6535 20.9057 28.6745 20.942 28.7025C21.0148 28.7585 21.1231 28.8443 21.2592 28.9598C21.5318 29.1911 21.916 29.5417 22.3506 30.0116C23.2213 30.9529 24.2847 32.3629 25.0654 34.2436L26.9126 33.4769ZM21.9898 26.9887C22.1826 27.1232 22.2499 27.4114 22.1012 27.6256L20.4583 26.485C19.9608 27.2017 20.1589 28.1503 20.8459 28.6293L21.9898 26.9887ZM22.0934 27.6367C21.9563 27.8285 21.6825 27.8826 21.482 27.7469L22.6036 26.091C21.8945 25.6106 20.952 25.794 20.4662 26.4739L22.0934 27.6367ZM21.481 27.7462C21.5222 27.7742 23.7845 29.3278 25.4824 32.5466L27.2513 31.6135C25.3446 27.9987 22.796 26.2216 22.6046 26.0916L21.481 27.7462ZM27.3194 32.3846C28.0341 30.1491 29.8628 25.8692 33.8623 23.0964L32.7228 21.4528C28.1905 24.5949 26.1822 29.3739 25.4143 31.7756L27.3194 32.3846ZM33.8645 23.0949C33.6674 23.2323 33.3897 23.1919 33.242 22.9852L34.8692 21.8224C34.3727 21.1276 33.4119 20.9723 32.7206 21.4543L33.8645 23.0949ZM33.242 22.9852C33.0918 22.7751 33.1444 22.4826 33.3529 22.3372L34.4967 23.9778C35.1994 23.4879 35.3682 22.5206 34.8692 21.8224L33.242 22.9852ZM33.3548 22.3359C30.441 24.3571 28.628 27.155 27.5461 29.4149C27.0027 30.5497 26.6368 31.5634 26.4048 32.3008C26.2887 32.6699 26.2058 32.9709 26.1508 33.1847C26.1233 33.2916 26.1028 33.3768 26.0886 33.4377C26.0752 33.4953 26.0651 33.5418 26.0671 33.5331L28.0183 33.9721C28.0323 33.9102 29.3966 27.5156 34.4948 23.9792L33.3548 22.3359ZM26.065 33.5426C26.1065 33.3492 26.2719 33.2048 26.4664 33.1873L26.6452 35.1793C27.3193 35.1188 27.8771 34.6297 28.0204 33.9626L26.065 33.5426ZM26.0058 33.3481C26.2541 33.1846 26.5045 33.1977 26.4977 33.1977V35.1977C26.5198 35.1977 26.8139 35.2107 27.1058 35.0185L26.0058 33.3481Z" fill="white" mask="url(#path-7-inside-1_605:3209)"/>
<path d="M26.2625 31.0372C24.5029 28.1192 22.4325 26.6684 22.2759 26.5665C21.8333 26.2675 21.2333 26.3873 20.9249 26.8156L20.9249 26.8156L20.9227 26.8187C20.6197 27.2531 20.7247 27.8607 21.1649 28.1634C21.1665 28.1646 21.1683 28.1659 21.1703 28.1674C21.3761 28.3176 24.0157 30.2435 25.5917 34.0278L25.5916 34.0278L25.5925 34.0298C25.7483 34.3953 26.1008 34.6268 26.4983 34.6268C26.4994 34.6268 26.5006 34.6268 26.502 34.6268C26.5186 34.6269 26.5599 34.6272 26.6077 34.6165C27.0369 34.5692 27.369 34.2531 27.4551 33.8472L27.2105 33.7953M26.2625 31.0372C27.2105 28.4886 29.1896 24.598 33.0342 21.9254L33.0372 21.9233L33.0373 21.9233C33.2495 21.7804 33.5013 21.7237 33.7582 21.7613L33.7686 21.7628L33.7686 21.7631C34.0164 21.8101 34.2401 21.9435 34.3956 22.1548L34.3972 22.1569L34.3972 22.1569C34.7126 22.5951 34.6024 23.2043 34.1636 23.5125L34.1624 23.5134C31.5399 25.3319 29.8652 27.8961 28.843 30.0246C27.8355 32.1226 27.4696 33.7814 27.4548 33.8484L27.4544 33.8502L27.2105 33.7953M26.2625 31.0372C26.3176 31.1285 26.3723 31.2213 26.4267 31.3155C27.3366 28.7981 29.2936 24.8302 33.1769 22.1307C33.3368 22.023 33.5257 21.98 33.722 22.0087C33.9109 22.0446 34.078 22.1451 34.1943 22.303C34.4269 22.626 34.3469 23.0782 34.0199 23.3079C28.7172 26.985 27.2463 33.6334 27.211 33.7929L27.2105 33.7953M27.2105 33.7953C27.1451 34.104 26.8907 34.3409 26.5637 34.3696" fill="white" stroke="white" stroke-width="0.5"/>
<path d="M17.0001 13.6866L13.0001 18.353" stroke="#587BFA" stroke-width="2" stroke-linecap="round"/>
<path d="M24 41.5L22.5 47" stroke="#587BFA" stroke-width="2" stroke-linecap="round"/>
<path d="M35 40L37.5 47" stroke="#587BFA" stroke-width="2" stroke-linecap="round"/>
<path d="M41.1646 15.264L36 11.2716" stroke="#587BFA" stroke-width="2" stroke-linecap="round"/>
</svg>
