<svg width="36" height="36" viewBox="0 0 36 36" fill="none" xmlns="http://www.w3.org/2000/svg">
<path d="M21.757 9.9L19.757 11.9H12V23.9H24V16.143L26 14.143V24.9C26 25.1652 25.8946 25.4196 25.7071 25.6071C25.5196 25.7946 25.2652 25.9 25 25.9H11C10.7348 25.9 10.4804 25.7946 10.2929 25.6071C10.1054 25.4196 10 25.1652 10 24.9V10.9C10 10.6348 10.1054 10.3804 10.2929 10.1929C10.4804 10.0054 10.7348 9.9 11 9.9H21.757ZM25.485 9L26.9 10.416L17.708 19.608L16.296 19.611L16.294 18.194L25.485 9Z" fill="black"/>
</svg>
