<svg width="48" height="26" viewBox="0 0 48 26" fill="none" xmlns="http://www.w3.org/2000/svg">
<path d="M34.309 0.00652119C29.9512 0.00652119 26.0908 2.11721 23.7086 5.36368C21.3264 2.11359 17.4639 0 13.1031 0C5.86671 0 0 5.81872 0 12.9967C0 13.0178 0.000730507 13.0388 0.000730507 13.0601V25.9779H12.4519C12.6677 25.9884 12.8847 25.9938 13.1031 25.9938C17.461 25.9938 21.3213 23.8832 23.7035 20.6367C26.0853 23.8868 29.9479 26 34.3087 26C41.5454 26 47.4118 20.1809 47.4118 13.0033C47.4121 5.82524 41.5458 0.00652119 34.309 0.00652119Z" fill="white"/>
</svg>
