<svg width="current" height="current" viewBox="0 0 24 24" fill="none" xmlns="http://www.w3.org/2000/svg">
<path d="M5.03366 6.39984V3.1665H19.4717C20.2241 3.1665 20.8337 3.78078 20.8337 4.52384V19.4758C20.8337 20.2243 20.2252 20.8332 19.4717 20.8332H5.03366V17.5998V17.0998H4.53366H3.16699V16.2332H4.53366H5.03366V15.7332V12.9332V12.4332H4.53366H3.16699V11.5665H4.53366H5.03366V11.0665V8.2665V7.7665H4.53366H3.16699V6.89984H4.53366H5.03366V6.39984ZM8.76699 4.53317V4.03317H8.26699H6.40033H5.90033V4.53317V19.4665V19.9665H6.40033H8.26699H8.76699V19.4665V4.53317ZM19.967 4.53317V4.03317H19.467H10.1337H9.63366V4.53317V19.4665V19.9665H10.1337H19.467H19.967V19.4665V4.53317Z" fill="black" stroke="#587BFA"/>
</svg>
