<svg width="35" height="35" viewBox="0 0 35 35" fill="none" xmlns="http://www.w3.org/2000/svg">
<path d="M28.4959 7.40834C27.0338 5.95646 25.2963 4.81126 23.3855 4.03994C21.4748 3.26863 19.4292 2.88673 17.3689 2.91667C13.5011 2.907 9.78795 4.43418 7.04621 7.16225C4.30447 9.89032 2.75874 13.5958 2.74907 17.4635C2.7394 21.3313 4.26658 25.0445 6.99465 27.7862C9.72272 30.5279 13.4282 32.0737 17.2959 32.0833C18.1294 32.0975 18.9439 31.8345 19.6117 31.3357C20.2795 30.8368 20.7627 30.1303 20.9855 29.3271C21.1276 28.747 21.1261 28.1411 20.9812 27.5618C20.8364 26.9824 20.5526 26.4471 20.1543 26.0021C20.0622 25.8973 20.0021 25.7683 19.9811 25.6303C19.9602 25.4924 19.9792 25.3513 20.036 25.2239C20.0929 25.0965 20.185 24.988 20.3016 24.9114C20.4182 24.8348 20.5544 24.7932 20.6939 24.7917H23.1001C25.3648 24.8023 27.5497 23.9557 29.216 22.4219C30.8823 20.8881 31.9067 18.7808 32.0834 16.5229C32.1377 14.8394 31.8475 13.1626 31.2306 11.5953C30.6137 10.028 29.6831 8.6032 28.4959 7.40834ZM9.97511 21.4958C9.61705 21.7392 9.19483 21.8708 8.76191 21.8741C8.329 21.8773 7.90485 21.752 7.54319 21.5141C7.18152 21.2761 6.89859 20.9362 6.73022 20.5373C6.56185 20.1385 6.51562 19.6987 6.59738 19.2735C6.67914 18.8484 6.88521 18.4571 7.1895 18.1491C7.49379 17.8412 7.88261 17.6304 8.30674 17.5436C8.73087 17.4567 9.17123 17.4977 9.57206 17.6613C9.9729 17.8249 10.3162 18.1037 10.5584 18.4625C10.7208 18.6995 10.8345 18.9663 10.8931 19.2475C10.9517 19.5287 10.9539 19.8188 10.8996 20.1009C10.8454 20.383 10.7357 20.6515 10.5771 20.8909C10.4184 21.1304 10.2138 21.336 9.97511 21.4958ZM12.1043 13.4896C11.8968 13.8739 11.579 14.1873 11.1919 14.3894C10.8047 14.5915 10.3659 14.6732 9.93199 14.6238C9.49806 14.5744 9.08884 14.3962 8.75704 14.1122C8.42524 13.8282 8.18603 13.4514 8.07023 13.0303C7.95443 12.6092 7.96732 12.1631 8.10726 11.7494C8.2472 11.3357 8.50777 10.9733 8.85543 10.709C9.20308 10.4446 9.62191 10.2904 10.058 10.2662C10.494 10.2419 10.9274 10.3488 11.3022 10.5729C11.7858 10.8622 12.1392 11.3269 12.2886 11.8703C12.4381 12.4136 12.372 12.9937 12.1043 13.4896ZM16.0418 10.2083C15.6091 10.2083 15.1862 10.08 14.8265 9.83968C14.4667 9.59931 14.1864 9.25767 14.0208 8.85796C13.8552 8.45825 13.8119 8.01841 13.8963 7.59408C13.9807 7.16975 14.1891 6.77997 14.495 6.47404C14.8009 6.16812 15.1907 5.95978 15.615 5.87537C16.0394 5.79097 16.4792 5.83429 16.8789 5.99985C17.2786 6.16542 17.6203 6.4458 17.8606 6.80553C18.101 7.16526 18.2293 7.58819 18.2293 8.02084C18.2293 8.601 17.9988 9.1574 17.5886 9.56764C17.1783 9.97787 16.6219 10.2083 16.0418 10.2083ZM24.4272 11.375C24.0524 11.5992 23.619 11.706 23.183 11.6818C22.7469 11.6575 22.3281 11.5033 21.9804 11.2389C21.6328 10.9746 21.3722 10.6122 21.2323 10.1985C21.0923 9.78483 21.0794 9.3387 21.1952 8.9176C21.311 8.49649 21.5502 8.11969 21.882 7.83571C22.2138 7.55173 22.6231 7.37357 23.057 7.32417C23.4909 7.27476 23.9297 7.35638 24.3169 7.55852C24.704 7.76065 25.0218 8.07404 25.2293 8.45834C25.497 8.95422 25.5631 9.53429 25.4136 10.0777C25.2642 10.621 24.9108 11.0858 24.4272 11.375Z" fill="white"/>
</svg>
