<svg width="32" height="32" viewBox="0 0 32 32" fill="none" xmlns="http://www.w3.org/2000/svg">
<path d="M23.75 14.7534C23.75 15.7723 23.5491 16.7812 23.1588 17.7224C22.7684 18.6635 22.1964 19.5185 21.4753 20.2383C20.7542 20.9581 19.8982 21.5287 18.9564 21.9174C18.0146 22.3061 17.0053 22.5052 15.9864 22.5034C15.4723 22.5029 14.9595 22.4533 14.4548 22.3552C13.0444 22.0686 11.7417 21.3949 10.6926 20.4096C9.64344 19.4243 8.88943 18.1663 8.515 16.7766C8.14058 15.3869 8.16053 13.9204 8.57262 12.5414C8.98471 11.1624 9.77266 9.92541 10.8482 8.96901C10.946 8.88056 11.024 8.77244 11.0771 8.65173C11.1302 8.53103 11.1571 8.40047 11.1562 8.26861V6.03467C11.1562 5.26388 11.4624 4.52467 12.0075 3.97964C12.5525 3.43461 13.2917 3.12842 14.0625 3.12842H17.9375C18.7083 3.12842 19.4475 3.43461 19.9925 3.97964C20.5376 4.52467 20.8438 5.26388 20.8438 6.03467V8.26279C20.841 8.39172 20.8655 8.51978 20.9156 8.63862C20.9657 8.75746 21.0402 8.86442 21.1344 8.95254C21.9561 9.67927 22.6141 10.5722 23.065 11.5722C23.5159 12.5721 23.7494 13.6565 23.75 14.7534ZM16 24.4409C15.7431 24.4409 15.4967 24.543 15.315 24.7247C15.1333 24.9063 15.0312 25.1527 15.0312 25.4097V27.3472C15.0312 27.6041 15.1333 27.8505 15.315 28.0322C15.4967 28.2139 15.7431 28.3159 16 28.3159C16.2569 28.3159 16.5033 28.2139 16.685 28.0322C16.8667 27.8505 16.9688 27.6041 16.9688 27.3472V25.4097C16.9688 25.1527 16.8667 24.9063 16.685 24.7247C16.5033 24.543 16.2569 24.4409 16 24.4409ZM7.78016 21.6035L6.40937 22.9733C6.31937 23.0633 6.24797 23.1701 6.19926 23.2877C6.15055 23.4053 6.12548 23.5314 6.12548 23.6587C6.12548 23.7859 6.15055 23.912 6.19926 24.0296C6.24797 24.1472 6.31937 24.254 6.40937 24.344C6.59115 24.5258 6.83769 24.6279 7.09477 24.6279C7.22205 24.6279 7.3481 24.6029 7.4657 24.5542C7.5833 24.5054 7.69015 24.4341 7.78016 24.344L9.14997 22.9742C9.24249 22.8849 9.3163 22.778 9.36707 22.6598C9.41784 22.5416 9.44456 22.4145 9.44568 22.2858C9.4468 22.1572 9.42229 22.0296 9.37358 21.9106C9.32487 21.7915 9.25293 21.6834 9.16198 21.5924C9.07102 21.5015 8.96286 21.4295 8.8438 21.3808C8.72474 21.3321 8.59718 21.3076 8.46855 21.3087C8.33992 21.3098 8.2128 21.3365 8.09461 21.3873C7.97642 21.4381 7.86952 21.5119 7.78016 21.6044V21.6035ZM5.34375 13.7847H3.40625C3.14932 13.7847 2.90292 13.8867 2.72124 14.0684C2.53956 14.2501 2.4375 14.4965 2.4375 14.7534C2.4375 15.0103 2.53956 15.2568 2.72124 15.4384C2.90292 15.6201 3.14932 15.7222 3.40625 15.7222H5.34375C5.60068 15.7222 5.84708 15.6201 6.02876 15.4384C6.21044 15.2568 6.3125 15.0103 6.3125 14.7534C6.3125 14.4965 6.21044 14.2501 6.02876 14.0684C5.84708 13.8867 5.60068 13.7847 5.34375 13.7847ZM24.2198 21.6035C24.1305 21.5109 24.0236 21.4371 23.9054 21.3864C23.7872 21.3356 23.6601 21.3089 23.5315 21.3077C23.4028 21.3066 23.2753 21.3311 23.1562 21.3798C23.0371 21.4286 22.929 21.5005 22.838 21.5914C22.7471 21.6824 22.6751 21.7906 22.6264 21.9096C22.5777 22.0287 22.5532 22.1562 22.5543 22.2849C22.5554 22.4135 22.5822 22.5406 22.6329 22.6588C22.6837 22.777 22.7575 22.8839 22.85 22.9733L24.2198 24.344C24.4016 24.5258 24.6482 24.6279 24.9052 24.6279C25.1623 24.6279 25.4088 24.5258 25.5906 24.344C25.7724 24.1623 25.8745 23.9157 25.8745 23.6587C25.8745 23.4016 25.7724 23.155 25.5906 22.9733L24.2198 21.6035ZM28.5938 13.7847H26.6562C26.3993 13.7847 26.1529 13.8867 25.9712 14.0684C25.7896 14.2501 25.6875 14.4965 25.6875 14.7534C25.6875 15.0103 25.7896 15.2568 25.9712 15.4384C26.1529 15.6201 26.3993 15.7222 26.6562 15.7222H28.5938C28.8507 15.7222 29.0971 15.6201 29.2788 15.4384C29.4604 15.2568 29.5625 15.0103 29.5625 14.7534C29.5625 14.4965 29.4604 14.2501 29.2788 14.0684C29.0971 13.8867 28.8507 13.7847 28.5938 13.7847Z" fill="white"/>
</svg>
