<svg width="33" height="34" viewBox="0 0 33 34" fill="none" xmlns="http://www.w3.org/2000/svg">
<path d="M5.30637 33.9998C4.85716 33.9998 4.42837 33.9488 4.01999 33.8569C2.89696 33.5914 2.02915 32.989 1.50848 32.1008C0.0995814 29.6913 1.3939 25.7197 4.86509 23.4123C6.02896 22.6465 6.58168 22.4015 7.7966 22.1667V6.79075C7.7966 6.45382 8.02121 6.14753 8.34791 6.05564L30.5142 0.0420821C30.749 -0.0293864 30.994 0.0216625 31.188 0.164599C31.382 0.307536 31.4943 0.542361 31.4943 0.777186V17.2353C31.9333 17.5314 32.2804 17.9092 32.5357 18.3482C33.9446 20.7679 32.0428 25 28.2468 27.0367C26.1539 28.4253 23.4076 28.7213 21.5495 28.2925C20.4265 28.0271 19.5587 27.4247 19.038 26.5365C17.6291 24.1269 19.2422 20.431 22.7134 18.1236C24.0304 17.2456 25.4699 16.6942 26.838 16.5207V9.31256L12.4529 13.5088V22.5138C13.1165 22.8405 13.6474 23.3204 14.0048 23.933C15.4137 26.3425 13.8006 30.0384 10.3294 32.3458C8.69588 33.4076 6.89903 33.9998 5.30637 33.9998ZM9.328 7.36249V22.8303C9.328 23.2285 9.03193 23.5552 8.64398 23.596C7.4699 23.7186 6.87635 23.933 5.71248 24.6987C3.0172 26.4854 1.86581 29.6709 2.8357 31.3248C3.14198 31.8455 3.65245 32.1927 4.36711 32.356C5.79642 32.6929 7.76683 32.1825 9.482 31.0492C12.1773 29.2625 13.6474 26.3527 12.6775 24.6987C12.4223 24.2597 12.0037 23.933 11.4422 23.7492C11.1257 23.6471 10.9215 23.351 10.9215 23.0243V12.937C10.9215 12.6001 11.1461 12.2938 11.4728 12.2019L27.3995 7.55648C27.6343 7.48501 27.8793 7.53606 28.0733 7.679C28.2673 7.82193 28.3796 8.05676 28.3796 8.29158V17.2353C28.3796 17.6539 28.0427 17.9909 27.6241 18.0011C26.3275 18.0317 24.888 18.532 23.5608 19.41C20.8655 21.1967 19.3953 24.1065 20.3652 25.7605C20.6715 26.2812 21.182 26.6283 21.8966 26.7917C23.3361 27.1286 25.6843 26.8938 27.3995 25.7605C30.5407 24 32.1783 20.7883 31.2084 19.1344C31.0247 18.8077 30.7388 18.5524 30.3611 18.3584C30.1058 18.2257 29.9527 17.9602 29.9527 17.6744V1.79816L9.328 7.36249Z" fill="white"/>
<path d="M11.7281 17.0926L11.2891 15.3978L27.2872 10.5788L27.7262 12.2736L11.7281 17.0926Z" fill="white"/>
</svg>
