<svg width="16" height="16" viewBox="0 0 16 16" fill="none" xmlns="http://www.w3.org/2000/svg">
<path d="M3.92608 10.6667H1.33341C1.1566 10.6667 0.987034 10.5964 0.86201 10.4714C0.736986 10.3464 0.666748 10.1768 0.666748 9.99999V5.99999C0.666748 5.82318 0.736986 5.65361 0.86201 5.52858C0.987034 5.40356 1.1566 5.33332 1.33341 5.33332H3.92608L7.45541 2.44532C7.50425 2.40529 7.56345 2.37995 7.62613 2.37225C7.6888 2.36456 7.75238 2.37482 7.80944 2.40185C7.86651 2.42889 7.91473 2.47157 7.94848 2.52494C7.98223 2.57832 8.00012 2.64018 8.00008 2.70332V13.2967C8.00012 13.3598 7.98223 13.4217 7.94848 13.475C7.91473 13.5284 7.86651 13.5711 7.80944 13.5981C7.75238 13.6252 7.6888 13.6354 7.62613 13.6277C7.56345 13.62 7.50425 13.5947 7.45541 13.5547L3.92675 10.6667H3.92608ZM12.9374 13.4227L11.9934 12.4787C12.6254 11.9163 13.131 11.2264 13.4769 10.4544C13.8228 9.68246 14.0011 8.84592 14.0001 7.99999C14.0009 7.11072 13.8037 6.23242 13.4227 5.4289C13.0416 4.62538 12.4865 3.91681 11.7974 3.35466L12.7441 2.40799C13.5564 3.09569 14.2089 3.95231 14.6561 4.91812C15.1033 5.88393 15.3345 6.93567 15.3334 7.99999C15.3334 10.1487 14.4094 12.0813 12.9374 13.4227ZM10.5754 11.0607L9.62741 10.1127C9.95106 9.86379 10.2131 9.54381 10.3934 9.17748C10.5736 8.81114 10.6671 8.40826 10.6667 7.99999C10.6667 7.04666 10.1667 6.20999 9.41341 5.73866L10.3727 4.77932C10.8777 5.15078 11.2882 5.63589 11.5709 6.1954C11.8536 6.75491 12.0006 7.37311 12.0001 7.99999C12.0001 9.22799 11.4467 10.3267 10.5754 11.0607Z" fill="#587BFA"/>
</svg>
