<svg width="29" height="28" viewBox="0 0 29 28" fill="none" xmlns="http://www.w3.org/2000/svg">
<path d="M20.5615 27.56H1.84601C1.5011 27.56 1.2301 27.2808 1.2301 26.9441C1.2301 26.5992 1.50932 26.3282 1.84601 26.3282H20.5615C20.9064 26.3282 21.1774 26.6074 21.1774 26.9441C21.1774 27.2808 20.9064 27.56 20.5615 27.56Z" fill="black"/>
<path d="M4.3678 20.1447L1.60852 26.8869L8.39997 24.7928L25.4484 7.74438L20.7264 3.02238C20.7264 3.02238 4.3021 20.0872 4.3678 20.1447Z" fill="#5CE8A4"/>
<path d="M3 24.5L4.5 20.5L7 21L6.81818 22H8.5L8 24.5L5 25.5L3 24.5Z" fill="white"/>
<path d="M24 6L7 23L4 20.5L20 3L24 6Z" fill="white"/>
<path d="M1.6081 27.5027C1.43565 27.5027 1.2714 27.4288 1.14822 27.3056C0.983972 27.1332 0.942912 26.8786 1.03325 26.6569L3.79253 19.9147H3.80074C3.87465 19.7504 4.00605 19.6026 4.09638 19.5123C4.21957 19.3727 4.40844 19.1756 4.65481 18.921C5.13111 18.4118 5.81272 17.6974 6.63394 16.8351C8.08749 15.3159 10.1159 13.1971 12.6617 10.5446C17.0552 5.97864 21.4487 1.41268 21.4487 1.41268C21.5636 1.2895 21.7197 1.2238 21.8839 1.2238C21.8839 1.2238 21.8839 1.2238 21.8921 1.2238C22.0564 1.2238 22.2124 1.2895 22.3274 1.40447L27.0494 6.12646C27.2875 6.36461 27.2875 6.75879 27.0494 6.99695L8.82658 25.2197C8.75267 25.2936 8.67055 25.3429 8.57201 25.3758L1.78876 27.4781C1.73128 27.4945 1.66559 27.5027 1.6081 27.5027ZM4.90117 20.4649L2.67568 25.9178L8.07106 24.2589L25.7518 6.57813L21.9085 2.73484C15.2649 9.60841 5.71417 19.5451 4.90117 20.4649ZM4.96687 20.2842C4.95866 20.3171 4.95044 20.3499 4.93402 20.3746L4.92581 20.3992C4.94223 20.3663 4.95866 20.3335 4.96687 20.2842ZM4.80263 19.7094C4.86833 19.7751 4.9176 19.849 4.94223 19.9311C4.9176 19.8572 4.86833 19.7833 4.80263 19.7094Z" fill="black"/>
<path d="M27.1046 2.57059C26.6037 1.93825 25.9303 1.2977 25.9303 1.2977C24.1646 -0.467911 22.0131 1.78222 22.0131 1.78222L26.6858 6.45494C26.6858 6.45494 28.8702 4.8043 27.1046 2.57059Z" fill="white"/>
<path d="M26.6873 7.07067C26.5312 7.07067 26.367 7.01318 26.252 6.89L21.5793 2.21728C21.3412 1.97913 21.3412 1.59316 21.5711 1.35501C21.6204 1.29752 22.8686 0.0164243 24.3797 0C24.3879 0 24.4043 0 24.4125 0C25.1434 0 25.8086 0.287425 26.3752 0.854064C26.3916 0.870489 27.0732 1.52746 27.5988 2.18443C28.2394 2.99744 28.5022 3.83508 28.3954 4.68914C28.2229 6.05236 27.1143 6.90642 27.065 6.93927C26.9501 7.02961 26.8187 7.07067 26.6873 7.07067ZM22.9343 1.81489L26.6955 5.57605C26.9008 5.32148 27.1143 4.96014 27.1718 4.5249C27.2375 4.01574 27.0486 3.48195 26.6298 2.94816C26.1699 2.35689 25.5211 1.74098 25.5211 1.74098C25.1762 1.39607 24.8231 1.24004 24.4207 1.24004C24.4125 1.24004 24.4125 1.24004 24.4043 1.24004C23.8377 1.24004 23.2956 1.5521 22.9343 1.81489Z" fill="black"/>
<path d="M24.8074 8.24486C24.6514 8.24486 24.4953 8.18738 24.3721 8.0642L20.1347 3.82672C19.8965 3.58857 19.8965 3.19439 20.1347 2.95623C20.3728 2.71808 20.767 2.71808 21.0052 2.95623L25.2426 7.19371C25.4808 7.43186 25.4808 7.82604 25.2426 8.0642C25.1195 8.17917 24.9634 8.24486 24.8074 8.24486Z" fill="black"/>
<path d="M8.45175 25.021C8.44406 25.021 8.43637 25.021 8.42869 25.021C8.10577 25.0057 7.85975 24.7366 7.87512 24.4213L7.93663 22.7914L6.80644 22.9375C6.61423 22.9605 6.42202 22.8914 6.29901 22.7453C6.16831 22.5992 6.12217 22.3993 6.17599 22.2148L6.44508 21.1845L4.59988 21.2614C4.27697 21.2691 4.00787 21.0308 4.00018 20.7079C3.99249 20.3849 4.23083 20.1159 4.55374 20.1082L7.18317 20.0005C7.36769 19.9928 7.54452 20.0697 7.65985 20.2158C7.77517 20.3619 7.81362 20.5464 7.76749 20.7232L7.52146 21.6766L8.4825 21.5536C8.65165 21.5305 8.82079 21.5843 8.94381 21.6997C9.06682 21.815 9.13602 21.9764 9.12833 22.1456L9.03607 24.4598C9.013 24.7827 8.75929 25.021 8.45175 25.021Z" fill="black"/>
<path d="M8.62106 22.4459C8.46503 22.4459 8.309 22.3884 8.18581 22.2652C7.93945 22.0271 7.93945 21.6329 8.1776 21.3947C8.25972 21.3126 23.2223 6.18581 23.2223 6.18581C23.4604 5.93945 23.8546 5.93945 24.0928 6.1776C24.3391 6.41575 24.3391 6.80994 24.101 7.04809C24.101 7.04809 9.13021 22.1749 9.0563 22.257C8.93312 22.3884 8.77709 22.4459 8.62106 22.4459Z" fill="black"/>
<path d="M6.62106 21.4459C6.46503 21.4459 6.309 21.3884 6.18581 21.2652C5.93945 21.0271 5.93945 20.6329 6.1776 20.3947C6.25972 20.3126 11.1295 15.5082 11.1295 15.5082C11.3677 15.2618 11.7618 15.2618 12 15.5C12.2464 15.7382 12.2464 16.1323 12.0082 16.3705C12.0082 16.3705 7.13021 21.1749 7.0563 21.257C6.93312 21.3884 6.77709 21.4459 6.62106 21.4459Z" fill="black"/>
<path d="M3.06955 24.111L4.4574 25.4989L1.60779 26.8867L3.06955 24.111Z" fill="black"/>
<path d="M1.60801 27.5025C1.44377 27.5025 1.27952 27.4368 1.16455 27.3136C0.975673 27.1248 0.93461 26.8291 1.066 26.5992L2.52777 23.8235C2.6181 23.651 2.79056 23.5278 2.97944 23.5032C3.17653 23.4704 3.37362 23.5361 3.50502 23.6757L4.89287 25.0635C5.03248 25.2031 5.09818 25.4084 5.06533 25.6055C5.03248 25.8026 4.90929 25.9751 4.72863 26.0572L1.87901 27.445C1.78867 27.4861 1.69834 27.5025 1.60801 27.5025ZM3.2258 25.1456L3.03692 25.507L3.40647 25.3263L3.2258 25.1456Z" fill="black"/>
<path d="M26.688 6.45487L25.2427 8.06445L20.6603 3.60525L21.81 2.16812L26.688 6.45487Z" fill="black"/>
</svg>
