<svg width="41" height="36" viewBox="0 0 41 36" fill="none" xmlns="http://www.w3.org/2000/svg">
<path d="M24.2051 13.2H28.2051V14.8H26.6051V25.2C26.6051 25.4122 26.5208 25.6157 26.3708 25.7657C26.2207 25.9157 26.0173 26 25.8051 26H14.6051C14.3929 26 14.1894 25.9157 14.0394 25.7657C13.8894 25.6157 13.8051 25.4122 13.8051 25.2V14.8H12.2051V13.2H16.2051V10.8C16.2051 10.5878 16.2894 10.3843 16.4394 10.2343C16.5894 10.0843 16.7929 10 17.0051 10H23.4051C23.6173 10 23.8207 10.0843 23.9708 10.2343C24.1208 10.3843 24.2051 10.5878 24.2051 10.8V13.2ZM25.0051 14.8H15.4051V24.4H25.0051V14.8ZM17.8051 17.2H19.4051V22H17.8051V17.2ZM21.0051 17.2H22.6051V22H21.0051V17.2ZM17.8051 11.6V13.2H22.6051V11.6H17.8051Z" fill="#C4C0B6"/>
<path d="M24.2051 13.2H28.2051V14.8H26.6051V25.2C26.6051 25.4122 26.5208 25.6157 26.3708 25.7657C26.2207 25.9157 26.0173 26 25.8051 26H14.6051C14.3929 26 14.1894 25.9157 14.0394 25.7657C13.8894 25.6157 13.8051 25.4122 13.8051 25.2V14.8H12.2051V13.2H16.2051V10.8C16.2051 10.5878 16.2894 10.3843 16.4394 10.2343C16.5894 10.0843 16.7929 10 17.0051 10H23.4051C23.6173 10 23.8207 10.0843 23.9708 10.2343C24.1208 10.3843 24.2051 10.5878 24.2051 10.8V13.2ZM25.0051 14.8H15.4051V24.4H25.0051V14.8ZM17.8051 17.2H19.4051V22H17.8051V17.2ZM21.0051 17.2H22.6051V22H21.0051V17.2ZM17.8051 11.6V13.2H22.6051V11.6H17.8051Z" fill="#C4C0B6"/>
</svg>
