<svg id="레이어_1" xmlns="http://www.w3.org/2000/svg" viewBox="0 0 159.08 165.66"><defs><style>.cls-1{fill:#5c81f2;}</style></defs><path class="cls-1" d="M103.83,7.84l-2,6.91a60.64,60.64,0,0,1,12.79,5.35c15.22,8.52,26,23,30.22,40.73A74.43,74.43,0,0,1,137,114.69a75.84,75.84,0,0,1-35.3,32.39,65.34,65.34,0,0,1-44.25,3.35,60.64,60.64,0,0,1-12.79-5.35c-15.22-8.52-25.95-23-30.22-40.73a74.43,74.43,0,0,1,7.88-53.86A75.79,75.79,0,0,1,57.57,18.1a65.34,65.34,0,0,1,44.25-3.35l2-6.91m1.6-4.95c-34.66-10-74.16,6.57-93.92,41.85C-11.24,85.36.78,135.33,38.36,156.37a72.71,72.71,0,0,0,15.29,6.4c34.66,10,74.16-6.57,93.92-41.86C170.32,80.3,158.3,30.33,120.73,9.29a73,73,0,0,0-15.3-6.4Z"/><ellipse class="cls-1" cx="79" cy="87.72" rx="11.31" ry="10.16" transform="translate(-24.4 144.69) rotate(-76.85)"/><path class="cls-1" d="M79.47,84.16a2.09,2.09,0,0,1,.35,0,2.11,2.11,0,0,1,1.25,1.07,4.31,4.31,0,0,1,.33,3c-.43,1.88-1.8,3-2.87,3a1.39,1.39,0,0,1-.35,0,2,2,0,0,1-1.25-1.07,4.31,4.31,0,0,1-.34-3c.44-1.87,1.81-3,2.88-3m0-7.69c-4.73,0-9.14,3.65-10.37,9-1.42,6.08,1.87,12,7.34,13.32a9.24,9.24,0,0,0,2.09.24c4.73,0,9.13-3.65,10.37-9,1.41-6.09-1.87-12-7.34-13.32a9.38,9.38,0,0,0-2.09-.24Z"/><path class="cls-1" d="M105.89,120.08a3.83,3.83,0,0,1-2.79-1.2L75,89.3a3.85,3.85,0,0,1-1-2.93l3.94-53.84a3.85,3.85,0,1,1,7.67.56L81.79,85.24l26.9,28.35a3.84,3.84,0,0,1-2.8,6.49Z"/><path class="cls-1" d="M91.16,47.84A3.87,3.87,0,0,1,88,46.24l-6.36-8.81-8.94,8.32a3.85,3.85,0,0,1-5.25-5.63L79.62,28.83a3.84,3.84,0,0,1,5.74.56l8.91,12.35a3.84,3.84,0,0,1-3.11,6.1Z"/><path class="cls-1" d="M110,124l-.35,0-15.17-1.41a3.85,3.85,0,1,1,.71-7.66l10.59,1-.82-9.57a3.85,3.85,0,1,1,7.67-.65l1.21,14.15A3.85,3.85,0,0,1,110,124Z"/></svg>