<svg width="current" height="current" viewBox="0 0 43 44" xmlns="http://www.w3.org/2000/svg">
<path d="M55.1926 41.7715C56.2897 40.4141 56.919 38.7609 56.9927 37.0426C57.0664 35.3243 56.5809 33.6268 55.6038 32.187C56.2434 31.2739 56.5246 30.1714 56.3968 29.077C56.3692 27.4988 55.943 25.9509 55.155 24.5667C54.367 23.1826 53.2408 22.0039 51.8738 21.1323C50.2739 20.2982 48.5167 19.7808 46.7059 19.6109C44.895 19.4409 43.0671 19.6218 41.33 20.1428C40.6179 20.3804 39.9625 20.753 39.4025 21.2386C38.8426 21.7242 38.3894 22.313 38.0699 22.97H36.4839C38.4223 20.1428 42.8866 12.3112 39.4209 6.51532C38.2194 4.43905 36.3366 2.8049 34.0674 1.86868C31.7981 0.932465 29.2703 0.747025 26.8799 1.34139C25.5543 1.78065 24.458 2.69854 23.8223 3.90131C23.1866 5.10407 23.0614 6.49757 23.4729 7.78758C24.9414 15.1102 24.9414 17.7961 19.3024 21.3868C17.1113 22.6484 15.1799 24.2873 13.6046 26.2214C11.255 25.5994 4.79354 24.3272 2.41456 28.5115C1.33526 31.0249 0.863246 33.7415 1.03416 36.4562C1.03416 37.7002 1.03418 39.1138 1.2104 40.6688C1.73906 48.1611 4.14741 50.6774 5.41032 51.5256C8.34733 53.3916 13.5458 51.5256 15.4255 50.7905C15.8375 51.2768 16.2893 51.7306 16.7765 52.1476C21.0896 55.8718 26.6664 57.9528 32.4602 58H34.6042C43.1215 58 48.8193 56.5864 51.169 53.8722C51.6256 53.3699 51.9665 52.78 52.169 52.1416C52.3715 51.5032 52.431 50.8307 52.3437 50.1685C53.2234 49.6768 53.9764 49.0003 54.5465 48.1893C55.0803 47.2949 55.3757 46.2873 55.4065 45.2562C55.4372 44.2251 55.2023 43.2028 54.7227 42.2803L55.1926 41.7715ZM44.4138 51.2994C45.9336 51.5051 47.4758 51.5051 48.9956 51.2994L50.2585 50.9884C50.1887 51.554 49.943 52.0861 49.5536 52.5151C48.32 53.9004 44.5019 56.1905 32.4602 55.8795C27.2924 55.7875 22.331 53.9112 18.48 50.5925C16.7812 49.1607 15.3506 47.4584 14.2507 45.56C14.2258 45.4982 14.181 45.4456 14.1229 45.41C14.0648 45.3744 13.9964 45.3576 13.9276 45.3621C13.8448 45.3821 13.7723 45.4304 13.7237 45.498C13.6751 45.5656 13.6536 45.6479 13.6633 45.7296C13.7791 46.8556 14.118 47.9497 14.6619 48.9527C12.0479 49.9988 8.58228 50.7904 6.90818 49.7444C6.26204 49.3203 3.97117 47.4543 3.6481 40.4143C3.04946 36.6891 3.38171 32.8801 4.61732 29.3032C6.05645 26.6738 10.8731 27.4654 12.8997 27.9178C12.5075 28.8934 12.289 29.9257 12.2535 30.9712C12.2449 31.0569 12.2705 31.1426 12.325 31.2108C12.3795 31.2791 12.459 31.3249 12.5473 31.3388C12.6367 31.3558 12.7294 31.3388 12.8061 31.2913C12.8828 31.2439 12.9374 31.1697 12.9584 31.0844C13.6451 29.2765 14.7498 27.6426 16.1891 26.3063C17.6118 25.0464 19.1558 23.9199 20.8003 22.9418C27.4085 18.7574 27.4085 14.9689 25.8813 7.30695C25.5951 6.48894 25.6494 5.59598 26.0328 4.8157C26.4161 4.03542 27.0988 3.42854 27.9372 3.12257C29.8586 2.68442 31.8759 2.86144 33.6833 3.62678C35.4907 4.39212 36.9895 5.70403 37.9524 7.36349C41.1537 13.018 35.1916 21.4999 34.1343 22.857C33.2994 22.9776 32.4748 23.1572 31.6672 23.3942C31.5867 23.408 31.5147 23.4507 31.4656 23.5137C31.4166 23.5767 31.3942 23.6552 31.4029 23.7334C31.409 23.8083 31.437 23.8799 31.4838 23.94C31.5306 24.0001 31.5942 24.0461 31.6672 24.0727C36.8694 25.141 42.2223 25.3513 47.4977 24.6947C47.5767 24.6894 47.6516 24.6586 47.7102 24.6073C47.7688 24.556 47.8078 24.4872 47.8208 24.412C47.8288 24.3307 47.8105 24.2491 47.7684 24.1782C47.7264 24.1074 47.6626 24.0508 47.5858 24.0162C45.7761 23.3912 43.8693 23.0661 41.9467 23.0549H40.7426C41.1832 22.63 41.7143 22.302 42.2992 22.0936C43.7538 21.6629 45.2835 21.5186 46.7973 21.6691C48.311 21.8197 49.7778 22.2621 51.1102 22.97C52.1867 23.6877 53.065 24.6473 53.6689 25.7657C54.2729 26.8841 54.5842 28.1275 54.5759 29.388C54.6261 29.763 54.5919 30.144 54.4753 30.505C54.3587 30.8661 54.1626 31.1987 53.9004 31.4802C51.492 34.3074 44.1495 35.2122 44.0908 35.2122C44.0048 35.2249 43.926 35.2654 43.8672 35.3271C43.8085 35.3888 43.7734 35.4679 43.7677 35.5514C43.7637 35.596 43.7688 35.6409 43.7829 35.6836C43.797 35.7262 43.8197 35.7658 43.8498 35.7999C43.8798 35.8341 43.9165 35.8622 43.9579 35.8827C43.9993 35.9031 44.0444 35.9154 44.0908 35.919C45.6898 36.1166 47.3084 36.1166 48.9074 35.919C50.8657 35.65 52.7342 34.9537 54.3703 33.8833C54.9834 34.912 55.2736 36.0897 55.2059 37.2739C55.1381 38.4581 54.7152 39.5981 53.9885 40.5557C51.0515 43.383 43.9145 44.1746 43.8558 44.1746C43.8094 44.1782 43.7643 44.1906 43.7229 44.211C43.6816 44.2314 43.6448 44.2595 43.6148 44.2937C43.5848 44.3278 43.5621 44.3674 43.548 44.41C43.5339 44.4527 43.5287 44.4976 43.5327 44.5422C43.5384 44.6257 43.5735 44.7048 43.6322 44.7665C43.691 44.8282 43.7699 44.8687 43.8558 44.8814C45.502 45.1069 47.1731 45.1069 48.8193 44.8814C50.3498 44.6648 51.8302 44.1962 53.1955 43.4961C53.4518 44.073 53.5691 44.6983 53.5386 45.325C53.508 45.9518 53.3305 46.5637 53.0192 47.115C51.0808 49.9423 44.5607 50.7905 44.5019 50.7905C44.4112 50.8041 44.3285 50.8487 44.2692 50.9162C44.2098 50.9837 44.1778 51.0696 44.1789 51.158C44.2061 51.1956 44.2409 51.2275 44.2813 51.2518C44.3217 51.2761 44.3668 51.2923 44.4138 51.2994Z" stroke="current" stroke-width="1.5" stroke-linejoin="round"/>
</svg>
