<svg width="13" height="14" viewBox="0 0 13 14" fill="none" xmlns="http://www.w3.org/2000/svg">
<path d="M11.6939 8.23872C12.4152 5.05695 10.6746 1.92295 7.8061 1.23872C4.93759 0.554483 2.02743 2.57913 1.3061 5.76089C0.584759 8.94265 2.32539 12.0767 5.19391 12.7609C8.06242 13.4451 10.9726 11.4205 11.6939 8.23872Z" fill="white"/>
<path d="M6.67962 1.6453C7.01553 1.6453 7.35493 1.68478 7.68734 1.76374C8.9295 2.06164 9.97922 2.87996 10.6405 4.06796C11.3089 5.27032 11.5013 6.70955 11.1829 8.11649C10.9065 9.32961 10.2626 10.4207 9.36339 11.1888C8.48513 11.9389 7.40392 12.3552 6.32271 12.3552C5.9868 12.3552 5.6474 12.3158 5.31499 12.2368C4.07283 11.9389 3.02311 11.1206 2.36179 9.93259C1.69347 8.73023 1.50102 7.29099 1.81944 5.88405C2.09586 4.67093 2.73969 3.57984 3.63894 2.81177C4.5172 2.06164 5.59841 1.6453 6.67962 1.6453ZM6.67962 1.10693C4.21279 1.10693 1.93141 2.9984 1.30508 5.76203C0.584273 8.94558 2.3233 12.0789 5.19252 12.7644C5.57042 12.8541 5.94482 12.8972 6.31921 12.8972C8.78604 12.8972 11.0674 11.0057 11.6938 8.24211C12.4146 5.05856 10.6755 1.92526 7.80631 1.23973C7.42841 1.15001 7.05401 1.10693 6.67962 1.10693Z" fill="#333333"/>
<path d="M6.18649 11.0024C6.12701 11.0024 6.06753 10.9952 6.00804 10.9809C5.84359 10.9414 5.71062 10.8445 5.63015 10.7045C5.4342 10.3635 5.62665 9.86104 6.06753 9.55956C6.22498 9.45188 6.39994 9.38369 6.56789 9.35857C6.59238 9.35498 6.61338 9.35498 6.63787 9.35498C6.64137 9.35498 6.64487 9.35498 6.65187 9.35498C6.71135 9.35498 6.77434 9.35857 6.83382 9.36933C6.9073 9.3801 6.97378 9.40523 7.03327 9.43753C7.12074 9.48778 7.19072 9.55956 7.23971 9.6457C7.43566 9.98667 7.24321 10.4891 6.80233 10.7906C6.60288 10.9306 6.38594 11.0024 6.18649 11.0024Z" fill="#333333"/>
<path d="M6.81659 3.35491C6.48488 5.09573 6.32288 6.87217 6.32288 8.64465C6.32288 8.82269 6.58902 8.8029 6.58902 8.62882C6.58516 6.87612 6.75102 5.12739 7.07887 3.4103C7.10973 3.23226 6.84745 3.18082 6.81659 3.35491Z" fill="#333333"/>
<path d="M6.44608 9.01687C6.38051 9.01687 6.31494 9.00104 6.25708 8.96543C6.14523 8.89817 6.07965 8.77948 6.07965 8.64496C6.0758 6.8527 6.24551 5.05648 6.57723 3.30774C6.6158 3.09805 6.80865 2.96749 7.01694 3.00705C7.22522 3.04662 7.35637 3.24444 7.31394 3.45413C6.98994 5.15935 6.82794 6.89622 6.8318 8.62518C6.8318 8.76761 6.76237 8.89026 6.64665 8.96148C6.58494 8.99709 6.51551 9.01687 6.44608 9.01687Z" fill="#333333"/>
</svg>
