<svg width="30" height="32" viewBox="0 0 30 32" fill="none" xmlns="http://www.w3.org/2000/svg">
<path d="M2.75 30C2.75 29.3096 3.30964 28.75 4 28.75H22C22.6904 28.75 23.25 29.3096 23.25 30C23.25 30.6904 22.6904 31.25 22 31.25H4C3.30964 31.25 2.75 30.6904 2.75 30Z" fill="white" stroke="black" stroke-width="1.5"/>
<path d="M25.4937 14.5088L24.3137 22.6088L26.7137 22.8888L28.5437 20.6488L29.0337 15.6488L28.7937 14.7488L25.4937 14.5088Z" fill="white"/>
<path d="M26.1037 23.5888H23.4137C23.0137 23.5888 22.6837 23.2588 22.6837 22.8588V14.4288C22.6837 14.0288 23.0137 13.6988 23.4137 13.6988H27.9837C28.5437 13.6988 29.0837 13.9388 29.4537 14.3688C29.8237 14.7988 29.9937 15.3588 29.9137 15.9188L29.2637 20.5388C28.9337 22.4288 27.7237 23.5888 26.1037 23.5888ZM24.1437 22.1288H26.1037C27.3637 22.1288 27.7237 20.8488 27.8137 20.2988L28.4637 15.7088C28.4937 15.5188 28.4037 15.3888 28.3537 15.3188C28.3037 15.2588 28.1837 15.1488 27.9837 15.1488H24.1437V22.1288Z" fill="black"/>
<path d="M25.1237 21.0488H24.0537C23.6537 21.0488 23.3237 20.7188 23.3237 20.3188V16.9788C23.3237 16.5788 23.6537 16.2488 24.0537 16.2488H26.4237C26.6337 16.2488 26.8337 16.3388 26.9737 16.4988C27.1137 16.6588 27.1737 16.8688 27.1437 17.0788L26.8137 19.4588C26.6337 20.4288 25.9737 21.0488 25.1237 21.0488ZM24.7837 19.5888H25.1237C25.2837 19.5888 25.3437 19.3588 25.3737 19.2288L25.1237 17.7088H24.7837V19.5888Z" fill="black"/>
<path d="M0.733765 13.0288H25.3138L24.4938 20.8488C24.4138 21.4288 24.3638 22.0188 24.3138 22.6088C23.9738 26.3288 20.6138 29.2388 16.8138 29.2388H9.23376C5.43376 29.2388 2.06376 26.3288 1.73376 22.6088C1.68376 22.0188 1.63376 21.4288 1.55376 20.8488L0.733765 13.0288Z" fill="white"/>
<rect x="5.00378" y="19.0088" width="4" height="5" fill="#5CE8A4"/>
<path d="M16.8037 29.9688H9.23375C4.98375 29.9688 1.37375 26.7688 1.00375 22.6788L0.97375 22.3788C0.93375 21.9088 0.88375 21.4188 0.82375 20.9488L0.00375 13.1088C-0.01625 12.8988 0.04375 12.6988 0.18375 12.5488C0.32375 12.3988 0.52375 12.3088 0.72375 12.3088H25.3037C25.5137 12.3088 25.7038 12.3988 25.8438 12.5488C25.9837 12.6988 26.0438 12.9088 26.0238 13.1088L25.2038 20.9288C25.1338 21.4188 25.0938 21.9088 25.0537 22.3788L25.0238 22.6788C24.6637 26.7588 21.0537 29.9688 16.8037 29.9688ZM1.54375 13.7588L2.28375 20.7788C2.35375 21.2588 2.39375 21.7688 2.43375 22.2588L2.46375 22.5488C2.76375 25.8388 5.80375 28.5088 9.24375 28.5088H16.8137C20.2537 28.5088 23.2938 25.8288 23.5938 22.5488L23.6238 22.2588C23.6638 21.7688 23.7138 21.2588 23.7838 20.7588L24.5238 13.7688H1.54375V13.7588Z" fill="black"/>
<path d="M6.73378 19.0088C6.33378 19.0088 6.00378 18.7997 6.00378 18.5462V13.1715C6.00378 12.918 6.33378 12.7088 6.73378 12.7088C7.13378 12.7088 7.46378 12.918 7.46378 13.1715V18.5462C7.46378 18.7997 7.13378 19.0088 6.73378 19.0088Z" fill="black"/>
<path d="M13.7837 0.798831C13.7337 0.938831 13.6937 1.08883 13.6337 1.22883C13.4537 1.66883 13.2537 2.10883 13.0837 2.55883C12.9137 3.01883 12.9837 3.46883 13.2537 3.86883C13.4937 4.22883 13.7437 4.56883 13.9837 4.92883C14.5737 5.82883 14.6637 6.78883 14.3037 7.78883C14.1237 8.27883 13.9037 8.75883 13.6737 9.22883C13.4737 9.64883 13.0237 9.78883 12.6237 9.58883C12.2337 9.39883 12.0937 8.96883 12.2737 8.54883C12.4837 8.04883 12.7037 7.55883 12.8837 7.05883C13.0137 6.69883 12.9837 6.31883 12.7737 5.97883C12.5637 5.62883 12.3237 5.27883 12.0837 4.93883C11.3737 3.94883 11.2437 2.87883 11.6937 1.74883C11.8737 1.28883 12.0737 0.838831 12.2937 0.398831C12.4637 0.0588309 12.8237 -0.0611691 13.1937 0.0288309C13.5237 0.128831 13.7537 0.438831 13.7837 0.798831Z" fill="black"/>
<path d="M9.83377 7.23883C9.79377 8.01883 9.49377 8.69883 9.11377 9.34883C8.90377 9.69883 8.44377 9.77883 8.10377 9.58883C7.73377 9.37883 7.60377 8.97883 7.76377 8.59883C7.88377 8.29883 8.02377 8.00883 8.15377 7.71883C8.33377 7.29883 8.27377 6.90883 8.00377 6.53883C7.89377 6.38883 7.77377 6.21883 7.66377 6.06883C7.03377 5.20883 6.97377 4.28883 7.38377 3.32883C7.50377 3.04883 7.63377 2.75883 7.77377 2.47883C7.99377 2.05883 8.43377 1.91883 8.83377 2.11883C9.22377 2.30883 9.36377 2.75883 9.17377 3.18883C9.02377 3.53883 8.88377 3.88883 8.74377 4.23883C8.63377 4.52883 8.70377 4.79883 8.87377 5.04883C9.05377 5.32883 9.26377 5.59883 9.44377 5.87883C9.69377 6.28883 9.85377 6.73883 9.83377 7.23883Z" fill="black"/>
<path d="M16.6537 8.86883C16.7037 8.72883 16.7537 8.58883 16.8137 8.44883C16.9437 8.11883 17.0837 7.78883 17.2037 7.45883C17.3037 7.17883 17.2237 6.92883 17.0737 6.68883C16.9137 6.44883 16.7537 6.21883 16.5937 5.98883C16.0537 5.20883 15.9737 4.36883 16.3137 3.48883C16.4437 3.15883 16.5937 2.82883 16.7437 2.50883C16.9537 2.07883 17.4037 1.91883 17.8037 2.11883C18.2037 2.31883 18.3437 2.78883 18.1437 3.21883C17.9937 3.54883 17.8537 3.88883 17.7237 4.22883C17.6237 4.49883 17.6637 4.75883 17.8237 4.99883C18.0037 5.27883 18.2037 5.54883 18.3837 5.82883C18.9237 6.64883 18.9137 7.51883 18.5437 8.39883C18.4137 8.69883 18.2837 8.99883 18.1237 9.28883C17.9537 9.60883 17.5737 9.75883 17.2237 9.64883C16.9037 9.54883 16.6737 9.23883 16.6537 8.86883Z" fill="black"/>
<path d="M24.9238 16.3288H1.21376C0.813765 16.3288 0.483765 15.9988 0.483765 15.5988C0.483765 15.1988 0.813765 14.8688 1.21376 14.8688H24.9238C25.3238 14.8688 25.6538 15.1988 25.6538 15.5988C25.6538 15.9988 25.3238 16.3288 24.9238 16.3288Z" fill="black"/>
<path d="M8.75373 24.4488H4.80373C4.40373 24.4488 4.07373 24.1188 4.07373 23.7188V18.7588C4.07373 18.3588 4.40373 18.0288 4.80373 18.0288H8.75373C9.15373 18.0288 9.48373 18.3588 9.48373 18.7588V23.7188C9.48373 24.1188 9.15373 24.4488 8.75373 24.4488ZM5.53373 22.9888H8.02373V19.4888H5.53373V22.9888Z" fill="black"/>
</svg>
