<svg width="24" height="24" viewBox="0 0 24 24" fill="none" xmlns="http://www.w3.org/2000/svg">
<path d="M20 22.143V3C20 2.73478 19.8946 2.48043 19.7071 2.29289C19.5196 2.10536 19.2652 2 19 2H5C4.73478 2 4.48043 2.10536 4.29289 2.29289C4.10536 2.48043 4 2.73478 4 3V22.143C4.00007 22.2323 4.02406 22.32 4.06948 22.3969C4.11491 22.4738 4.1801 22.5371 4.2583 22.5803C4.33649 22.6235 4.42482 22.6449 4.5141 22.6424C4.60339 22.6399 4.69037 22.6135 4.766 22.566L20 22.143ZM20 22.143C20.0001 22.2324 19.9763 22.3202 19.9309 22.3973M20 22.143L19.9309 22.3973M19.9309 22.3973C19.8855 22.4743 19.8204 22.5378 19.7421 22.5811M19.9309 22.3973L19.7421 22.5811M19.7421 22.5811C19.6639 22.6244 19.5755 22.6459 19.4861 22.6434M19.7421 22.5811L19.4861 22.6434M19.4861 22.6434C19.3968 22.641 19.3097 22.6146 19.234 22.567L19.4861 22.6434Z" fill="white" stroke="white" stroke-width="2"/>
</svg>
