<svg width="36" height="29" viewBox="0 0 36 29" fill="none" xmlns="http://www.w3.org/2000/svg">
<path d="M29.91 18.78H6.04004V5.57999C6.04004 3.90999 7.40004 2.53999 9.08004 2.53999H26.87C28.54 2.53999 29.91 3.89999 29.91 5.57999V18.78Z" fill="white"/>
<path d="M32.75 21.32H3.20996V5.61C3.20996 2.52 5.71996 0 8.80996 0H27.14C30.23 0 32.75 2.52 32.75 5.61V21.32Z" fill="white"/>
<path d="M0.77 26.29C0.79 26.89 1.27 27.45 1.97 27.45L34.01 27.37C34.69 27.37 35.14 26.86 35.2 26.29V25.1H0.75L0.77 26.29Z" fill="white"/>
<path d="M1.97 28.18C0.93 28.18 0.08 27.36 0.04 26.32V26.31L0 24.37H35.94V26.36C35.83 27.36 35.03 28.09 34.03 28.09L1.97 28.18C1.98 28.18 1.97 28.18 1.97 28.18ZM1.51 26.26C1.52 26.44 1.65 26.71 1.98 26.71L34.02 26.63C34.33 26.63 34.45 26.39 34.48 26.23V25.83H1.5L1.51 26.26Z" fill="black"/>
<path d="M32.75 21.32H3.20996V5.61C3.20996 2.52 5.71996 0 8.80996 0H27.14C30.23 0 32.75 2.52 32.75 5.61V21.32ZM4.66996 19.86H31.29V5.61C31.29 3.32 29.43 1.47 27.15 1.47H8.80996C6.51996 1.47 4.66996 3.33 4.66996 5.61V19.86Z" fill="black"/>
<path d="M29.91 18.78H6.04004V5.57999C6.04004 3.90999 7.40004 2.53999 9.08004 2.53999H26.87C28.54 2.53999 29.91 3.89999 29.91 5.57999V18.78ZM7.51004 17.31H28.45V5.57999C28.45 4.70999 27.74 4.00999 26.88 4.00999H9.08004C8.21004 4.00999 7.51004 4.71999 7.51004 5.57999V17.31Z" fill="black"/>
<path d="M3.73002 20.64L1.07002 23.44C0.340023 24.21 0.890023 25.47 1.94002 25.47L34.01 25.39C35.14 25.39 35.64 23.98 34.77 23.26L31.95 20.72C31.96 20.72 3.17002 20.64 3.73002 20.64Z" fill="white"/>
<path d="M1.94002 26.2C1.16002 26.2 0.480019 25.75 0.170019 25.03C-0.139981 24.31 1.87159e-05 23.5 0.550019 22.93L3.23002 20.35V19.9H5.45002C11.52 19.92 31.73 19.97 31.97 19.97H32.25L35.26 22.69C35.89 23.21 36.11 24.05 35.84 24.82C35.56 25.6 34.85 26.1 34.03 26.1L1.94002 26.2ZM4.05002 21.38L1.60002 23.95C1.41002 24.15 1.47002 24.37 1.51002 24.46C1.55002 24.55 1.66002 24.74 1.94002 24.74L34.01 24.66C34.31 24.66 34.42 24.44 34.45 24.35C34.48 24.26 34.54 24.02 34.31 23.83L34.28 23.81L31.67 21.45L4.05002 21.38Z" fill="black"/>
<path d="M22.38 24.13H13.57C13.17 24.13 12.84 23.8 12.84 23.4C12.84 23 13.17 22.67 13.57 22.67H22.38C22.78 22.67 23.11 23 23.11 23.4C23.11 23.8 22.79 24.13 22.38 24.13Z" fill="black"/>
<path d="M15 8L17 7L18.5 7.5L20.5 7L22 8.5V11.5L19.5 14L18.5 13.5H17.5L16 14L14.5 13.5L14 11L15 8Z" fill="#5CE8A4"/>
<path d="M15.74 14.93C15.56 14.93 15.37 14.91 15.2 14.87C14.28 14.66 13.57 13.95 13.2 12.88C12.88 11.97 12.85 10.88 13.1 9.8C13.35 8.72 13.87 7.75 14.55 7.08C15.36 6.29 16.31 5.97 17.22 6.18C17.63 6.27 18 6.48 18.33 6.76C19.03 6.24 19.82 6.04 20.57 6.22C21.48 6.43 22.19 7.13 22.56 8.19C22.87 9.09 22.91 10.17 22.66 11.24C22.43 12.22 21.97 13.12 21.37 13.77C20.71 14.49 19.91 14.88 19.11 14.88C18.93 14.88 18.75 14.86 18.57 14.82C18.18 14.73 17.82 14.55 17.51 14.28C16.95 14.71 16.35 14.93 15.74 14.93ZM16.67 7.75C16.26 7.75 15.9 8.05 15.7 8.24C15.23 8.7 14.88 9.38 14.7 10.17C14.52 10.95 14.54 11.72 14.75 12.34C14.85 12.64 15.1 13.16 15.58 13.27C15.64 13.28 15.69 13.29 15.75 13.29C16.13 13.29 16.56 13.02 16.94 12.56C17.11 12.35 17.37 12.24 17.64 12.26C17.91 12.28 18.15 12.44 18.28 12.67C18.45 12.98 18.67 13.17 18.93 13.23C18.98 13.24 19.04 13.25 19.1 13.25C19.77 13.25 20.71 12.34 21.05 10.87C21.23 10.1 21.21 9.34 21 8.73C20.9 8.43 20.65 7.92 20.19 7.82C19.79 7.73 19.3 7.98 18.87 8.5C18.7 8.71 18.43 8.82 18.16 8.79C17.89 8.76 17.65 8.61 17.52 8.37C17.4 8.14 17.18 7.86 16.85 7.78C16.79 7.76 16.73 7.75 16.67 7.75Z" fill="black"/>
</svg>
