<svg width="current" height="current" viewBox="0 0 24 24" fill="none" xmlns="http://www.w3.org/2000/svg">
<path d="M11.3523 4.01178L5.2352 5.2352L4.01178 11.3523C3.99219 11.4502 3.99709 11.5515 4.02603 11.6471C4.05498 11.7427 4.10708 11.8297 4.17771 11.9003L12.0997 19.8223C12.1561 19.8786 12.2229 19.9233 12.2966 19.9538C12.3702 19.9843 12.4491 20 12.5287 20C12.6084 20 12.6873 19.9843 12.7609 19.9538C12.8345 19.9233 12.9014 19.8786 12.9578 19.8223L19.8223 12.9578C19.8786 12.9014 19.9233 12.8345 19.9538 12.7609C19.9843 12.6873 20 12.6084 20 12.5287C20 12.4491 19.9843 12.3702 19.9538 12.2966C19.9233 12.2229 19.8786 12.1561 19.8223 12.0997L11.9003 4.17771C11.8297 4.10708 11.7427 4.05498 11.6471 4.02603C11.5515 3.99709 11.4502 3.99219 11.3523 4.01178V4.01178Z" stroke="#587BFA" stroke-width="2" stroke-linecap="round" stroke-linejoin="round"/>
<path d="M10 10V8H8V10H10Z" fill="#587BFA"/>
</svg>
