<svg width="current" height="current" viewBox="0 0 42 28" fill="none" xmlns="http://www.w3.org/2000/svg">
<path d="M20.2885 14C20.2001 14.1725 20.0954 14.3694 19.9744 14.5857C19.4966 15.4395 18.7766 16.5717 17.8095 17.6952C15.8585 19.9618 13.0822 22 9.375 22C5.42153 22 2 18.5418 2 14C2 9.45817 5.42153 6 9.375 6C13.0822 6 15.8585 8.03821 17.8095 10.3048C18.7766 11.4283 19.4966 12.5605 19.9744 13.4143C20.0954 13.6306 20.2001 13.8275 20.2885 14Z" stroke="#587BFA" stroke-width="4"/>
<path d="M21.7115 14C21.7999 13.8275 21.9046 13.6306 22.0256 13.4143C22.5034 12.5605 23.2234 11.4283 24.1905 10.3048C26.1415 8.03821 28.9178 6 32.625 6C36.5785 6 40 9.45817 40 14C40 18.5418 36.5785 22 32.625 22C28.9178 22 26.1415 19.9618 24.1905 17.6952C23.2234 16.5717 22.5034 15.4395 22.0256 14.5857C21.9046 14.3695 21.7999 14.1725 21.7115 14Z" stroke="#587BFA" stroke-width="4"/>
</svg>
